<svg xmlns="http://www.w3.org/2000/svg" version="1.1" xmlns:xlink="http://www.w3.org/1999/xlink" xmlns:svgjs="http://svgjs.com/svgjs" width="1440" height="560" preserveAspectRatio="none" viewBox="0 0 1440 560"><g mask="url(&quot;#SvgjsMask1050&quot;)" fill="none"><path d="M397.505,360.662C418.967,360.415,438.794,349.292,449.604,330.75C460.493,312.071,460.551,289.228,450.222,270.234C439.394,250.322,420.162,235.564,397.505,234.94C373.806,234.288,351.072,246.491,339.508,267.187C328.199,287.427,331.064,312.272,343.287,331.973C354.841,350.595,375.591,360.914,397.505,360.662" fill="rgba(32, 28, 142, 0.4)" class="triangle-float3"></path><path d="M1301.222,556.471C1354.012,553.971,1395.125,516.159,1421.504,470.364C1447.828,424.665,1462.651,368.605,1435.47,323.411C1408.891,279.218,1352.777,271.631,1301.222,270.37C1246.488,269.032,1185.495,271.018,1155.099,316.555C1122.119,365.964,1128.541,432.041,1159.442,482.776C1189.137,531.532,1244.199,559.172,1301.222,556.471" fill="rgba(32, 28, 142, 0.4)" class="triangle-float1"></path><path d="M1067.532,254.035C1092.485,254.614,1120.682,253.833,1134.085,232.777C1148.164,210.658,1142.093,181.522,1127.591,159.678C1114.567,140.061,1091.078,132.289,1067.532,132.53C1044.478,132.766,1021.871,141.39,1009.564,160.885C996.403,181.733,993.098,208.875,1006.124,229.807C1018.585,249.831,1043.953,253.488,1067.532,254.035" fill="rgba(32, 28, 142, 0.4)" class="triangle-float1"></path><path d="M246.105,330.7C302.611,334.12,356.835,299.887,381.965,249.162C404.911,202.845,384.469,150.489,357.111,106.634C331.751,65.982,293.999,32.763,246.105,31.375C195.912,29.921,147.313,55.724,123.368,99.861C100.366,142.258,113.381,191.688,136.026,234.277C160.57,280.44,193.918,327.541,246.105,330.7" fill="rgba(32, 28, 142, 0.4)" class="triangle-float3"></path><path d="M674.716,561.803C722.009,562.547,766.789,538.679,790.622,497.823C814.636,456.657,814.312,405.332,789.854,364.429C766.011,324.555,721.153,302.551,674.716,303.982C630.663,305.34,593.27,332.989,571.249,371.168C549.246,409.315,543.952,455.567,564.959,494.272C586.921,534.736,628.682,561.079,674.716,561.803" fill="rgba(32, 28, 142, 0.4)" class="triangle-float2"></path><path d="M1371.07,601.134C1404.872,602.235,1432.004,575.905,1448.156,546.191C1463.514,517.938,1464.934,484.6,1449.855,456.198C1433.739,425.842,1405.425,400.026,1371.07,400.994C1337.878,401.929,1314.233,430.616,1299.616,460.431C1286.869,486.431,1289.105,515.62,1302.216,541.438C1316.958,570.466,1338.53,600.074,1371.07,601.134" fill="rgba(32, 28, 142, 0.4)" class="triangle-float2"></path><path d="M1216.986,496.556C1232.167,496.896,1245.637,486.898,1252.643,473.426C1259.149,460.915,1256.45,446.338,1249.476,434.081C1242.41,421.663,1231.271,411.066,1216.986,410.762C1202.248,410.448,1189.009,419.672,1182.007,432.644C1175.338,444.998,1177.249,459.575,1183.989,471.89C1191.056,484.802,1202.271,496.227,1216.986,496.556" fill="rgba(32, 28, 142, 0.4)" class="triangle-float1"></path><path d="M673.825,281.676C711.324,281.956,746.284,261.748,764.642,229.049C782.636,196.999,778.949,158.359,761.099,126.228C742.66,93.037,711.752,67.358,673.825,65.579C632.784,63.654,590.806,81.256,571.121,117.319C552.069,152.222,564.254,193.99,585.326,227.711C604.95,259.116,636.794,281.4,673.825,281.676" fill="rgba(32, 28, 142, 0.4)" class="triangle-float2"></path><path d="M20.812,488.041C36.937,487.301,50.654,477.614,58.902,463.738C67.36,449.508,70.675,432.069,62.708,417.558C54.474,402.562,37.912,393.841,20.812,394.367C4.545,394.868,-8.362,406.116,-16.842,420.007C-25.786,434.658,-32.17,452.519,-23.858,467.537C-15.355,482.901,3.27,488.846,20.812,488.041" fill="rgba(32, 28, 142, 0.4)" class="triangle-float3"></path></g><defs><mask id="SvgjsMask1050"><rect width="1440" height="560" fill="#ffffff"></rect></mask><style>
            @keyframes float1 {
                0%{transform: translate(0, 0)}
                50%{transform: translate(-10px, 0)}
                100%{transform: translate(0, 0)}
            }

            .triangle-float1 {
                animation: float1 5s infinite;
            }

            @keyframes float2 {
                0%{transform: translate(0, 0)}
                50%{transform: translate(-5px, -5px)}
                100%{transform: translate(0, 0)}
            }

            .triangle-float2 {
                animation: float2 4s infinite;
            }

            @keyframes float3 {
                0%{transform: translate(0, 0)}
                50%{transform: translate(0, -10px)}
                100%{transform: translate(0, 0)}
            }

            .triangle-float3 {
                animation: float3 6s infinite;
            }
        </style></defs></svg>