<svg xmlns="http://www.w3.org/2000/svg" version="1.1" xmlns:xlink="http://www.w3.org/1999/xlink" xmlns:svgjs="http://svgjs.dev/svgjs" viewBox="0 0 800 800"><defs><linearGradient x1="50%" y1="0%" x2="50%" y2="100%" id="ccchaos-grad"><stop stop-color="#1f8adb" stop-opacity="1" offset="0%"></stop><stop stop-color="hsl(331, 90%, 56%)" stop-opacity="1" offset="100%"></stop></linearGradient></defs><g stroke-width="2" stroke="url(#ccchaos-grad)" fill="none" stroke-linecap="round"><path d="M378.6 57.72Q388.28 62.22 398.42 67.07 409.01 72.29 420.04 77.89 431.47 83.87 443.28 90.21 455.4 96.9 467.8 103.88 480.4 111.13 493.13 118.58 505.92 126.17 518.69 133.84 531.37 141.51 543.86 149.11 556.09 156.56 567.98 163.8 579.46 170.75 590.47 177.37 600.94 183.59 610.83 189.38 620.1 194.71 628.73 199.56 643.71 207.62 656.78 214.37 673.34 230.37 663.91 248.3 656.3 258.47 650.97 268.65 648.36 278.83 648.65 289.01 651.83 299.18 657.65 309.36 665.66 319.54 675.25 329.72 685.66 339.89 696.1 350.07 705.76 360.25 713.89 370.43 719.87 380.61 723.22 390.78 723.7 400.96 721.26 411.14 716.1 421.32 708.61 431.5 699.38 441.67 689.1 451.85 678.59 462.03 668.65 472.21 660.05 482.38 653.46 492.56 649.38 502.74 648.13 512.92 649.81 523.1 654.28 533.28 661.21 543.45 670.05 553.63 666.19 563.78 662.4 574.18 658.6 584.68 654.67 595.13 650.52 605.37 646.07 615.26 641.23 624.66 635.92 633.44 630.1 641.49 623.71 648.72 616.72 655.05 609.1 660.45 600.85 664.9 591.97 668.41 582.48 671 572.41 672.76 561.8 673.75 550.7 674.11 539.16 673.94 527.26 673.42 515.06 672.68 502.65 671.9 490.09 671.24 477.48 670.88 464.87 670.98 452.35 671.69 440 673.13 427.86 675.43 416 678.68 404.47 682.94 393.32 688.24 382.56 694.6 369.88 690.73 357.6 689.24 345.33 690.34 332.73 692 319.08 692.93 304.59 692.46 288.5 688.4 271.42 681.64 262.33 676.59 252.95 670.58 243.3 663.63 233.43 655.81 223.36 647.22 213.14 637.94 202.8 628.11 192.39 617.87 181.96 607.37 171.53 596.75 161.15 586.18 150.85 575.81 140.66 565.78 130.61 556.23 120.71 547.28 110.99 539.02 109.32 529.03 108.02 519.03 107.18 509.03 106.86 499.04 107.09 489.04 107.86 479.04 109.1 469.05 110.72 459.05 112.59 449.05 114.57 439.06 116.5 429.06 118.24 419.06 119.65 409.07 120.62 399.07 121.08 389.07 120.99 379.08 120.36 369.08 119.23 359.08 117.7 349.09 115.89 339.09 113.92 329.09 111.96 319.1 110.16 309.1 108.65 299.1 107.56 289.11 106.96 279.11 106.9 269.11 107.39 259.12 108.4 249.12 109.83 239.13 111.58 229.13 113.52 219.13 123.49 216.07 133.58 213.34 143.77 210.89 154.02 208.62 164.31 206.44 174.59 204.27 184.84 202.03 195.01 199.64 205.06 197.01 214.95 194.08 224.65 190.79 234.12 187.1 243.34 182.98 252.27 178.4 260.92 173.36 269.25 167.87 277.27 161.95 284.98 155.62 292.39 148.94 299.52 141.95 306.39 134.72 313.05 127.31 319.53 119.79 325.87 112.23 332.14 104.7 338.37 97.27 344.64 90 351.01 82.94 357.53 76.15 364.26 69.67 374.93 60.62 378.6 57.72" stroke-dasharray="6 3" transform="rotate(0, 400, 400)" opacity="0.22"></path><path d="M382.19 69.96Q392.45 74.27 403.1 78.91 414.1 83.9 425.41 89.26 437 94.97 448.82 101.04 460.81 107.44 472.91 114.14 485.06 121.1 497.18 128.27 509.22 135.6 521.1 143.03 532.75 150.49 544.11 157.91 555.11 165.23 565.69 172.39 575.81 179.31 585.42 185.94 594.49 192.23 602.99 198.14 617.94 208.44 631.17 217.39 648.47 228.13 658.97 234.17 659.81 241.99 648.97 257.72 642.83 267.58 638.98 277.44 637.71 287.3 639.11 297.17 643.07 307.03 649.32 316.89 657.4 326.75 666.74 336.61 676.67 346.47 686.48 356.33 695.46 366.19 702.99 376.05 708.51 385.91 711.64 395.77 712.15 405.63 710 415.49 705.35 425.35 698.52 435.21 690.02 445.07 680.44 454.94 670.47 464.8 660.83 474.66 652.19 484.52 645.19 494.38 640.32 504.24 637.93 514.1 638.19 523.96 641.08 533.82 646.4 543.68 653.76 553.54 649.66 563.5 645.75 573.52 641.95 583.47 638.15 593.22 634.28 602.64 630.24 611.61 625.95 620.02 621.36 627.76 610.71 640.54 598.63 650.79 583.84 656.79 567.37 660.44 558.17 661.07 548.47 661.19 538.28 660.9 527.66 660.36 516.66 659.68 505.34 659.04 493.76 658.57 481.97 658.42 470.06 658.73 458.08 659.62 446.11 661.22 434.2 663.62 422.42 666.88 410.82 671.08 391.04 678.03 376.94 678.11 365.41 677.06 353.52 677.49 340.6 678.97 326.85 680.18 311.54 679.54 295.26 677.05 286.57 674.5 277.59 671.1 268.34 666.83 258.85 661.66 249.16 655.63 239.29 648.76 229.29 641.11 219.2 632.77 209.04 623.83 198.87 614.4 188.72 604.61 178.62 594.58 168.6 584.45 158.69 574.35 148.92 564.43 139.31 554.81 129.86 545.6 120.59 536.92 119.06 527.26 117.96 517.6 117.37 507.94 117.31 498.28 117.81 488.62 118.82 478.96 120.26 469.3 122.05 459.63 124.05 449.97 126.11 440.31 128.1 430.65 129.86 420.99 131.27 411.33 132.23 401.67 132.68 392.01 132.57 382.35 131.92 372.69 130.78 363.03 129.22 353.36 127.36 343.7 125.33 334.04 123.28 324.38 121.34 314.72 119.67 305.06 118.38 295.4 117.56 285.74 117.27 276.08 117.53 266.42 118.33 256.76 119.6 247.1 127 231.36 142.45 223.02 152.27 220.92 162.19 218.91 172.17 216.91 182.19 214.83 192.22 212.6 202.21 210.16 212.13 207.43 221.94 204.38 231.62 200.95 241.11 197.11 250.4 192.84 259.45 188.14 268.24 183 276.74 177.44 284.95 171.48 292.85 165.17 300.44 158.54 307.74 151.64 314.74 144.54 321.47 137.3 327.96 129.97 334.23 122.62 340.33 115.33 346.29 108.14 352.17 101.11 358.02 94.31 376.04 75.81 382.19 69.96" stroke-dasharray="6 0" transform="rotate(4.04, 400, 400)" opacity="0.74"></path><path d="M387.85 82.21Q398.45 86.32 409.3 90.75 420.39 95.51 431.66 100.62 443.06 106.08 454.55 111.87 466.07 117.98 477.56 124.39 488.95 131.05 500.2 137.93 511.24 144.98 522.02 152.15 532.48 159.38 542.57 166.6 552.26 173.77 561.49 180.8 570.25 187.66 578.5 194.28 586.24 200.6 593.46 206.59 606.1 217.22 617.31 226.58 632.48 238.09 642.13 244.52 643.55 252.16 634.74 267.38 630.07 276.92 627.63 286.46 627.59 296 629.95 305.54 634.55 315.08 641.1 324.62 649.16 334.16 658.19 343.7 667.61 353.24 676.78 362.78 685.12 372.32 692.06 381.86 697.15 391.4 700.06 400.94 700.59 410.48 698.7 420.02 694.53 429.56 688.35 439.1 680.55 448.64 671.67 458.18 662.28 467.72 653.01 477.26 644.46 486.8 637.19 496.34 631.7 505.88 628.33 515.42 627.31 524.96 628.72 534.5 632.44 544.04 638.25 553.58 633.84 563.13 629.7 572.58 625.75 581.83 621.93 590.76 614.26 606.95 606.26 621.35 597.05 632.15 586.77 640.6 574.3 645.27 560.36 647.94 543.95 648.08 526.11 647.35 516.42 646.77 506.34 646.27 495.92 645.99 485.21 646.04 474.26 646.55 463.12 647.63 451.85 649.36 440.51 651.83 429.15 655.11 417.83 659.23 398.39 665.93 384.73 665.91 373.3 664.65 361.23 664.8 347.82 666.06 333.48 667.2 317.58 666.89 300.77 665.05 291.88 663.01 282.75 660.23 273.41 656.67 263.89 652.3 254.22 647.12 244.45 641.16 234.59 634.46 224.7 627.05 214.81 619.03 204.94 610.47 195.14 601.47 185.43 592.14 175.83 582.59 166.37 572.94 157.06 563.31 147.91 553.82 138.95 544.58 130.15 535.69 128.84 526.36 127.99 517.03 127.68 507.7 127.91 498.36 128.67 489.03 129.91 479.7 131.56 470.37 133.5 461.04 135.6 451.71 137.72 442.37 139.74 433.04 141.5 423.71 142.9 414.38 143.85 405.05 144.27 395.71 144.15 386.38 143.49 377.05 142.34 367.72 140.77 358.38 138.88 349.05 136.8 339.72 134.67 330.39 132.62 321.06 130.8 311.72 129.32 302.39 128.27 293.06 127.74 283.73 127.75 274.4 128.3 265.06 129.36 255.73 136.34 240.7 151.11 233.09 160.53 231.24 170.06 229.38 179.69 227.45 189.4 225.37 199.14 223.09 208.89 220.54 218.63 217.68 228.3 214.47 237.89 210.88 247.35 206.89 256.66 202.48 265.78 197.66 274.68 192.43 283.34 186.82 291.74 180.85 299.86 174.57 307.68 168.01 315.21 161.23 322.43 154.27 329.37 147.21 336.02 140.09 342.4 132.97 348.55 125.92 354.48 118.98 365.81 105.78 376.85 93.32 385.09 84.91 387.85 82.21" stroke-dasharray="1 2" transform="rotate(8.08, 400, 400)" opacity="0.22"></path><path d="M394.94 94.47Q405.54 98.38 416.28 102.6 427.12 107.13 438 112 448.9 117.19 459.74 122.7 470.49 128.52 481.1 134.63 491.5 140.99 501.67 147.57 511.55 154.33 521.1 161.22 530.28 168.2 539.06 175.2 547.42 182.18 555.34 189.07 562.8 195.83 569.8 202.39 582.2 214.6 593.31 225.84 608.64 240.96 618.41 249.72 626.07 261.24 621.27 277.1 618.03 286.31 616.9 295.52 617.95 304.73 621.13 313.95 626.24 323.16 632.97 332.37 640.92 341.58 649.59 350.8 658.47 360.01 667.02 369.22 674.72 378.43 681.1 387.65 685.78 396.86 688.48 406.07 689.02 415.28 687.39 424.5 683.67 433.71 678.09 442.92 670.99 452.13 662.81 461.34 654.02 470.56 645.18 479.77 636.81 488.98 629.42 498.19 623.46 507.41 619.28 516.62 617.15 525.83 617.19 535.04 619.4 544.25 623.64 553.47 618.86 562.41 614.4 571.14 606.29 587.33 598.59 602.08 590.91 613.8 582.86 623.45 565.68 632.16 551.53 635.28 537.64 635.14 522.43 634.39 514.07 633.93 505.31 633.59 496.16 633.5 486.67 633.75 476.87 634.45 466.8 635.68 456.49 637.53 446.01 640.07 435.39 643.34 424.69 647.38 405.92 653.83 392.41 653.71 380.6 652.26 367.98 652.14 353.87 653.17 338.84 654.21 322.37 654.16 305.12 652.86 296.1 651.27 286.91 649.03 277.56 646.11 268.1 642.47 258.55 638.1 248.95 633.01 239.34 627.2 229.74 620.73 220.18 613.63 210.7 605.97 201.31 597.83 192.05 589.29 182.92 580.44 173.94 571.37 165.13 562.21 156.5 553.03 148.03 543.96 139.75 535.09 138.7 526.08 138.16 517.07 138.15 508.07 138.67 499.06 139.7 490.06 141.17 481.05 142.99 472.05 145.06 463.04 147.24 454.03 149.4 445.03 151.42 436.02 153.17 427.02 154.55 418.01 155.47 409.01 155.87 400 155.73 390.99 155.07 381.99 153.92 372.98 152.34 363.98 150.44 354.97 148.34 345.96 146.15 336.96 144.01 327.95 142.05 318.95 140.39 309.94 139.13 300.93 138.35 291.93 138.08 282.92 138.36 273.92 139.16 264.91 145.61 250.53 159.61 243.46 168.59 241.74 177.7 239.93 186.93 237.98 196.26 235.84 205.66 233.44 215.11 230.74 224.59 227.72 234.05 224.34 243.48 220.57 252.84 216.42 262.1 211.88 271.22 206.95 280.18 201.66 288.95 196.02 297.5 190.06 305.82 183.83 313.87 177.36 321.65 170.71 329.15 163.93 336.36 157.06 343.28 150.16 349.91 143.28 356.27 136.48 362.36 129.81 373.77 117.12 384.62 105.15 392.38 97.06 394.94 94.47" stroke-dasharray="5 3" transform="rotate(12.12, 400, 400)" opacity="0.30"></path><path d="M402.62 106.71Q423.18 114.44 443.64 123.37 463.69 133.53 482.97 144.86 501.19 157.18 518.1 170.24 533.51 183.7 547.31 197.18 559.49 210.28 570.14 222.62 579.44 233.88 587.67 243.79 595.19 252.22 602.4 259.13 609.77 264.62 617.76 268.93 608.61 286.68 606.76 304.43 612.62 322.18 624.91 339.93 640.93 357.68 657.18 375.44 670.11 393.19 676.9 410.94 676.05 428.69 667.75 446.44 653.82 464.19 637.31 481.94 621.82 499.69 610.74 517.44 606.5 535.19 610.02 552.94 600.02 569.02 591.26 583.56 583.34 596.06 575.81 606.18 568.22 613.73 560.15 618.78 551.22 621.56 541.12 622.52 529.64 622.27 516.63 621.51 502.06 621.02 485.99 621.55 468.57 623.81 449.99 628.34 430.54 635.55 410.52 645.6 399.21 641.53 386.83 639.71 373.28 639.55 358.55 640.32 342.72 641.25 325.9 641.56 308.29 640.52 290.09 637.55 271.55 632.22 252.92 624.3 234.41 613.78 216.24 600.85 198.57 585.91 181.52 569.49 165.13 552.24 149.44 534.87 148.5 517.51 149.63 500.15 152.59 482.79 156.73 465.43 161.15 448.07 164.87 430.71 167.09 413.35 167.32 395.99 165.5 378.63 162.04 361.27 157.7 343.91 153.42 326.55 150.13 309.19 148.57 291.83 149.06 274.47 151.51 257.11 168.03 253.96 185.17 250.43 202.85 246.11 220.93 240.68 239.25 233.9 257.6 225.67 275.77 216 293.5 205.01 310.6 192.94 326.85 180.1 342.12 166.84 356.29 153.55 369.35 140.6 381.34 128.32 397.49 111.84 402.62 106.71" stroke-dasharray="8 3" transform="rotate(16.16, 400, 400)" opacity="0.52"></path><path d="M409.98 118.96Q429.16 126.29 447.87 134.74 465.82 144.36 482.79 155.08 498.56 166.77 512.99 179.2 526.01 192.1 537.61 205.14 547.87 217.94 556.95 230.18 565.08 241.53 572.55 251.73 579.71 260.6 586.94 268.05 594.62 274.11 603.15 278.9 596.76 295.95 597.19 313.01 604.38 330.06 616.88 347.12 632.19 364.17 647.27 381.23 659.1 398.28 665.32 415.33 664.69 432.39 657.33 449.44 644.72 466.5 629.37 483.55 614.34 500.6 602.64 517.66 596.6 534.71 597.42 551.77 586.65 566.05 577.23 578.63 568.83 589.17 561.1 597.45 545.93 606.31 529.5 609.7 519.78 609.34 508.87 608.74 496.63 608.56 483.02 609.46 468.08 612 451.91 616.65 434.68 623.72 416.6 633.36 404.45 629.36 391.19 627.41 376.81 627 361.39 627.53 345.06 628.33 327.98 628.71 310.37 628.05 292.43 625.81 274.4 621.56 256.48 615.05 238.86 606.19 221.7 595.05 205.12 581.89 189.18 567.11 173.91 551.21 159.29 534.76 159.05 518.06 160.8 501.36 164.18 484.66 168.52 467.96 172.95 451.26 176.59 434.56 178.71 417.86 178.9 401.16 177.1 384.46 173.68 367.76 169.33 351.06 164.91 334.36 161.3 317.66 159.22 300.96 159.1 284.26 160.94 267.56 176.45 264.47 192.57 260.76 209.26 256.11 226.45 250.29 243.99 243.14 261.74 234.62 279.49 224.79 297.04 213.81 314.17 201.91 330.69 189.38 346.42 176.55 361.21 163.78 374.97 151.38 387.66 139.63 404.64 123.87 409.98 118.96" stroke-dasharray="0 7" transform="rotate(20.200000000000003, 400, 400)" opacity="0.93"></path><path d="M416.19 131.2Q433.52 138.14 450.11 146.12 465.77 155.19 480.35 165.3 493.73 176.35 505.87 188.14 516.79 200.45 526.55 212.97 535.29 225.42 543.22 237.46 550.58 248.81 557.65 259.21 564.75 268.45 572.21 276.41 580.36 283.05 589.49 288.42 585.71 304.75 588.15 321.08 596.36 337.42 608.86 353.75 623.38 370.08 637.28 386.41 648.05 402.74 653.74 419.07 653.3 435.4 646.83 451.73 635.49 468.07 621.34 484.4 606.95 500.73 594.92 517.06 587.44 533.39 585.86 549.72 574.37 562.1 564.25 572.73 555.25 581.39 547.12 587.99 532.2 594.61 517.08 596.83 508.69 596.46 499.46 596.06 489.19 596.21 477.8 597.45 465.22 600.25 451.46 604.98 436.6 611.9 420.74 621.11 407.64 617.2 393.5 615.14 378.41 614.51 362.5 614.79 345.92 615.43 328.86 615.84 311.53 615.47 294.12 613.83 276.83 610.53 259.82 605.28 243.25 597.94 227.22 588.52 211.8 577.15 197.03 564.09 182.9 549.72 169.37 534.5 169.86 518.47 172.19 502.44 175.93 486.42 180.4 470.39 184.8 454.37 188.33 438.34 190.34 422.31 190.48 406.29 188.71 390.26 185.36 374.23 181.04 358.2 176.52 342.18 172.63 326.15 170.08 310.12 169.32 294.1 170.5 278.07 184.94 274.84 199.98 270.82 215.62 265.77 231.79 259.53 248.42 252.03 265.38 243.26 282.51 233.34 299.65 222.42 316.6 210.74 333.17 198.57 349.17 186.21 364.45 173.97 378.87 162.13 392.32 150.94 410.47 135.89 416.19 131.2" stroke-dasharray="2 11" transform="rotate(24.24, 400, 400)" opacity="0.25"></path><path d="M420.5 143.45Q435.7 149.99 450.02 157.51 463.36 166.03 475.64 175.53 486.85 185.92 497 197.06 506.18 208.73 514.51 220.7 522.16 232.71 529.34 244.48 536.29 255.73 543.27 266.22 550.55 275.74 558.4 284.15 567.08 291.36 576.81 297.34 575.44 312.92 579.57 328.51 588.52 344.09 600.82 359.67 614.47 375.25 627.22 390.83 636.98 406.41 642.15 421.99 641.89 437.57 636.24 453.15 626.13 468.73 613.2 484.31 599.59 499.9 587.52 515.48 578.96 531.06 575.33 546.64 563.22 557.09 552.42 565.83 542.78 572.75 534.12 577.86 518.88 582.62 504.34 583.97 488.48 583.82 470.57 585.54 460.07 588.55 448.55 593.33 436 600.08 422.46 608.87 408.49 605.05 393.66 602.91 378.11 602.07 362 602.12 345.49 602.58 328.77 602.97 312.02 602.81 295.4 601.66 279.06 599.15 263.15 595.01 247.75 589.07 232.94 581.25 218.75 571.6 205.18 560.3 192.19 547.59 179.74 533.82 180.96 518.48 183.81 503.15 187.84 487.81 192.39 472.48 196.71 457.14 200.08 441.81 201.97 426.47 202.06 411.14 200.33 395.8 197.07 380.47 192.81 365.13 188.26 349.79 184.15 334.46 181.16 319.12 179.78 303.79 180.24 288.45 193.59 284.92 207.52 280.49 222.03 275 237.1 268.36 252.68 260.53 268.69 251.58 285.01 241.63 301.5 230.83 318.01 219.43 334.37 207.67 350.4 195.82 365.95 184.14 380.84 172.87 394.96 162.23 414.35 147.92 420.5 143.45" stroke-dasharray="8 3" transform="rotate(28.28, 400, 400)" opacity="0.98"></path><path d="M422.42 155.7Q435.39 161.85 447.47 168.9 458.64 176.88 468.88 185.77 478.24 195.5 486.79 205.95 494.65 216.96 501.97 228.34 508.92 239.84 515.71 251.24 522.55 262.29 529.67 272.77 537.29 282.48 545.62 291.24 554.85 298.95 565.14 305.54 565.91 320.34 571.4 335.14 580.81 349.95 592.75 364.75 605.46 379.55 617.07 394.36 625.88 409.16 630.57 423.96 630.47 438.76 625.58 453.57 616.63 468.37 604.93 483.18 592.22 497.98 580.35 512.78 571.08 527.59 565.78 542.39 553.17 550.96 541.79 557.94 531.53 563.3 522.28 567.12 506.35 570.39 491.77 571.16 477.32 571.43 461.77 573.73 452.95 576.93 443.35 581.72 432.9 588.26 421.56 596.62 406.97 592.92 391.77 590.71 376.12 589.69 360.17 589.51 344.08 589.8 328.02 590.12 312.12 590.09 296.52 589.32 281.34 587.47 266.66 584.29 252.53 579.58 239 573.23 226.06 565.23 213.69 555.65 201.85 544.66 190.46 532.48 192.36 517.86 195.67 503.24 199.92 488.61 204.47 473.99 208.65 459.37 211.85 444.75 213.6 430.12 213.64 415.5 211.96 400.88 208.81 386.26 204.66 371.64 200.11 357.02 195.84 342.39 192.47 327.77 190.51 313.15 190.23 298.53 202.5 294.58 215.29 289.69 228.63 283.75 242.52 276.73 256.95 268.64 271.87 259.57 287.19 249.66 302.82 239.06 318.64 228 334.5 216.69 350.26 205.37 365.77 194.27 380.88 183.59 395.43 173.51 415.87 159.94 422.42 155.7" stroke-dasharray="2 8" transform="rotate(32.32, 400, 400)" opacity="0.14"></path><path d="M421.72 167.95Q432.56 173.72 442.6 180.31 451.88 187.75 460.43 196.02 468.33 205.09 475.7 214.85 482.66 225.18 489.37 235.9 495.98 246.84 502.69 257.79 509.66 268.55 517.09 278.9 525.14 288.65 533.97 297.66 543.71 305.77 554.47 312.91 557.06 326.91 563.59 340.91 573.19 354.91 584.62 368.91 596.35 382.91 606.86 396.91 614.75 410.91 618.99 424.91 619.02 438.91 614.84 452.91 606.99 466.91 596.51 480.91 584.78 494.91 573.34 508.91 563.7 522.91 557.12 536.91 544.2 543.71 532.36 549.1 521.56 553.1 511.74 555.84 494.89 557.98 479.81 558.42 466 559.16 451.94 562 444.36 565.35 436.27 570.12 427.55 576.45 418.15 584.36 403.31 580.79 388.15 578.53 372.79 577.35 357.39 576.97 342.07 577.07 326.96 577.3 312.17 577.33 297.8 576.84 283.91 575.53 270.56 573.15 257.77 569.51 245.54 564.47 233.85 557.99 222.67 550.07 211.93 540.78 201.56 530.29 204.08 516.4 207.76 502.52 212.14 488.63 216.63 474.75 220.63 460.86 223.63 446.98 225.23 433.09 225.22 419.21 223.6 405.32 220.58 391.44 216.56 377.56 212.08 363.67 207.71 349.79 204.03 335.9 201.54 322.02 200.55 308.13 211.73 303.7 223.38 298.33 235.53 291.96 248.2 284.62 261.41 276.35 275.12 267.25 289.29 257.45 303.87 247.12 318.75 236.45 333.84 225.64 349.03 214.88 364.17 204.38 379.15 194.3 393.82 184.8 414.89 171.97 421.72 167.95" stroke-dasharray="8 1" transform="rotate(36.36, 400, 400)" opacity="0.82"></path><path d="M418.49 180.2Q427.45 185.58 435.79 191.71 443.56 198.62 450.83 206.29 457.71 214.69 464.31 223.75 470.76 233.37 477.19 243.41 483.76 253.73 490.6 264.15 497.87 274.51 505.69 284.61 514.2 294.3 523.49 303.41 533.65 311.81 544.74 319.39 548.81 332.57 556.05 345.74 565.62 358.91 576.4 372.09 587.13 385.26 596.57 398.44 603.6 411.61 607.41 424.78 607.56 437.96 604.02 451.13 597.21 464.31 587.93 477.48 577.25 490.66 566.43 503.83 556.72 517.01 549.26 530.18 536.21 535.39 524.08 539.39 512.87 542.26 502.57 544.13 484.74 545.48 468.89 545.79 455.1 547.03 441.73 550.39 434.94 553.84 427.9 558.56 420.49 564.64 412.61 572.12 398 568.67 383.31 566.39 368.66 565.08 354.16 564.51 339.91 564.42 326.01 564.53 312.53 564.58 299.52 564.28 287.02 563.37 275.05 561.65 263.6 558.91 252.67 555.03 242.2 549.91 232.16 543.52 222.48 535.88 213.08 527.08 216.12 513.95 220.08 500.83 224.5 487.71 228.85 474.58 232.64 461.46 235.42 448.34 236.86 435.21 236.8 422.09 235.25 408.97 232.38 395.84 228.53 382.72 224.15 369.6 219.75 356.48 215.85 343.35 212.89 330.23 211.23 317.11 221.36 312.17 231.89 306.33 242.85 299.61 254.3 292.02 266.23 283.65 278.66 274.6 291.58 265.01 304.94 255.02 318.69 244.79 332.76 234.52 347.08 224.35 361.53 214.46 376.01 204.99 390.41 196.06 411.55 183.99 418.49 180.2" stroke-dasharray="8 5" transform="rotate(40.400000000000006, 400, 400)" opacity="0.28"></path><path d="M413.1 192.44Q420.56 197.45 427.6 203.13 434.28 209.51 440.71 216.58 446.97 224.32 453.17 232.67 459.43 241.57 465.87 250.9 472.59 260.54 479.72 270.37 487.35 280.23 495.59 289.98 504.5 299.46 514.16 308.53 524.62 317.07 535.89 324.96 541.08 337.29 548.73 349.62 558.05 361.95 568.08 374.28 577.79 386.61 586.2 398.94 592.42 411.27 595.83 423.6 596.07 435.93 593.12 448.26 587.28 460.59 579.16 472.92 569.58 485.25 559.52 497.58 550.03 509.91 542.08 522.24 529.09 526.06 516.86 528.9 505.42 530.86 494.76 532.08 484.88 532.73 475.71 533.01 459.59 533.45 444.97 534.71 431.85 539.36 418.97 547.02 412.41 552.84 405.61 559.87 391.68 556.57 377.88 554.28 364.29 552.86 351 552.11 338.07 551.84 325.57 551.83 313.52 551.84 301.95 551.65 290.88 551.04 280.29 549.83 270.17 547.84 260.48 544.93 251.18 541.01 242.21 536 233.52 529.9 225.03 522.73 228.48 510.39 232.61 498.05 236.98 485.71 241.14 473.37 244.67 461.04 247.21 448.7 248.49 436.36 248.38 424.02 246.9 411.69 244.2 399.35 240.55 387.01 236.33 374.67 231.97 362.34 227.92 350 224.59 337.66 222.34 325.33 231.46 319.9 240.9 313.67 250.71 306.66 260.93 298.93 271.59 290.57 282.71 281.66 294.3 272.35 306.33 262.76 318.8 253.04 331.65 243.34 344.84 233.79 358.3 224.53 371.94 215.68 385.69 207.33 406.27 196 413.1 192.44" stroke-dasharray="9 9" transform="rotate(44.44, 400, 400)" opacity="0.47"></path><path d="M406.18 204.69Q418.66 214.87 430.71 226.89 436.7 233.98 442.81 241.63 449.13 249.79 455.75 258.38 462.76 267.31 470.23 276.48 478.23 285.76 486.82 295.04 496.05 304.18 505.95 313.07 516.54 321.59 527.81 329.63 533.77 341.1 541.54 352.57 550.43 364.04 559.64 375.51 568.33 386.98 575.75 398.45 581.22 409.92 584.25 421.39 584.57 432.87 582.15 444.34 577.21 455.81 570.19 467.28 561.72 478.75 552.56 490.22 543.53 501.7 535.43 513.17 522.71 515.84 510.59 517.76 499.1 519.03 488.27 519.8 478.1 520.2 468.58 520.42 451.65 521.16 436.31 522.91 422.93 527.87 410.26 535.5 404.12 541.04 397.95 547.63 385.11 544.48 372.55 542.21 360.31 540.69 348.45 539.8 337.01 539.36 326 539.2 315.44 539.14 305.33 538.99 295.66 538.59 286.41 537.76 277.55 536.36 269.04 534.26 260.82 531.34 252.85 527.55 243.1 514.23 245.32 494.11 249.56 482.58 253.47 471.05 256.71 459.51 259 447.98 260.11 436.45 259.96 424.92 258.56 413.39 256.04 401.86 252.61 390.33 248.59 378.8 244.34 367.27 240.23 355.74 236.64 344.22 233.89 332.69 242.05 326.84 250.47 320.31 259.17 313.13 268.21 305.37 277.63 297.1 287.45 288.45 297.68 279.5 308.35 270.38 319.43 261.21 330.93 252.11 342.8 243.2 355.02 234.58 367.53 226.35 380.27 218.59 399.68 208.02 406.18 204.69" stroke-dasharray="2 10" transform="rotate(48.48, 400, 400)" opacity="0.57"></path><path d="M398.54 216.94Q409.98 226.27 421.51 237.23 427.49 243.67 433.72 250.62 440.24 258.04 447.13 265.88 454.45 274.07 462.24 282.52 470.53 291.15 479.38 299.86 488.78 308.54 498.76 317.1 509.3 325.44 520.4 333.45 526.79 344.05 534.43 354.65 542.73 365.26 551.05 375.86 558.75 386.46 565.23 397.07 569.99 407.67 572.67 418.27 573.05 428.88 571.11 439.48 566.99 450.09 561.02 460.69 553.66 471.29 545.47 481.9 537.09 492.5 529.17 503.11 516.91 504.88 505.1 506.11 493.77 506.91 482.96 507.39 472.69 507.7 462.97 507.95 445.41 509.07 429.37 511.28 415.46 516.48 402.52 524 396.46 529.25 390.52 535.38 379.1 532.39 368.02 530.16 357.32 528.59 347.01 527.57 337.11 526.97 327.62 526.66 310.02 526.29 293.5 525.51 278.46 522.77 264.05 518.22 255.59 507.19 258.2 488.98 262.22 478.28 265.83 467.57 268.76 456.87 270.78 446.16 271.73 435.46 271.55 424.75 270.23 414.05 267.9 403.35 264.72 392.64 260.94 381.94 256.85 371.24 252.78 360.53 249.03 349.83 245.9 339.12 253.18 332.97 260.63 326.25 268.3 319.02 276.23 311.34 284.46 303.29 293.03 294.97 301.94 286.47 311.24 277.88 320.91 269.3 330.98 260.84 341.43 252.59 352.24 244.62 363.4 237.02 374.86 229.84 392.57 220.03 398.54 216.94" stroke-dasharray="2 5" transform="rotate(52.52, 400, 400)" opacity="0.55"></path><path d="M391.07 229.18Q402.13 237.69 413.64 247.61 419.78 253.41 426.23 259.66 433.01 266.35 440.18 273.43 447.75 280.85 455.77 288.55 464.24 296.46 473.18 304.52 482.59 312.63 492.46 320.72 502.78 328.71 513.53 336.51 520.02 346.25 527.31 355.98 534.91 365.71 542.31 375.44 549.03 385.18 554.63 394.91 558.74 404.64 561.09 414.37 561.51 424.11 559.99 433.84 556.63 443.57 551.64 453.3 545.35 463.04 538.19 472.77 530.61 482.5 523.13 492.23 511.52 493.35 500.21 494.11 489.25 494.62 478.67 494.98 468.51 495.29 458.78 495.65 440.9 497.19 424.34 499.83 409.83 505.18 396.38 512.53 382.28 518.89 364.91 518.15 347.24 515.61 330.65 514.23 315.7 513.74 301.58 513.13 288.5 511.27 275.81 508.1 268.43 499.07 271.21 482.71 274.94 472.84 278.21 462.98 280.81 453.12 282.56 443.25 283.35 433.39 283.13 423.53 281.91 413.66 279.77 403.8 276.85 393.94 273.35 384.07 269.5 374.21 265.55 364.35 263.3 346.39 271.41 331.52 278.14 324.37 285.05 316.9 292.18 309.17 299.56 301.28 307.23 293.29 315.2 285.29 323.5 277.35 332.14 269.55 341.13 261.97 350.46 254.66 360.14 247.68 370.15 241.09 385.77 232.05 391.07 229.18" stroke-dasharray="8 7" transform="rotate(56.56, 400, 400)" opacity="0.16"></path><path d="M384.63 241.44Q395.66 248.92 407.56 258.03 420.59 268.78 434.94 281.06 450.76 294.62 468.1 309.09 486.9 324.04 507.04 338.96 520.12 356.68 533.4 374.41 543.96 392.13 549.5 409.85 548.81 427.57 542.04 445.3 530.66 463.02 517.17 480.74 495.72 481.92 475.19 482.66 455.83 483.58 437.83 485.35 421.26 488.56 406.13 493.68 392.34 501.07 379.73 510.88 363.67 506.15 348.87 503.34 335.22 501.91 322.55 501.24 310.63 500.69 299.22 499.57 288.06 497.29 276.88 493.37 284.31 475.35 290.59 457.33 294.33 439.31 294.71 421.28 291.65 403.26 285.83 385.24 278.5 367.22 271.29 349.2 282.8 336.17 294.66 322.09 307.11 307.41 320.39 292.63 334.68 278.25 350.11 264.7 366.77 252.34 384.63 241.44 384.63 241.44 384.63 241.44" stroke-dasharray="7 0" transform="rotate(60.599999999999994, 400, 400)" opacity="0.50"></path><path d="M380 253.68Q391.3 260.4 403.54 268.49 416.87 277.96 431.37 288.77 447.07 300.75 463.95 313.66 481.9 327.17 500.78 340.93 512.79 356.93 524.3 372.92 533.22 388.91 537.92 404.91 537.56 420.9 532.21 436.89 522.82 452.89 511.11 468.88 491.42 469.73 472.26 470.55 453.86 471.81 436.4 473.98 420.01 477.47 404.75 482.62 390.64 489.64 377.62 498.63 364.61 494.2 352.55 491.35 341.31 489.72 330.71 488.85 320.55 488.26 310.62 487.45 300.71 485.96 290.64 483.36 297.47 467.05 302.95 450.74 306.08 434.44 306.29 418.13 303.54 401.82 298.34 385.51 291.62 369.2 284.6 352.89 294.75 340.25 305.05 326.96 315.68 313.39 326.85 299.92 338.74 286.93 351.49 274.73 365.22 263.58 380 253.68 380 253.68 380 253.68" stroke-dasharray="10 5" transform="rotate(64.64, 400, 400)" opacity="0.92"></path><path d="M377.69 265.93Q389.25 271.9 401.68 278.99 415.03 287.24 429.31 296.62 444.49 307.02 460.51 318.3 477.26 330.25 494.59 342.61 505.26 356.9 515.01 371.18 522.4 385.46 526.34 399.75 526.25 414.03 522.15 428.31 514.64 442.6 504.82 456.88 487.1 457.69 469.63 458.74 452.57 460.36 436.1 462.88 420.34 466.57 405.39 471.63 391.31 478.22 378.12 486.39 367.77 482.28 358.05 479.45 348.82 477.66 339.92 476.59 331.21 475.89 322.51 475.22 312.16 466.09 315.28 443.38 317.82 428.78 317.87 414.19 315.44 399.6 310.87 385 304.86 370.41 298.27 355.82 307.21 343.87 316.14 331.6 325.21 319.28 334.57 307.2 344.37 295.62 354.75 284.77 371.76 270.38 377.69 265.93" stroke-dasharray="2 5" transform="rotate(68.68, 400, 400)" opacity="0.43"></path><path d="M377.99 278.18Q389.57 283.4 401.85 289.54 414.83 296.61 428.48 304.6 442.74 313.47 457.54 323.11 472.78 333.41 488.34 344.21 497.49 356.8 505.52 369.4 511.51 382 514.76 394.6 514.88 407.2 511.87 419.8 506.07 432.4 498.16 445 482.57 445.96 467.02 447.32 451.63 449.29 436.55 452.07 421.88 455.85 407.71 460.74 394.13 466.82 381.18 474.14 365.24 468.06 349.96 464.5 334.62 462.95 318.62 461.19 323.78 448.3 327.57 435.42 329.53 422.53 329.45 409.64 327.33 396.76 323.42 383.87 318.18 370.99 312.21 358.11 320.08 347.13 327.83 336.06 335.58 325.11 343.42 314.47 351.48 304.32 359.86 294.82 373.33 282.12 377.99 278.18" stroke-dasharray="7 8" transform="rotate(72.72, 400, 400)" opacity="0.81"></path><path d="M380.86 290.42Q392.07 294.93 403.78 300.14 415.96 306.09 428.56 312.76 441.52 320.14 454.78 328.17 468.26 336.8 481.88 345.92 489.41 356.86 495.83 367.8 500.56 378.74 503.18 389.68 503.46 400.63 501.36 411.57 497.09 422.51 491.01 433.46 477.64 434.69 464.17 436.36 450.71 438.61 437.35 441.56 424.17 445.3 411.24 449.92 398.64 455.44 386.42 461.89 373.45 456.25 360.54 452.6 341.91 444.58 339.78 427.07 341.22 415.88 341.03 404.69 339.23 393.49 335.96 382.3 331.54 371.11 326.35 359.92 333.26 350.15 339.99 340.45 346.62 330.95 353.22 321.79 359.87 313.07 366.64 304.88 377.23 293.87 380.86 290.42" stroke-dasharray="8 1" transform="rotate(76.76, 400, 400)" opacity="0.54"></path><path d="M385.95 302.67Q396.35 306.47 407.04 310.81 417.98 315.68 429.15 321.11 440.5 327.07 451.97 333.56 463.52 340.54 475.07 347.95 480.99 357.27 485.92 366.59 489.54 375.9 491.6 385.22 491.97 394.53 490.64 403.85 487.67 413.16 483.28 422.48 472.14 423.99 460.85 425.93 449.48 428.36 438.08 431.35 426.7 434.94 415.41 439.18 396.07 445.37 382.48 444.27 371.23 441.09 359.44 438.94 351.45 433.17 351.91 418.57 352.89 409.05 352.61 399.53 351.11 390.01 348.48 380.49 344.9 370.97 340.59 361.45 346.61 353.07 352.44 344.84 358.12 336.85 363.71 329.16 380.36 308.94 385.95 302.67" stroke-dasharray="4 1" transform="rotate(80.80000000000001, 400, 400)" opacity="0.39"></path><path d="M392.69 314.92Q411.06 321.53 429.85 329.66 448.86 339.35 467.81 350.51 475.8 365.94 480.02 381.38 479.7 396.81 474.9 412.24 456.84 416.09 438.32 421.44 419.58 428.51 400.88 437.39 391.7 432.7 381.98 429.46 371.53 427.32 360.26 425.87 363.95 410.13 364.2 394.39 360.96 378.64 354.83 362.9 364.98 349.32 374.56 336.62 388.21 320 392.69 314.92" stroke-dasharray="10 8" transform="rotate(84.84, 400, 400)" opacity="0.47"></path><path d="M400.28 327.17Q415.23 332.32 430.25 338.45 445.22 345.6 460 353.76 465.47 366.05 468.44 378.34 468.55 390.63 465.8 402.92 451.97 406.85 437.71 411.82 423.15 417.91 408.39 425.15 400.52 421.23 392.14 418.26 379.53 409.04 375.78 389.49 373.38 376.99 368.94 364.48 377.42 353.99 385.42 344.2 396.65 331.2 400.28 327.17" stroke-dasharray="3 8" transform="rotate(88.88, 400, 400)" opacity="0.94"></path><path d="M407.84 339.41Q418.94 343.17 429.96 347.48 440.85 352.38 451.56 357.85 454.93 367.04 456.85 376.22 451.66 391.83 435.96 402.5 416.96 408.61 401.48 407.32 390.94 399.82 387.36 385.03 387.63 367.33 395.93 351.91 404.93 342.41 407.84 339.41" stroke-dasharray="3 4" transform="rotate(92.92, 400, 400)" opacity="0.22"></path><path d="M414.48 351.66Q428.66 356.77 442.45 362.91 445.27 375.13 445.38 387.37 432.84 393.46 419.72 400.65 409.71 396.66 399.03 393.58 398.94 381.22 396.4 368.88 410.11 355.73 414.48 351.66" stroke-dasharray="4 6" transform="rotate(96.96, 400, 400)" opacity="0.25"></path></g></svg>