<svg xmlns="http://www.w3.org/2000/svg" version="1.1" xmlns:xlink="http://www.w3.org/1999/xlink" xmlns:svgjs="http://svgjs.dev/svgjs" viewBox="0 0 800 800"><g stroke-width="2" stroke="#e0cde4" fill="none" stroke-linecap="round"><path d="M379.34 76.61Q387.14 84.08 395.06 91.16 403.14 97.73 411.37 103.71 419.79 109.03 428.38 113.67 437.18 117.64 446.18 120.97 455.38 123.76 464.8 126.09 474.44 128.1 484.3 129.95 494.38 131.8 504.67 133.82 515.17 136.17 525.87 139.01 536.77 142.46 547.85 146.63 559.11 151.59 570.52 157.36 582.07 163.93 593.74 171.25 605.52 179.23 617.38 187.74 629.3 196.62 641.26 205.69 653.23 214.76 665.2 223.62 677.12 232.1 688.99 240 700.77 247.18 712.44 253.52 716.69 264.22 720.03 274.92 722.37 285.63 723.64 296.33 723.79 307.04 722.83 317.74 720.79 328.44 717.71 339.15 713.7 349.85 708.87 360.56 703.37 371.26 697.36 381.96 691 392.67 684.51 403.37 678.05 414.08 671.83 424.78 666.03 435.48 660.81 446.19 656.34 456.89 652.75 467.6 650.13 478.3 648.58 489.01 648.13 499.71 648.79 510.41 650.56 521.12 653.37 531.82 657.14 542.53 661.77 553.23 667.11 563.94 673 574.64 664.93 599.41 649.45 599.35 635.83 595.54 621.55 593.13 606.08 596.12 589.88 603.68 581.35 610.36 572.57 618.66 563.57 628.46 554.33 639.52 544.88 651.58 535.22 664.3 525.37 677.29 515.33 690.19 505.13 702.59 494.77 714.13 484.29 724.48 473.69 733.36 462.99 740.58 452.21 746.02 441.37 749.63 430.48 751.48 419.58 751.72 408.67 750.57 401.26 737.89 393.7 724.65 385.99 711.26 378.11 698.13 370.08 685.65 361.88 674.18 353.51 664.01 344.98 655.4 336.29 648.48 327.44 643.32 318.44 639.92 309.3 638.16 300.03 637.85 290.63 638.75 281.12 640.52 271.5 642.84 261.8 645.3 252.01 647.54 242.16 649.2 232.26 649.93 222.32 649.47 212.35 647.58 202.38 644.13 192.4 639.04 182.44 632.34 172.5 624.12 162.59 614.55 152.73 603.85 142.93 592.33 133.2 580.31 123.53 568.13 113.94 556.14 112.72 545.93 111.54 535.72 110.43 525.51 109.43 515.3 108.56 505.09 107.85 494.89 107.32 484.68 106.98 474.47 106.86 464.26 106.94 454.05 107.24 443.84 107.73 433.63 108.41 423.42 109.25 413.21 110.23 403 111.32 392.79 112.49 382.59 113.7 372.38 114.93 362.17 116.12 351.96 117.25 341.75 118.29 331.54 119.2 321.33 119.95 311.12 120.53 300.91 120.92 290.71 121.1 280.5 121.07 270.29 120.83 260.08 120.39 249.87 123.75 234.05 136.43 227.39 153.45 224.15 170.15 219.2 178.33 215.43 186.42 210.8 194.41 205.3 202.32 198.99 210.16 191.92 217.93 184.21 225.65 176 233.32 167.46 240.96 158.76 248.59 150.09 256.2 141.6 263.82 133.48 271.47 125.85 279.15 118.82 286.89 112.47 294.69 106.85 302.58 101.96 310.56 97.76 318.65 94.19 326.86 91.16 335.21 88.54 343.71 86.19 352.36 83.97 361.18 81.73 374.76 77.96 379.34 76.61" stroke-dasharray="7 7" transform="rotate(0, 400, 400)" opacity="0.05"></path><path d="M377.93 89.57Q385.78 96.84 393.77 103.73 401.92 110.15 410.24 116 418.74 121.23 427.41 125.82 436.28 129.75 445.33 133.07 454.58 135.83 464.02 138.13 473.66 140.08 483.5 141.81 493.52 143.46 503.72 145.2 514.1 147.18 524.65 149.54 535.35 152.41 546.2 155.91 557.18 160.12 568.27 165.08 579.47 170.82 590.75 177.32 602.09 184.51 613.48 192.32 624.9 200.62 636.32 209.26 647.72 218.09 659.08 226.91 670.38 235.56 681.6 243.85 692.71 251.62 703.7 258.73 707.22 268.99 709.87 279.26 711.56 289.53 712.26 299.79 711.94 310.06 710.61 320.32 708.31 330.59 705.1 340.85 701.06 351.12 696.32 361.38 691 371.65 685.23 381.91 679.19 392.18 673.04 402.45 666.93 412.71 661.05 422.98 655.55 433.24 650.58 443.51 646.27 453.77 642.75 464.04 640.11 474.31 638.42 484.57 637.73 494.84 638.06 505.1 639.39 515.37 641.7 525.63 644.91 535.9 648.95 546.17 653.69 556.43 659.02 566.7 650.99 586.36 636.37 584.63 623.7 581.81 610.47 581.1 596.23 586.28 581.35 595.88 573.52 603.33 565.47 612.19 557.21 622.29 548.73 633.41 540.04 645.28 531.15 657.59 522.07 669.99 512.8 682.14 503.36 693.72 493.76 704.39 484.01 713.91 474.12 722.03 464.12 728.59 454.01 733.52 443.81 736.78 433.54 738.45 423.21 738.66 412.84 737.61 405.43 725.52 397.87 712.91 390.15 700.13 382.27 687.55 374.24 675.51 366.04 664.33 357.69 654.29 349.19 645.6 340.55 638.44 331.77 632.87 322.85 628.92 313.81 626.51 304.66 625.52 295.41 625.74 286.06 626.93 276.63 628.8 267.13 631.02 257.57 633.26 247.97 635.19 238.34 636.5 228.68 636.9 219.01 636.17 209.35 634.11 199.7 630.62 190.07 625.64 180.48 619.18 170.93 611.34 161.44 602.27 152 592.16 142.63 581.26 133.34 569.85 124.12 558.24 122.87 548.33 121.68 538.41 120.58 528.49 119.59 518.57 118.76 508.66 118.09 498.74 117.61 488.82 117.34 478.9 117.27 468.99 117.41 459.07 117.76 449.15 118.31 439.24 119.04 429.32 119.93 419.4 120.96 409.48 122.1 399.57 123.32 389.65 124.58 379.73 125.85 369.82 127.1 359.9 128.3 349.98 129.4 340.06 130.38 330.15 131.22 320.23 131.88 310.31 132.36 300.4 132.63 290.48 132.7 280.56 132.56 270.64 132.2 260.73 135.54 245.39 147.83 238.78 164.29 234.69 180.46 228.58 188.38 224.17 196.2 218.93 203.92 212.9 211.56 206.15 219.12 198.78 226.61 190.9 234.03 182.66 241.39 174.22 248.71 165.75 255.99 157.41 263.25 149.34 270.5 141.69 277.74 134.57 285 128.07 292.28 122.24 299.61 117.11 314.47 109.16 329.58 102.91 345.22 98.46 361.24 94.32 373.72 90.83 377.93 89.57" stroke-dasharray="1 10" transform="rotate(4.04, 400, 400)" opacity="0.09"></path><path d="M377.5 102.53Q385.4 109.59 393.46 116.3 401.67 122.55 410.05 128.27 418.6 133.41 427.31 137.94 436.2 141.84 445.26 145.15 454.5 147.91 463.9 150.19 473.48 152.09 483.21 153.74 493.11 155.24 503.15 156.76 513.34 158.42 523.66 160.36 534.09 162.71 544.64 165.59 555.28 169.09 566 173.27 576.78 178.18 587.61 183.82 598.47 190.17 609.34 197.19 620.21 204.77 631.06 212.82 641.86 221.2 652.6 229.76 663.25 238.34 673.81 246.77 684.25 254.9 694.56 262.57 697.38 272.38 699.37 282.18 700.46 291.99 700.64 301.79 699.9 311.6 698.25 321.4 695.74 331.21 692.43 341.01 688.41 350.82 683.77 360.62 678.63 370.43 673.13 380.23 667.4 390.04 661.58 399.84 655.82 409.65 650.27 419.45 645.06 429.26 640.33 439.06 636.2 448.87 632.76 458.67 630.11 468.47 628.31 478.28 627.41 488.08 627.43 497.89 628.37 507.69 630.21 517.5 632.89 527.3 636.36 537.11 640.52 546.91 645.28 556.71 637.09 572.61 623.2 570.23 611.35 568.86 599.07 570.11 585.93 577.41 572.25 588.83 565.07 596.9 557.7 606.15 550.13 616.4 542.37 627.44 534.41 639 526.26 650.81 517.92 662.55 509.41 673.93 500.72 684.67 491.87 694.5 482.86 703.2 473.71 710.59 464.42 716.54 455.02 720.98 445.5 723.92 435.89 725.42 426.19 725.61 416.43 724.65 409 713.15 401.42 701.15 393.68 688.98 385.8 676.95 377.76 665.37 369.58 654.51 361.27 644.63 352.81 635.94 344.24 628.59 335.54 622.68 326.73 618.23 317.82 615.23 308.82 613.58 299.74 613.13 290.58 613.7 281.37 615.04 272.1 616.89 262.8 618.96 253.47 620.97 244.13 622.62 234.77 623.66 225.43 623.83 216.1 622.95 206.79 620.85 197.52 617.45 188.29 612.69 179.11 606.6 169.99 599.23 160.93 590.73 151.94 581.25 143.03 571.02 134.19 560.26 132.93 550.64 131.75 541.02 130.67 531.4 129.73 521.79 128.94 512.17 128.33 502.55 127.92 492.93 127.7 483.32 127.7 473.7 127.9 464.08 128.31 454.46 128.91 444.85 129.69 435.23 130.63 425.61 131.7 415.99 132.88 406.37 134.13 396.76 135.44 387.14 136.76 377.52 138.05 367.9 139.3 358.29 140.46 348.67 141.51 339.05 142.43 329.43 143.17 319.81 143.74 310.2 144.12 300.58 144.28 290.96 144.24 281.34 144 271.72 147.33 256.73 159.25 249.8 175.18 244.55 190.82 237.15 198.48 232.1 206.05 226.31 213.52 219.82 220.9 212.74 228.2 205.16 235.42 197.21 242.57 189.05 249.65 180.81 256.67 172.65 263.65 164.71 270.58 157.11 277.48 149.98 284.37 143.4 291.24 137.43 305.03 127.8 318.9 120.06 333.04 114.88 347.4 110.67 369.88 104.68 377.5 102.53" stroke-dasharray="2 2" transform="rotate(8.08, 400, 400)" opacity="0.13"></path><path d="M378.07 115.5Q386.02 122.34 394.11 128.86 402.36 134.94 410.75 140.53 419.3 145.58 428.01 150.04 436.86 153.92 445.87 157.22 455.03 159.98 464.33 162.26 473.77 164.15 483.34 165.74 493.04 167.14 502.85 168.48 512.77 169.88 522.79 171.46 532.9 173.36 543.07 175.69 553.31 178.53 563.6 181.97 573.91 186.07 584.25 190.86 594.58 196.34 604.9 202.49 615.19 209.26 625.43 216.57 635.61 224.33 645.71 232.41 655.72 240.69 665.61 249.01 675.38 257.24 685.01 265.22 687.17 274.55 688.54 283.88 689.08 293.2 688.8 302.53 687.68 311.86 685.77 321.19 683.09 330.51 679.73 339.84 675.74 349.17 671.23 358.49 666.29 367.82 661.05 377.15 655.63 386.48 650.14 395.8 644.72 405.13 639.49 414.46 634.57 423.79 630.08 433.11 626.12 442.44 622.78 451.77 620.13 461.09 618.25 470.42 617.17 479.75 616.91 489.07 617.49 498.4 618.89 507.73 621.08 517.06 624.01 526.38 627.6 535.71 631.78 545.04 613.9 557.3 598.93 556.41 587.34 560.84 575.35 568.85 569.09 575.05 562.67 582.45 556.08 590.97 549.33 600.44 542.4 610.7 535.3 621.53 528.02 632.68 520.57 643.9 512.95 654.94 505.16 665.53 497.2 675.43 489.08 684.43 480.81 692.35 472.4 699.04 463.84 704.4 455.15 708.4 446.34 711.04 437.42 712.38 428.4 712.54 419.29 711.69 411.83 700.75 404.23 689.37 396.48 677.8 388.6 666.33 380.58 655.21 372.44 644.71 364.18 635.04 355.8 626.39 347.32 618.92 338.74 612.73 330.07 607.86 321.32 604.31 312.5 602.04 303.63 600.93 294.7 600.85 285.73 601.61 276.73 602.99 267.71 604.76 258.68 606.67 249.65 608.45 240.62 609.88 231.62 610.71 222.64 610.75 213.7 609.83 204.79 607.81 195.94 604.6 187.14 600.17 178.41 594.53 169.73 587.73 161.13 579.86 152.61 571.08 144.15 561.55 142.91 552.24 141.76 542.94 140.72 533.64 139.84 524.33 139.12 515.03 138.58 505.73 138.23 496.43 138.09 487.12 138.15 477.82 138.42 468.52 138.88 459.21 139.53 449.91 140.36 440.61 141.33 431.3 142.44 422 143.66 412.7 144.94 403.4 146.28 394.09 147.63 384.79 148.97 375.49 150.26 366.18 151.48 356.88 152.59 347.58 153.58 338.27 154.41 328.97 155.07 319.67 155.54 310.36 155.81 301.06 155.88 291.76 155.75 282.45 159.11 267.71 170.66 260.15 186.07 253.57 201.21 244.83 208.62 239.21 215.94 232.94 223.17 226.1 230.31 218.79 237.37 211.13 244.34 203.24 251.23 195.25 258.06 187.31 264.81 179.53 271.51 172.05 278.15 164.98 284.75 158.39 297.84 147.25 310.88 137.97 323.94 131.59 337.09 126.6 350.47 122.99 364.07 119.56 374.55 116.58 378.07 115.5" stroke-dasharray="2 5" transform="rotate(12.12, 400, 400)" opacity="0.16"></path><path d="M379.62 128.45Q395.67 141.39 412.26 152.76 429.39 162.11 447.03 169.25 465.16 174.32 483.73 177.78 502.68 180.33 521.93 182.83 541.39 186.18 560.97 191.2 580.57 198.49 600.09 208.35 619.4 220.71 638.4 235.12 656.98 250.84 675.04 266.9 677.38 284.59 676.74 302.27 673.18 319.96 666.99 337.64 658.7 355.33 649 373.01 638.72 390.69 628.71 408.38 619.82 426.06 612.79 443.75 608.23 461.43 606.5 479.11 607.75 496.8 611.89 514.48 617.86 539.75 607.07 544.74 596.85 543.67 586.4 545.58 575.6 551.5 564.39 561.91 552.69 576.68 540.44 595.02 527.6 615.63 514.16 636.86 500.09 656.93 485.42 674.2 470.16 687.39 454.35 695.79 438.04 699.35 421.29 698.73 406.2 677.58 390.6 655.69 374.56 634.93 358.13 616.96 341.35 603.02 324.31 593.77 307.08 589.19 289.72 588.6 272.3 590.8 254.91 594.18 237.6 597.02 220.43 597.72 203.45 594.99 186.7 588.06 170.22 576.77 154.03 561.57 151.72 543.63 149.94 525.69 148.83 507.76 148.5 489.82 148.96 471.88 150.18 453.94 152.06 436.01 154.43 418.07 157.11 400.13 159.86 382.19 162.45 364.25 164.67 346.32 166.32 328.38 167.27 310.44 167.44 292.5 166.82 274.56 182.05 269.56 196.98 261.92 211.58 251.57 225.83 238.85 239.74 224.38 253.3 209.03 266.55 193.76 279.51 179.48 292.21 166.93 304.73 156.59 317.11 148.58 329.43 142.73 341.76 138.53 354.18 135.29 373.2 130.32 379.62 128.45" stroke-dasharray="4 10" transform="rotate(16.16, 400, 400)" opacity="0.20"></path><path d="M382.09 141.41Q398.04 153.92 414.45 164.97 431.32 174.13 448.61 181.24 466.27 186.36 484.26 189.85 502.51 192.29 520.94 194.41 539.48 197.05 558.04 200.95 576.53 206.77 594.85 214.88 612.91 225.42 630.63 238.15 647.9 252.59 664.66 267.96 665.91 284.68 664.48 301.39 660.48 318.1 654.23 334.82 646.19 351.53 636.98 368.24 627.31 384.95 617.93 401.67 609.55 418.38 602.82 435.09 598.24 451.8 596.18 468.52 596.79 485.23 600.02 501.94 604.5 525.78 593.62 531.38 583.83 532.07 573.89 536.03 563.73 543.91 553.26 555.83 542.41 571.41 531.13 589.78 519.37 609.68 507.09 629.64 494.28 648.13 480.92 663.8 467.03 675.65 452.61 683.15 437.7 686.33 422.34 685.77 407.27 665.77 391.79 645.03 375.95 625.16 359.8 607.62 343.4 593.54 326.81 583.59 310.11 577.91 293.36 576.08 276.62 577.18 259.94 579.96 243.39 582.96 227 584.72 210.83 583.98 194.9 579.82 179.23 571.76 163.84 559.86 161.66 542.64 160.04 525.41 159.11 508.19 158.93 490.97 159.53 473.75 160.85 456.52 162.79 439.3 165.21 422.08 167.92 404.86 170.71 387.63 173.37 370.41 175.69 353.19 177.5 335.96 178.66 318.74 179.07 301.52 178.71 284.29 193.39 277.82 207.8 268.8 221.91 257.4 235.69 244.09 249.14 229.57 262.27 214.67 275.07 200.24 287.58 187.04 299.81 175.65 311.81 166.4 323.63 159.33 335.32 154.19 346.94 150.51 358.56 147.64 376.17 143.13 382.09 141.41" stroke-dasharray="1 8" transform="rotate(20.200000000000003, 400, 400)" opacity="0.24"></path><path d="M385.35 154.37Q401.08 166.43 417.19 177.14 433.66 186.13 450.45 193.19 467.5 198.37 484.78 201.92 502.21 204.33 519.73 206.2 537.26 208.27 554.72 211.23 572.05 215.71 589.15 222.18 605.95 230.87 622.39 241.77 638.38 254.59 653.87 268.8 654.14 284.55 652.04 300.31 647.71 316.06 641.45 331.81 633.69 347.57 624.98 363.32 615.93 379.08 607.15 394.83 599.28 410.58 592.84 426.34 588.29 442.09 585.95 457.85 585.99 473.6 588.38 489.35 591.43 512.15 580.41 519.19 570.98 521.84 561.49 527.81 551.87 537.41 542.04 550.5 531.94 566.55 521.51 584.65 510.7 603.63 499.47 622.2 487.79 639.1 475.65 653.23 463.03 663.82 449.94 670.48 436.39 673.3 422.39 672.81 407.44 653.94 392.17 634.34 376.62 615.39 360.85 598.36 344.91 584.26 328.87 573.77 312.79 567.11 296.71 564.06 280.69 564 264.78 565.95 249.03 568.72 233.46 571.05 218.12 571.77 203.02 569.88 188.17 564.75 173.6 556.1 171.58 539.64 170.15 523.18 169.41 506.72 169.4 490.26 170.13 473.81 171.54 457.35 173.54 440.89 175.99 424.43 178.72 407.97 181.54 391.51 184.24 375.05 186.66 358.59 188.6 342.13 189.95 325.67 190.6 309.22 190.52 292.76 204.66 284.8 218.54 274.57 232.16 262.37 245.48 248.78 258.49 234.49 271.19 220.26 283.58 206.81 295.67 194.77 307.47 184.56 319.02 176.39 330.35 170.21 341.5 165.76 352.52 162.56 363.46 160.03 379.86 155.94 385.35 154.37" stroke-dasharray="11 2" transform="rotate(24.24, 400, 400)" opacity="0.28"></path><path d="M389.26 167.33Q404.63 178.93 420.3 189.3 436.23 198.08 452.39 205.09 468.71 210.32 485.16 213.97 501.67 216.41 518.18 218.15 534.63 219.8 550.95 221.99 567.08 225.32 582.95 230.28 598.5 237.19 613.68 246.18 628.42 257.17 642.67 269.82 642.09 284.64 639.43 299.46 634.85 314.28 628.65 329.1 621.22 343.92 613.01 358.74 604.55 373.56 596.37 388.38 588.99 403.2 582.86 418.02 578.38 432.84 575.82 447.66 575.34 462.48 576.98 477.3 578.67 499.37 567.49 508.45 558.37 513.08 549.26 520.89 540.1 531.91 530.83 545.81 521.37 561.97 511.68 579.52 501.71 597.41 491.41 614.53 480.75 629.84 469.7 642.5 458.26 651.89 446.4 657.78 434.12 660.27 421.44 659.85 406.72 642.09 391.76 623.63 376.61 605.63 361.32 589.18 345.95 575.18 330.54 564.28 315.14 556.77 299.8 552.6 284.57 551.34 269.47 552.3 254.55 554.52 239.83 556.98 225.34 558.6 211.08 558.45 197.08 555.78 183.33 550.12 181.51 534.48 180.29 518.83 179.75 503.18 179.9 487.53 180.76 471.89 182.26 456.24 184.3 440.59 186.77 424.94 189.5 409.3 192.33 393.65 195.07 378 197.55 362.35 199.62 346.7 201.15 331.06 202.04 315.41 202.23 299.76 215.82 290.47 229.18 279.27 242.31 266.6 255.16 253.04 267.74 239.25 280.02 225.89 292.01 213.56 303.71 202.73 315.12 193.7 326.26 186.57 337.16 181.24 347.85 177.42 358.36 174.67 368.73 172.45 384.14 168.76 389.26 167.33" stroke-dasharray="10 8" transform="rotate(28.28, 400, 400)" opacity="0.32"></path><path d="M393.66 180.29Q408.53 191.42 423.62 201.42 438.87 209.98 454.27 216.92 469.74 222.21 485.26 225.98 500.77 228.51 516.21 230.21 531.53 231.59 546.67 233.19 561.59 235.57 576.24 239.2 590.55 244.46 604.49 251.59 618.02 260.62 631.1 271.44 629.78 285.36 626.67 299.28 621.94 313.2 615.86 327.12 608.77 341.04 601.07 354.96 593.2 368.88 585.6 382.8 578.7 396.72 572.89 410.64 568.49 424.56 565.76 438.49 564.85 452.41 565.81 466.33 566.23 487.91 554.9 499.33 546.06 505.85 537.28 515.22 528.53 527.29 519.72 541.63 510.82 557.58 501.76 574.33 492.51 590.98 483.03 606.59 473.27 620.36 463.2 631.6 452.81 639.89 442.07 645.05 430.99 647.25 419.54 646.89 405.16 630.23 390.64 612.9 376 595.86 361.3 580.06 346.57 566.28 331.87 555.12 317.24 546.92 302.7 541.72 288.29 539.3 274.05 539.15 259.99 540.59 246.15 542.76 232.52 544.78 219.13 545.79 205.97 545.04 193.05 541.94 191.47 527.15 190.47 512.35 190.13 497.55 190.45 482.76 191.43 467.96 193 453.17 195.08 438.37 197.55 423.58 200.27 408.78 203.09 393.99 205.84 379.19 208.38 364.4 210.55 349.6 212.24 334.81 213.36 320.01 213.83 305.22 226.85 294.85 239.69 283.02 252.31 270.22 264.7 257.01 276.83 243.98 288.7 231.66 300.3 220.53 311.62 210.94 322.66 203.07 333.44 196.94 343.96 192.41 354.25 189.17 364.33 186.83 374.24 184.91 388.83 181.59 393.66 180.29" stroke-dasharray="6 2" transform="rotate(32.32, 400, 400)" opacity="0.35"></path><path d="M398.34 193.26Q412.58 203.9 426.95 213.52 441.41 221.84 455.93 228.7 470.47 234.04 484.97 237.93 499.41 240.59 513.73 242.34 527.89 243.58 541.85 244.78 555.56 246.41 568.99 248.93 582.09 252.74 594.84 258.11 607.2 265.2 619.16 274.03 617.23 287.09 613.78 300.15 608.97 313.21 603.07 326.27 596.35 339.33 589.16 352.4 581.86 365.46 574.82 378.52 568.39 391.58 562.9 404.64 558.63 417.7 555.78 430.76 554.51 443.82 554.87 456.88 556.85 469.95 560.35 483.01 551.4 486.28 542.66 491.93 534.08 500.08 525.61 510.67 517.2 523.4 508.8 537.8 500.38 553.24 491.87 568.98 483.24 584.28 474.46 598.37 465.48 610.62 456.27 620.53 446.82 627.78 437.09 632.29 427.07 634.22 416.76 633.92 402.86 618.34 388.89 602.12 374.87 586.07 360.85 570.98 346.87 557.53 332.96 546.26 319.14 537.51 305.46 531.43 291.92 527.91 278.57 526.63 265.4 527.09 252.45 528.67 239.7 530.63 227.18 532.25 214.88 532.81 202.8 531.73 201.46 517.81 200.7 503.9 200.56 489.99 201.05 476.08 202.14 462.17 203.77 448.26 205.87 434.35 208.33 420.44 211.02 406.53 213.81 392.63 216.56 378.72 219.13 364.81 221.39 350.9 223.23 336.99 224.55 323.08 225.28 309.17 237.74 298.07 250.03 286 262.14 273.43 274.05 260.87 285.74 248.81 297.19 237.67 308.39 227.81 319.33 219.46 330.02 212.72 340.46 207.53 350.64 203.73 360.58 201.03 370.3 199.06 379.82 197.4 393.74 194.43 398.34 193.26" stroke-dasharray="9 2" transform="rotate(36.36, 400, 400)" opacity="0.39"></path><path d="M403.09 206.22Q416.57 216.35 430.11 225.58 443.67 233.65 457.23 240.4 470.74 245.76 484.18 249.79 497.51 252.61 510.68 254.48 523.67 255.7 536.44 256.66 548.96 257.77 561.2 259.42 573.13 262 584.74 265.81 595.99 271.07 606.88 277.91 604.46 290.15 600.77 302.4 595.97 314.64 590.28 326.88 583.96 339.12 577.27 351.36 570.54 363.6 564.04 375.85 558.08 388.09 552.92 400.33 548.79 412.57 545.87 424.81 544.3 437.06 544.14 449.3 545.41 461.54 548.04 473.78 539.32 478.91 530.81 486.22 522.48 495.68 514.29 507.08 506.2 520.08 498.16 534.19 490.15 548.84 482.11 563.42 474.02 577.28 465.84 589.86 457.53 600.66 449.07 609.31 440.43 615.61 431.59 619.52 422.53 621.2 413.23 620.96 399.94 606.44 386.63 591.32 373.34 576.28 360.1 561.94 346.94 548.92 333.87 537.68 320.94 528.56 308.15 521.74 295.52 517.22 283.08 514.83 270.83 514.23 258.77 514.97 246.92 516.49 235.27 518.2 217.67 513.14 210.99 493.79 211.05 480.79 211.69 467.79 212.88 454.78 214.57 441.78 216.68 428.78 219.11 415.77 221.76 402.77 224.51 389.77 227.23 376.77 229.81 363.76 232.13 350.76 234.09 337.76 235.6 324.76 236.58 311.76 248.45 300.34 260.19 288.43 271.77 276.43 283.19 264.78 294.41 253.87 305.42 244.01 316.22 235.44 326.79 228.31 337.13 222.63 347.22 218.32 357.08 215.2 366.71 212.98 376.11 211.34 385.29 209.91 398.68 207.27 403.09 206.22" stroke-dasharray="11 2" transform="rotate(40.400000000000006, 400, 400)" opacity="0.43"></path><path d="M407.7 219.18Q420.31 228.8 432.92 237.61 445.5 245.4 458.03 252.02 470.47 257.39 482.8 261.54 494.99 264.54 507.01 266.58 518.83 267.89 530.43 268.77 541.79 269.55 552.88 270.58 563.69 272.19 574.2 274.69 587.95 286.55 587.66 306.22 582.94 317.68 577.51 329.14 571.6 340.61 565.42 352.07 559.23 363.53 553.26 374.99 547.76 386.45 542.93 397.91 538.96 409.37 536.02 420.84 534.22 432.3 533.63 443.76 534.26 455.22 536.11 466.68 527.63 473.46 519.37 482.09 511.3 492.44 503.38 504.24 495.58 517.12 487.87 530.63 480.22 544.27 472.59 557.54 464.96 569.94 457.29 581.03 449.57 590.45 441.75 597.93 425.66 605.77 409.11 608 396.54 594.52 384.01 580.49 371.54 566.45 359.15 552.93 346.87 540.43 334.72 529.35 322.7 520.02 310.84 512.63 299.15 507.25 287.64 503.82 276.31 502.13 265.16 501.88 254.21 502.68 243.44 504.06 227.24 500.02 221.35 482.43 221.61 470.35 222.4 458.26 223.67 446.17 225.4 434.09 227.49 422 229.89 409.92 232.48 397.83 235.17 385.75 237.85 373.66 240.42 361.58 242.78 349.49 244.83 337.41 246.5 325.32 247.71 313.24 258.98 301.95 270.14 290.57 281.18 279.45 292.08 268.93 302.81 259.29 313.38 250.76 323.75 243.49 333.93 237.52 343.9 232.84 353.65 229.33 363.19 226.81 372.51 225.02 381.62 223.68 390.51 222.46 403.45 220.12 407.7 219.18" stroke-dasharray="3 5" transform="rotate(44.44, 400, 400)" opacity="0.47"></path><path d="M411.97 232.14Q423.62 241.23 435.23 249.6 446.77 257.09 458.22 263.55 469.55 268.91 480.76 273.16 491.81 276.34 502.68 278.59 513.36 280.06 523.82 280.99 534.06 281.63 544.05 282.27 553.79 283.2 563.27 284.68 575.42 294 574.47 311.72 569.89 322.44 564.77 333.15 559.27 343.87 553.6 354.58 547.94 365.3 542.48 376.01 537.42 386.73 532.93 397.44 529.16 408.16 526.23 418.87 524.26 429.59 523.31 440.3 523.4 451.02 524.54 461.73 516.35 469.8 508.36 479.35 500.55 490.15 492.9 501.92 485.39 514.32 477.98 526.96 470.66 539.42 463.4 551.31 456.18 562.24 448.96 571.89 441.73 580 434.46 586.4 419.67 593.1 404.59 595.04 392.85 582.59 381.18 569.63 369.6 556.6 358.14 543.94 346.79 532.03 335.59 521.25 324.52 511.86 313.62 504.08 302.88 498.01 292.3 493.66 281.9 490.92 271.67 489.63 261.6 489.5 251.7 490.22 236.9 486.46 231.8 470.33 232.25 459.16 233.16 447.99 234.51 436.82 236.25 425.65 238.33 414.48 240.67 403.31 243.19 392.14 245.8 380.97 248.42 369.8 250.96 358.63 253.33 347.47 255.45 336.3 257.24 325.13 258.65 313.96 269.3 303.22 279.87 292.72 290.34 282.73 300.69 273.49 310.92 265.2 321 258.01 330.93 251.98 340.69 247.11 350.27 243.35 359.67 240.56 368.88 238.57 377.89 237.15 403.6 233.54 411.97 232.14" stroke-dasharray="5 8" transform="rotate(48.48, 400, 400)" opacity="0.51"></path><path d="M415.7 245.1Q426.33 253.64 436.88 261.56 447.34 268.72 457.69 274.99 467.92 280.29 478 284.62 487.93 287.98 497.68 290.44 507.25 292.14 516.62 293.23 525.79 293.89 534.74 294.36 551.85 295.89 568.28 298.89 565.08 308.88 561.23 318.88 556.85 328.87 552.05 338.86 546.99 348.86 541.81 358.85 536.66 368.84 531.7 378.84 527.08 388.83 522.92 398.82 519.36 408.81 516.5 418.81 514.41 428.8 513.17 438.8 512.81 448.79 513.34 458.78 505.47 467.72 497.78 477.7 490.26 488.52 482.9 499.89 475.67 511.5 468.57 523.05 461.57 534.2 454.64 544.66 447.78 554.14 440.96 562.42 427.36 573.98 413.71 581.08 406.82 582.16 399.86 582.08 389.03 570.64 378.3 558.74 367.68 546.73 357.18 534.95 346.81 523.72 336.58 513.35 326.49 504.07 316.55 496.07 306.77 489.49 297.13 484.37 287.65 480.69 278.32 478.37 269.14 477.23 260.1 477.07 246.69 472.97 242.35 458.06 242.96 447.79 243.98 437.52 245.39 427.26 247.14 416.99 249.17 406.73 251.44 396.46 253.88 386.19 256.4 375.93 258.94 365.66 261.43 355.4 263.78 345.13 265.93 334.87 267.82 324.6 269.39 314.33 279.4 304.52 289.35 295.16 299.23 286.47 309.01 278.61 318.7 271.7 328.27 265.8 337.72 260.94 347.03 257.08 356.2 254.14 365.21 251.99 382.65 249.48 399.57 247.64 411.72 245.83 415.7 245.1" stroke-dasharray="2 7" transform="rotate(52.52, 400, 400)" opacity="0.54"></path><path d="M418.74 258.06Q428.3 266.04 437.78 273.49 447.15 280.29 456.4 286.33 465.52 291.55 474.5 295.91 483.34 299.42 492.01 302.11 508.76 305.12 524.97 306.68 545.96 312.86 547.95 327.53 543.8 336.81 539.37 346.1 534.74 355.39 530.05 364.68 525.4 373.97 520.92 383.25 516.72 392.54 512.91 401.83 509.57 411.12 506.8 420.4 504.66 429.69 503.21 438.98 502.49 448.27 502.5 457.55 494.98 466.86 487.62 476.82 480.42 487.24 473.37 497.86 466.46 508.45 459.66 518.75 452.97 528.52 446.38 537.54 439.86 545.63 433.4 552.61 420.62 562.29 407.89 568.23 401.53 569.16 395.13 569.13 385.29 558.66 375.54 547.8 365.92 536.81 356.42 525.94 347.04 515.46 337.8 505.6 328.69 496.57 319.71 488.55 310.87 481.65 302.17 475.95 293.6 471.48 285.17 468.22 268.73 465.34 252.63 464.93 252.62 455.55 253 446.17 253.76 436.79 254.87 427.41 256.31 418.02 258.05 408.64 260.04 399.26 262.22 389.88 264.55 380.49 266.97 371.11 269.41 361.73 271.82 352.35 274.13 342.96 276.29 333.58 278.24 324.2 279.92 314.82 289.27 306.2 298.58 298.19 307.83 290.91 317.02 284.45 326.14 278.87 335.16 274.2 344.09 270.41 352.92 267.45 370.14 263.86 386.97 261.67 410.91 259.11 418.74 258.06" stroke-dasharray="4 5" transform="rotate(56.56, 400, 400)" opacity="0.58"></path><path d="M420.94 271.03Q437.83 285.39 454.29 297.57 470.26 307.02 485.69 313.52 500.54 317.32 514.79 319.04 528.41 319.63 541.41 320.23 534.64 337.4 526.72 354.58 518.32 371.75 510.14 388.92 502.88 406.1 497.14 423.27 493.41 440.44 492 457.62 477.89 476.33 464.34 495.6 451.29 513.93 438.66 529.92 426.37 542.48 414.32 550.98 402.44 555.36 390.62 556.16 373.07 536.83 355.97 516.91 339.33 497.98 323.17 481.46 307.48 468.37 292.24 459.25 277.43 454.07 262.99 452.23 263.77 435.19 265.83 418.14 269 401.1 273 384.05 277.51 367 282.14 349.96 286.51 332.91 290.24 315.86 307.55 302.06 324.71 291.11 341.66 283.23 358.32 278.22 374.64 275.47 390.54 274.06 413.46 271.98 420.94 271.03" stroke-dasharray="6 0" transform="rotate(60.599999999999994, 400, 400)" opacity="0.62"></path><path d="M422.2 283.98Q436.97 297.24 451.35 308.7 465.29 317.91 478.76 324.63 491.75 328.95 504.24 331.24 518.78 340.11 514.12 363.89 506.63 379.66 499.37 395.43 492.84 411.2 487.52 426.96 483.75 442.73 481.82 458.5 468.57 475.85 455.81 492.88 443.48 508.51 431.55 521.79 419.95 532.04 408.63 538.92 397.51 542.49 386.54 543.2 371.04 525.83 355.95 507.86 341.27 490.47 326.99 474.76 313.1 461.58 299.59 451.49 286.41 444.69 273.54 440.96 274.67 425.58 276.86 410.19 279.97 394.81 283.78 379.42 288.02 364.03 292.39 348.65 296.6 333.26 300.35 317.87 316.25 306.98 332.07 298.66 347.75 292.89 363.23 289.36 378.47 287.48 393.4 286.51 415.1 284.8 422.2 283.98" stroke-dasharray="5 9" transform="rotate(64.64, 400, 400)" opacity="0.66"></path><path d="M422.47 296.94Q435.21 309.05 447.6 319.72 459.62 328.58 471.26 335.41 482.52 340.19 493.38 343.1 505.95 351.88 501.58 373.59 494.97 387.93 488.59 402.27 482.8 416.61 477.92 430.94 474.23 445.28 471.94 459.62 459.65 474.98 447.75 489.48 436.24 502.39 425.06 513.12 414.2 521.29 403.6 526.75 393.23 529.61 383.05 530.24 369.58 514.78 356.46 498.76 343.68 483.02 331.22 468.37 319.08 455.5 307.23 444.91 295.64 436.88 284.28 431.46 285.69 417.68 287.97 403.89 290.98 390.11 294.56 376.33 298.5 362.55 302.58 348.77 306.57 334.99 310.24 321.21 324.69 313.11 339.11 307.15 353.44 303.19 367.65 300.86 381.7 299.67 395.54 299.04 415.81 297.64 422.47 296.94" stroke-dasharray="0 1" transform="rotate(68.68, 400, 400)" opacity="0.70"></path><path d="M421.74 309.9Q432.55 320.83 443.08 330.63 453.32 339.01 463.27 345.8 472.92 350.92 482.27 354.43 493.06 363.42 489.08 383.2 483.34 396.07 477.81 408.94 472.73 421.82 468.33 434.69 464.81 447.56 462.33 460.43 451.09 473.39 440.16 485.22 429.55 495.51 419.22 503.91 409.15 510.24 399.33 514.47 389.73 516.72 380.32 517.28 368.82 503.7 357.59 489.62 346.63 475.6 335.92 462.24 325.45 450.04 315.19 439.41 305.13 430.66 295.24 423.93 296.86 411.7 299.15 399.48 302.02 387.25 305.34 375.02 308.95 362.8 312.7 350.57 316.41 338.35 319.93 326.12 332.88 320.53 345.83 316.59 358.74 314.07 371.59 312.68 384.35 312.01 396.97 311.62 415.59 310.48 421.74 309.9" stroke-dasharray="10 2" transform="rotate(72.72, 400, 400)" opacity="0.73"></path><path d="M420.03 322.86Q429.06 332.56 437.87 341.42 446.47 349.21 454.84 355.79 470.87 364.46 486.32 369.49 481.56 380.86 476.65 392.22 471.75 403.58 467.03 414.94 462.65 426.31 458.76 437.67 455.5 449.04 452.97 460.4 442.87 470.75 433.01 479.97 423.39 487.82 414 494.16 404.82 498.91 395.85 502.1 387.07 503.83 378.46 504.32 368.83 492.58 359.4 480.41 350.17 468.18 341.12 456.28 332.23 445.08 323.5 434.88 314.9 425.94 306.42 418.43 308.17 407.72 310.42 397.01 313.1 386.3 316.12 375.59 319.37 364.89 322.75 354.18 326.13 343.47 329.41 332.77 340.82 329.27 352.25 326.92 363.68 325.52 375.08 324.8 386.44 324.49 397.73 324.26 414.48 323.34 420.03 322.86" stroke-dasharray="3 2" transform="rotate(76.76, 400, 400)" opacity="0.77"></path><path d="M417.43 335.82Q424.82 344.26 432.06 352.09 439.14 359.16 446.08 365.36 459.47 374.41 472.48 380.59 468.41 390.4 464.28 400.21 460.19 410.02 456.25 419.83 452.55 429.64 449.2 439.45 446.26 449.26 443.82 459.06 434.95 466.84 426.26 473.63 417.74 479.33 409.39 483.9 393.25 489.13 377.57 491.36 369.69 481.42 361.94 471.13 354.32 460.72 346.83 450.43 339.45 440.5 332.16 431.14 324.97 422.54 317.85 414.85 319.63 405.64 321.76 396.43 324.21 387.21 326.89 378 329.76 368.79 332.74 359.58 342.14 344.81 358.4 338.08 368.28 337.45 378.16 337.18 388.03 337.08 397.87 336.95 412.56 336.2 417.43 335.82" stroke-dasharray="3 8" transform="rotate(80.80000000000001, 400, 400)" opacity="0.81"></path><path d="M414.06 348.79Q425.75 362.64 437.06 374.48 448.03 383.79 458.69 390.35 451.98 406.78 445.47 423.21 439.63 439.64 434.86 456.07 419.87 466.16 405.35 473.15 391.29 477.09 377.68 478.39 365.22 461.77 353.07 444.62 341.19 428.01 329.52 412.96 333.19 397.51 337.67 382.06 342.67 366.61 347.83 351.16 364.3 349.94 380.88 349.75 405.77 349.23 414.06 348.79" stroke-dasharray="6 0" transform="rotate(84.84, 400, 400)" opacity="0.85"></path><path d="M410.05 361.75Q419.08 373.07 427.89 383.15 436.52 391.7 444.99 398.5 439.75 411.68 434.69 424.86 430.05 438.03 426.04 451.21 413.79 457.56 401.83 461.94 390.17 464.48 378.79 465.43 369.23 452.33 359.84 438.76 350.59 425.26 341.45 412.39 344.7 399.93 348.45 387.46 352.54 375 356.79 362.53 370 362.34 383.3 362.48 403.35 362.09 410.05 361.75" stroke-dasharray="4 8" transform="rotate(88.88, 400, 400)" opacity="0.89"></path><path d="M405.6 374.71Q412.18 383.38 418.66 391.39 426.33 406.67 423.92 424.62 420.47 434.5 417.34 444.39 407.98 447.88 398.78 450.33 389.73 451.82 380.84 452.47 373.94 442.79 367.11 432.79 360.34 422.67 353.62 412.68 356.29 403.24 359.23 393.8 368.95 379.74 385.49 375.28 400.56 374.96 405.6 374.71" stroke-dasharray="4 10" transform="rotate(92.92, 400, 400)" opacity="0.92"></path><path d="M400.9 387.67Q409.48 399.18 417.95 409.41 413.14 422.54 408.72 435.68 396.1 438.37 383.75 439.51 374.85 426.64 366.03 413.33 370.01 400.61 374.34 387.9 394.22 387.89 400.9 387.67" stroke-dasharray="6 9" transform="rotate(96.96, 400, 400)" opacity="0.96"></path></g></svg>