<svg xmlns="http://www.w3.org/2000/svg" version="1.1" xmlns:xlink="http://www.w3.org/1999/xlink" xmlns:svgjs="http://svgjs.dev/svgjs" viewBox="0 0 800 800"><defs><linearGradient x1="50%" y1="0%" x2="50%" y2="100%" id="ccchaos-grad"><stop stop-color="hsl(205, 69%, 60%)" stop-opacity="1" offset="0%"></stop><stop stop-color="hsl(205, 69%, 80%)" stop-opacity="1" offset="100%"></stop></linearGradient></defs><g stroke-width="2" stroke="url(#ccchaos-grad)" fill="none" stroke-linecap="round"><path d="M379.17 63.74Q386.99 67.17 394.94 70.74 403.06 74.48 411.34 78.44 419.81 82.64 428.47 87.12 437.34 91.9 446.42 97 455.71 102.42 465.23 108.18 474.97 114.27 484.93 120.67 495.12 127.36 505.52 134.31 516.14 141.49 526.96 148.85 537.97 156.35 549.17 163.94 560.53 171.55 572.04 179.13 583.69 186.62 595.45 193.97 607.31 201.12 619.23 208.02 631.2 214.62 643.19 220.88 655.18 226.76 667.15 232.25 679.05 237.33 690.88 241.98 702.59 246.22 714.18 250.04 718.15 260.68 721.14 271.31 723.06 281.94 723.85 292.57 723.48 303.21 721.97 313.84 719.36 324.47 715.73 335.1 711.2 345.74 705.89 356.37 699.98 367 693.64 377.63 687.07 388.27 680.47 398.9 674.03 409.53 667.96 420.17 662.44 430.8 657.64 441.43 653.7 452.06 650.75 462.7 648.88 473.33 648.13 483.96 648.55 494.59 650.1 505.23 652.76 515.86 656.42 526.49 660.99 537.13 666.32 547.76 672.26 558.39 678.61 569.02 685.18 579.66 691.79 590.29 685.98 598.11 680.03 605.32 667.48 617.35 654.32 627.19 640.01 633.45 624.94 637.74 608.58 639.44 591.44 640.12 582.43 640.13 573.18 640.15 563.69 640.27 553.99 640.63 544.07 641.34 533.97 642.51 523.68 644.22 513.24 646.57 502.66 649.63 491.95 653.46 481.14 658.09 470.25 663.55 459.29 669.83 448.29 676.93 437.26 684.8 426.23 693.39 415.21 702.63 404.23 712.43 389.73 712.85 374.81 713.6 359.14 713.6 342.98 712.46 334.61 710.97 326.09 708.81 317.4 705.94 308.56 702.29 299.57 697.86 290.44 692.62 281.18 686.59 271.8 679.81 262.3 672.3 252.71 664.15 243.02 655.41 233.27 646.19 223.45 636.57 213.58 626.67 203.67 616.6 193.75 606.47 183.82 596.4 173.89 586.49 163.98 576.86 154.1 567.61 144.26 558.82 134.47 550.57 124.74 542.93 115.07 535.94 113.83 525.98 112.59 516.02 111.4 506.06 110.28 496.1 109.28 486.14 108.42 476.18 107.73 466.23 107.23 456.27 106.94 446.31 106.86 436.35 107 426.39 107.35 416.43 107.91 406.48 108.65 396.52 109.55 386.56 110.59 376.6 111.73 366.64 112.94 356.68 114.19 346.73 115.42 336.77 116.62 326.81 117.73 316.85 118.73 306.89 119.58 296.94 120.26 286.98 120.75 277.02 121.04 267.06 121.11 257.1 120.96 247.15 120.6 237.19 124.08 220.36 136.85 210.04 145.47 206.89 153.99 203.99 170.65 198.71 187.01 193.62 202.9 188.25 218.55 182.37 233.89 175.18 249.12 167.03 256.7 162.34 264.29 157.29 271.89 151.88 279.53 146.14 287.22 140.08 294.97 133.73 302.8 127.13 310.73 120.32 318.77 113.33 326.93 106.23 335.23 99.05 343.68 91.85 352.29 84.67 361.07 77.56 374.6 67.15 379.17 63.74" stroke-dasharray="9 6" transform="rotate(0, 400, 400)" opacity="0.52"></path><path d="M377.83 76.21Q385.72 79.45 393.76 82.83 401.96 86.36 410.35 90.1 418.91 94.06 427.66 98.29 436.61 102.8 445.75 107.62 455.09 112.75 464.64 118.19 474.38 123.95 484.32 130.01 494.44 136.36 504.75 142.97 515.24 149.82 525.89 156.86 536.7 164.06 547.65 171.37 558.72 178.75 569.9 186.13 581.17 193.47 592.51 200.72 603.91 207.82 615.34 214.72 626.78 221.38 638.2 227.75 649.6 233.8 660.93 239.5 672.19 244.82 683.34 249.75 694.37 254.27 705.25 258.41 708.47 268.66 710.75 278.92 712.01 289.18 712.23 299.44 711.4 309.7 709.54 319.96 706.71 330.22 702.98 340.48 698.47 350.74 693.29 361 687.59 371.26 681.54 381.51 675.3 391.77 669.06 402.03 662.98 412.29 657.24 422.55 652 432.81 647.42 443.07 643.61 453.33 640.68 463.59 638.73 473.85 637.79 484.11 637.91 494.37 639.08 504.63 641.25 514.89 644.38 525.15 648.38 535.41 653.12 545.66 658.49 555.92 664.32 566.18 670.81 584.96 665.53 599.64 653.75 609.67 641.48 617.7 628.25 622.57 614.37 625.79 599.36 626.97 583.65 627.44 566.79 627.73 549.27 628.53 540.14 629.48 530.82 630.89 521.31 632.84 511.63 635.4 501.79 638.63 491.82 642.57 481.71 647.25 471.5 652.69 461.19 658.88 450.81 665.81 440.36 673.44 429.88 681.72 419.37 690.58 408.85 699.95 394.43 700.22 379.56 700.8 363.92 700.79 347.8 699.8 339.47 698.51 331 696.63 322.37 694.12 313.61 690.92 304.72 687 295.71 682.36 286.58 676.99 277.35 670.91 268.03 664.15 258.64 656.75 249.17 648.78 239.65 640.3 230.08 631.4 220.49 622.16 210.87 612.68 201.25 603.05 191.63 593.38 182.03 583.77 172.46 574.31 162.93 565.09 153.44 556.22 144.01 547.76 134.64 539.78 125.34 532.34 124.04 522.73 122.77 513.13 121.57 503.52 120.46 493.91 119.47 484.31 118.65 474.7 118 465.1 117.55 455.49 117.31 445.88 117.28 436.28 117.48 426.67 117.88 417.07 118.49 407.46 119.28 397.86 120.23 388.25 121.31 378.64 122.5 369.04 123.76 359.43 125.05 349.83 126.34 340.22 127.59 330.62 128.77 321.01 129.84 311.4 130.78 301.8 131.55 292.19 132.14 282.59 132.52 272.98 132.69 263.38 132.65 253.77 132.39 244.17 135.85 228.15 148.24 218.81 164.79 213.62 181.04 208.78 196.78 203.96 212.23 198.82 227.25 192.69 242.06 185.73 256.61 177.18 271.07 167.6 278.28 162.23 285.49 156.54 292.73 150.56 300.01 144.31 307.34 137.84 314.73 131.18 322.21 124.37 329.77 117.45 337.45 110.48 345.24 103.48 353.16 96.52 361.23 89.63 373.64 79.53 377.83 76.21" stroke-dasharray="7 2" transform="rotate(4.04, 400, 400)" opacity="0.40"></path><path d="M377.51 88.68Q385.47 91.74 393.59 94.92 401.87 98.25 410.32 101.77 418.94 105.51 427.74 109.49 436.72 113.74 445.87 118.27 455.2 123.09 464.7 128.22 474.38 133.65 484.21 139.37 494.21 145.37 504.35 151.63 514.63 158.13 525.04 164.84 535.56 171.72 546.19 178.74 556.9 185.84 567.68 192.99 578.52 200.15 589.39 207.25 600.28 214.25 611.17 221.11 622.03 227.78 632.86 234.22 643.63 240.38 654.32 246.25 664.91 251.78 675.39 256.96 685.72 261.77 695.9 266.21 698.4 276.08 700 285.95 700.67 295.82 700.38 305.7 699.14 315.57 696.99 325.44 693.98 335.31 690.19 345.18 685.72 355.06 680.69 364.93 675.22 374.8 669.46 384.67 663.55 394.54 657.66 404.42 651.93 414.29 646.52 424.16 641.56 434.03 637.19 443.9 633.51 453.78 630.62 463.65 628.61 473.52 627.51 483.39 627.36 493.26 628.17 503.14 629.91 513.01 632.53 522.88 635.97 532.75 640.15 542.62 644.94 552.49 650.23 562.37 656.15 580.05 651.06 593.01 639.95 601.19 628.45 607.58 616.18 611.27 603.38 613.63 589.6 614.46 575.21 614.85 559.78 615.42 543.74 616.62 535.37 617.81 526.81 619.45 518.07 621.62 509.15 624.36 500.07 627.73 490.84 631.76 481.47 636.47 471.97 641.87 462.35 647.95 452.64 654.7 442.84 662.07 432.97 670.04 423.04 678.53 413.07 687.48 398.64 687.6 383.77 688.03 368.14 687.99 352.07 687.13 335.31 684.1 318.16 679.4 309.39 675.97 300.52 671.88 291.55 667.12 282.51 661.71 273.39 655.67 264.21 649.01 254.99 641.79 245.72 634.07 236.43 625.9 227.13 617.36 217.82 608.52 208.52 599.46 199.24 590.29 189.99 581.07 180.76 571.9 171.59 562.86 162.47 554.04 153.4 545.51 144.4 537.35 135.47 529.61 134.15 520.35 132.87 511.09 131.67 501.83 130.58 492.57 129.64 483.31 128.86 474.04 128.26 464.78 127.87 455.52 127.69 446.26 127.72 437 127.97 427.74 128.43 418.48 129.08 409.22 129.91 399.95 130.9 390.69 132.03 381.43 133.25 372.17 134.55 362.91 135.89 353.65 137.22 344.39 138.53 335.13 139.77 325.86 140.91 316.6 141.92 307.34 142.78 298.08 143.46 288.82 143.94 279.56 144.22 270.29 144.29 261.03 144.14 251.77 147.63 236.52 159.65 228.03 175.67 223.45 191.41 219.03 206.65 214.36 221.6 209.25 236.11 203.04 250.39 196 264.34 187.38 278.16 177.8 285.02 172.46 291.86 166.84 298.7 160.95 305.56 154.82 312.43 148.49 319.35 141.99 326.31 135.36 333.34 128.64 340.44 121.87 347.63 115.1 354.92 108.35 362.33 101.68 373.68 91.9 377.51 88.68" stroke-dasharray="5 7" transform="rotate(8.08, 400, 400)" opacity="0.35"></path><path d="M378.24 101.17Q386.25 104.04 394.41 107.03 402.73 110.16 411.2 113.47 419.84 116.98 428.63 120.72 437.57 124.7 446.67 128.96 455.92 133.48 465.31 138.3 474.84 143.39 484.5 148.77 494.29 154.42 504.19 160.32 514.19 166.47 524.28 172.83 534.45 179.37 544.69 186.06 554.98 192.87 565.3 199.76 575.65 206.68 586 213.59 596.34 220.45 606.65 227.22 616.92 233.84 627.12 240.3 637.25 246.53 647.28 252.51 657.2 258.21 666.99 263.61 676.63 268.67 686.12 273.4 687.94 282.87 688.92 292.34 689.04 301.81 688.3 311.28 686.71 320.75 684.32 330.22 681.19 339.69 677.37 349.16 672.98 358.63 668.11 368.1 662.87 377.57 657.41 387.05 651.83 396.52 646.28 405.99 640.9 415.46 635.8 424.93 631.12 434.4 626.95 443.87 623.41 453.34 620.58 462.81 618.52 472.28 617.28 481.75 616.9 491.22 617.38 500.69 618.71 510.16 620.86 519.63 623.78 529.1 627.39 538.57 631.62 548.04 636.36 557.51 641.65 574.1 636.66 585.42 626.12 591.92 615.3 596.88 603.88 599.61 592.03 601.31 579.36 601.94 566.18 602.37 552.08 603.26 537.43 604.88 521.87 608.42 505.79 613.44 497.46 616.93 488.97 621.02 480.34 625.74 471.57 631.08 462.67 637.03 453.66 643.59 444.54 650.7 435.33 658.35 426.04 666.46 416.68 675 402.21 674.98 387.31 675.26 371.71 675.2 355.72 674.43 339.12 671.82 322.2 667.74 313.57 664.75 304.87 661.17 296.09 656.99 287.25 652.21 278.37 646.84 269.44 640.9 260.48 634.42 251.5 627.44 242.51 620.01 233.52 612.19 224.54 604.03 215.58 595.61 206.65 587 197.75 578.27 188.9 569.5 180.09 560.76 171.34 552.14 162.65 543.69 154.03 535.49 145.48 527.6 144.15 518.68 142.88 509.76 141.71 500.84 140.67 491.92 139.78 483 139.06 474.08 138.53 465.15 138.2 456.23 138.08 447.31 138.18 438.39 138.48 429.47 138.99 420.55 139.69 411.62 140.56 402.7 141.59 393.78 142.75 384.86 144 375.94 145.33 367.01 146.7 358.09 148.07 349.17 149.42 340.25 150.71 331.33 151.91 322.4 153 313.48 153.94 304.56 154.71 295.64 155.3 286.72 155.69 277.79 155.87 268.87 155.84 259.95 159.37 245.42 171.04 237.64 186.55 233.52 201.79 229.37 216.55 224.75 231.04 219.61 245.07 213.29 258.85 206.13 272.28 197.47 285.53 187.9 298.57 176.94 311.55 165.27 318.03 159.09 324.52 152.76 331.03 146.32 337.58 139.8 344.17 133.25 350.82 126.69 357.54 120.18 364.34 113.73 374.74 104.27 378.24 101.17" stroke-dasharray="8 10" transform="rotate(12.12, 400, 400)" opacity="0.62"></path><path d="M379.96 113.64Q396.15 119.14 412.9 125.18 430.19 131.97 448.01 139.67 466.31 148.41 485.03 158.21 504.12 169.04 523.48 180.82 543.03 193.36 562.66 206.43 582.26 219.76 601.72 233.06 620.93 245.99 639.77 258.28 658.13 269.66 675.91 279.91 677.5 298.02 676.01 316.14 671.56 334.25 664.53 352.37 655.55 370.48 645.38 388.6 634.93 406.71 625.08 424.83 616.71 442.94 610.54 461.06 607.1 479.17 606.7 497.29 609.37 515.4 614.88 533.52 622.74 551.63 632.28 569.75 622.4 576.93 612.38 582.19 602.11 585.72 591.48 587.82 580.41 588.91 568.81 589.48 556.64 590.05 543.84 591.17 530.39 593.35 516.29 597.06 501.55 602.65 486.18 610.37 470.24 620.33 453.77 632.49 436.84 646.66 419.52 662.53 405.07 662.33 390.1 662.53 374.62 662.52 358.69 661.74 342.36 659.69 325.69 655.96 308.74 650.26 291.59 642.42 274.31 632.43 256.98 620.42 239.67 606.63 222.44 591.44 205.35 575.29 188.45 558.68 171.78 542.14 155.39 526.18 152.84 509.01 150.74 491.84 149.26 474.66 148.55 457.49 148.66 440.32 149.58 423.15 151.23 405.98 153.46 388.81 156.1 371.64 158.89 354.47 161.61 337.29 164.01 320.12 165.89 302.95 167.08 285.78 167.48 268.61 167.05 251.44 182.4 247.54 197.43 243.74 212.13 239.72 226.48 235.17 240.47 229.84 254.1 223.53 267.39 216.12 280.36 207.55 293.07 197.87 305.57 187.18 317.91 175.64 330.16 163.47 342.41 150.93 354.74 138.27 367.23 125.76 379.96 113.64 379.96 113.64 379.96 113.64" stroke-dasharray="2 10" transform="rotate(16.16, 400, 400)" opacity="0.78"></path><path d="M382.61 126.11Q398.71 131.25 415.28 136.9 432.3 143.24 449.74 150.42 467.55 158.55 485.66 167.69 504.01 177.8 522.52 188.83 541.1 200.64 559.66 213.04 578.11 225.8 596.34 238.67 614.26 251.35 631.78 263.59 648.81 275.12 665.26 285.73 665.77 302.99 663.52 320.26 658.7 337.53 651.67 354.8 643.01 372.07 633.39 389.34 623.58 406.6 614.36 423.87 606.46 441.14 600.51 458.41 596.97 475.67 596.13 492.94 598.06 510.21 602.6 527.48 609.39 544.74 617.89 562.01 608.33 567.61 598.72 571.58 588.96 574.16 578.95 575.68 568.62 576.51 557.88 577.1 546.68 577.92 534.97 579.42 522.71 582.03 509.87 586.12 496.47 591.98 482.49 599.79 467.96 609.61 452.92 621.39 437.4 634.97 421.46 650.05 406.99 649.75 392.06 649.81 376.71 649.74 360.98 649.04 344.94 647.28 328.64 644.07 312.15 639.16 295.54 632.35 278.86 623.6 262.19 612.97 245.59 600.64 229.1 586.87 212.78 572.01 196.67 556.47 180.8 540.7 165.2 525.14 162.74 508.64 160.78 492.14 159.47 475.64 158.92 459.14 159.16 442.65 160.18 426.15 161.9 409.65 164.18 393.15 166.84 376.65 169.68 360.15 172.45 343.65 174.96 327.15 176.98 310.65 178.38 294.15 179.03 277.65 178.88 261.15 193.68 257.65 208.2 254.03 222.42 250.02 236.31 245.38 249.86 239.9 263.06 233.44 275.93 225.92 288.47 217.33 300.73 207.72 312.73 197.2 324.53 185.94 336.18 174.13 347.74 162.01 359.28 149.82 376.75 131.94 382.61 126.11" stroke-dasharray="6 6" transform="rotate(20.200000000000003, 400, 400)" opacity="0.83"></path><path d="M386.06 138.58Q401.93 143.38 418.19 148.65 434.79 154.54 451.71 161.21 468.88 168.76 486.24 177.23 503.74 186.62 521.29 196.9 538.82 207.95 556.24 219.63 573.48 231.75 590.46 244.09 607.09 256.42 623.3 268.47 639.02 280.02 654.19 290.86 653.74 307.26 650.86 323.67 645.76 340.07 638.81 356.47 630.49 372.88 621.43 389.28 612.26 405.68 603.65 422.08 596.21 438.49 590.49 454.89 586.89 471.29 585.67 487.7 586.92 504.1 590.56 520.5 596.31 536.9 603.77 553.31 594.48 557.54 585.22 560.46 575.9 562.32 566.43 563.43 556.74 564.15 546.75 564.87 536.41 565.99 525.66 567.89 514.46 570.92 502.79 575.36 490.61 581.43 477.93 589.27 464.75 598.92 451.09 610.3 436.96 623.27 422.4 637.58 407.98 637.17 393.18 637.12 378.03 636.98 362.6 636.34 346.94 634.82 331.1 632.08 315.14 627.86 299.13 622 283.12 614.41 267.17 605.1 251.31 594.18 235.61 581.84 220.09 568.34 204.79 554.01 189.74 539.2 174.94 524.3 172.62 508.48 170.83 492.66 169.7 476.84 169.31 461.01 169.69 445.19 170.81 429.37 172.59 413.55 174.9 397.72 177.58 381.9 180.43 366.08 183.25 350.25 185.83 334.43 188 318.61 189.58 302.78 190.48 286.96 190.62 271.14 204.87 267.86 218.88 264.3 232.61 260.21 246.05 255.42 259.17 249.77 271.96 243.16 284.43 235.55 296.58 226.95 308.43 217.44 320 207.13 331.34 196.17 342.47 184.74 353.45 173.07 364.33 161.35 380.62 144.19 386.06 138.58" stroke-dasharray="3 2" transform="rotate(24.24, 400, 400)" opacity="0.73"></path><path d="M390.16 151.06Q405.66 155.52 421.45 160.41 437.49 165.88 453.73 172.05 470.14 179.01 486.64 186.83 503.17 195.51 519.67 205.03 536.08 215.3 552.32 226.23 568.33 237.65 584.04 249.38 599.39 261.23 614.32 272.98 628.78 284.42 642.72 295.33 641.44 310.85 638.04 326.38 632.76 341.91 625.94 357.43 618.01 372.96 609.5 388.48 600.95 404.01 592.93 419.53 585.95 435.06 580.47 450.58 576.84 466.11 575.31 481.63 575.96 497.16 578.76 512.68 583.53 528.21 589.95 543.73 580.91 546.84 571.95 548.95 563.01 550.29 554 551.18 544.86 551.92 535.52 552.86 525.93 554.32 516.03 556.61 505.77 560.02 495.13 564.76 484.08 571 472.59 578.82 460.67 588.25 448.31 599.21 435.52 611.57 422.32 625.11 408.03 624.61 393.45 624.44 378.61 624.24 363.57 623.65 348.38 622.33 333.09 619.99 317.75 616.4 302.41 611.39 287.12 604.86 271.93 596.79 256.88 587.23 241.99 576.3 227.3 564.2 212.83 551.16 198.6 537.49 184.62 523.47 182.48 508.33 180.89 493.2 179.95 478.06 179.73 462.92 180.25 447.79 181.46 432.65 183.29 417.51 185.62 402.38 188.3 387.24 191.15 372.1 194 356.97 196.64 341.83 198.92 326.69 200.69 311.55 201.82 296.42 202.25 281.28 215.95 278.08 229.44 274.45 242.68 270.22 255.66 265.24 268.35 259.4 280.74 252.65 292.82 244.98 304.6 236.41 316.08 227.03 327.27 216.95 338.2 206.32 348.9 195.31 359.4 184.09 369.74 172.85 385.07 156.42 390.16 151.06" stroke-dasharray="0 9" transform="rotate(28.28, 400, 400)" opacity="0.62"></path><path d="M394.71 163.53Q409.69 167.67 424.86 172.19 440.2 177.24 455.65 182.92 471.17 189.32 486.7 196.5 502.19 204.47 517.58 213.23 532.82 222.72 547.85 232.86 562.62 243.53 577.08 254.58 591.17 265.86 604.86 277.18 618.1 288.35 630.86 299.19 628.87 313.83 625.08 328.47 619.71 343.1 613.08 357.74 605.56 372.38 597.6 387.02 589.66 401.66 582.21 416.3 575.68 430.94 570.46 445.58 566.84 460.22 565.04 474.86 565.16 489.49 567.2 504.13 569.34 527.21 558.97 537.16 541.72 539.03 524.3 541.09 515.35 542.91 506.18 545.59 496.75 549.34 487.02 554.33 476.97 560.68 466.56 568.44 455.79 577.61 444.64 588.13 433.11 599.87 421.2 612.63 407.17 612.06 392.91 611.8 378.49 611.53 363.95 610.96 349.32 609.81 334.67 607.83 320.02 604.79 305.42 600.54 290.92 594.98 276.54 588.06 262.31 579.78 248.27 570.22 234.43 559.52 220.82 547.84 207.43 535.4 194.28 522.45 192.34 508.01 190.97 493.58 190.24 479.14 190.19 464.7 190.84 450.26 192.13 435.82 194 421.38 196.34 406.94 199 392.51 201.84 378.07 204.69 363.63 207.38 349.19 209.76 334.75 211.68 320.31 213.03 305.88 213.74 291.44 226.88 288.18 239.84 284.41 252.59 279.97 265.1 274.78 277.36 268.77 289.34 261.9 301.05 254.2 312.46 245.7 323.59 236.49 334.44 226.68 345.02 216.4 355.35 205.81 365.45 195.07 375.35 184.34 389.9 168.65 394.71 163.53" stroke-dasharray="4 9" transform="rotate(32.32, 400, 400)" opacity="0.52"></path><path d="M399.51 176.01Q413.82 179.83 428.25 184 442.76 188.64 457.3 193.85 471.84 199.7 486.32 206.25 500.7 213.53 514.94 221.53 528.99 230.23 542.8 239.56 556.34 249.44 569.56 259.76 582.43 270.37 594.91 281.14 606.99 291.91 618.63 302.51 616.08 316.26 612 330.01 606.63 343.76 600.23 357.51 593.14 371.26 585.73 385.01 578.39 398.76 571.49 412.5 565.41 426.25 560.44 440 556.87 453.75 554.86 467.5 554.52 481.25 555.88 495 556.79 516.42 546.3 525.23 529.73 527.09 513.16 529.6 504.77 531.79 496.23 534.82 487.52 538.87 478.59 544.06 469.42 550.46 459.97 558.11 450.23 566.99 440.18 577.04 429.8 588.15 419.1 600.15 405.44 599.51 391.65 599.16 377.75 598.83 363.81 598.28 349.85 597.27 335.9 595.58 322.02 593.03 308.23 589.46 294.55 584.77 281.02 578.89 267.67 571.82 254.5 563.57 241.53 554.24 228.77 543.94 216.24 532.82 203.92 521.07 202.22 507.34 201.09 493.62 200.57 479.9 200.69 466.17 201.46 452.45 202.83 438.72 204.73 425 207.06 411.27 209.69 397.55 212.5 383.83 215.33 370.1 218.04 356.38 220.49 342.65 222.55 328.93 224.11 315.21 225.08 301.48 237.65 298.07 250.06 294.09 262.3 289.42 274.34 284.02 286.15 277.85 297.72 270.9 309.04 263.2 320.1 254.81 330.89 245.81 341.41 236.31 351.67 226.42 361.68 216.28 371.44 206.03 380.98 195.82 394.92 180.89 399.51 176.01" stroke-dasharray="2 5" transform="rotate(36.36, 400, 400)" opacity="0.07"></path><path d="M404.32 188.49Q417.84 192 431.41 195.83 444.98 200.07 458.52 204.81 472 210.13 485.38 216.08 498.62 222.68 511.68 229.94 524.53 237.85 537.13 246.36 549.46 255.42 561.48 264.94 573.17 274.83 584.51 284.95 595.49 295.19 606.07 305.4 603.07 318.26 598.82 331.12 593.51 343.98 587.4 356.84 580.76 369.7 573.89 382.56 567.13 395.42 560.78 408.28 555.12 421.14 550.43 434 546.93 446.86 544.76 459.72 544.04 472.58 544.79 485.44 544.57 505.32 533.99 513.28 518.03 515.37 502.22 518.43 494.3 520.97 486.31 524.33 478.22 528.63 469.98 533.95 461.57 540.35 452.96 547.84 444.13 556.4 435.05 565.96 425.72 576.43 416.12 587.68 402.97 586.99 389.75 586.55 376.5 586.17 363.25 585.63 350.04 584.73 336.89 583.29 323.83 581.16 310.89 578.18 298.09 574.26 285.45 569.33 272.98 563.36 260.7 556.34 248.62 548.33 236.74 539.38 225.06 529.61 213.59 519.15 212.15 506.16 211.25 493.17 210.95 480.17 211.24 467.18 212.12 454.19 213.56 441.2 215.47 428.21 217.78 415.21 220.37 402.22 223.13 389.23 225.93 376.24 228.64 363.25 231.13 350.25 233.3 337.26 235.03 324.27 236.26 311.28 248.23 307.64 260.09 303.41 271.79 298.51 283.33 292.91 294.68 286.62 305.83 279.62 316.75 271.98 327.44 263.74 337.89 254.99 348.09 245.83 358.05 236.36 367.76 226.69 377.22 216.95 386.47 207.26 399.91 193.11 404.32 188.49" stroke-dasharray="0 10" transform="rotate(40.400000000000006, 400, 400)" opacity="0.57"></path><path d="M408.94 200.96Q421.56 204.17 434.16 207.67 446.71 211.53 459.19 215.84 471.56 220.64 483.8 226 495.87 231.94 507.75 238.48 519.42 245.6 530.84 253.3 541.99 261.53 552.86 270.22 563.43 279.3 573.68 288.69 583.61 298.28 593.21 307.96 589.88 319.93 585.55 331.91 580.39 343.88 574.59 355.86 568.41 367.83 562.09 379.81 555.89 391.78 550.06 403.76 544.83 415.74 540.42 427.71 537.01 439.69 534.74 451.66 533.69 463.64 533.92 475.61 532.7 494.06 522.07 501.45 506.69 503.93 491.56 507.6 476.51 514.53 461.32 524 453.56 530.34 445.68 537.62 437.64 545.82 429.43 554.88 421.02 564.71 412.4 575.2 399.88 574.47 387.35 573.97 374.84 573.53 362.38 572.99 349.99 572.18 337.7 570.96 325.53 569.17 313.49 566.7 301.6 563.46 289.87 559.38 278.31 554.4 266.94 548.52 255.75 541.75 244.75 534.11 233.93 525.69 223.3 516.56 222.13 504.31 221.48 492.07 221.38 479.83 221.84 467.59 222.83 455.35 224.31 443.11 226.22 430.87 228.49 418.62 231.03 406.38 233.72 394.14 236.47 381.9 239.16 369.66 241.67 357.42 243.92 345.18 245.8 332.94 247.24 320.7 258.61 316.8 269.89 312.3 281.05 307.19 292.06 301.43 302.93 295.06 313.62 288.08 324.12 280.54 334.43 272.5 344.52 264.05 354.39 255.26 364.04 246.23 373.46 237.06 382.66 227.84 391.63 218.69 404.66 205.33 408.94 200.96" stroke-dasharray="8 10" transform="rotate(44.44, 400, 400)" opacity="0.40"></path><path d="M413.14 213.43Q424.77 216.36 436.33 219.54 447.81 223.03 459.18 226.91 470.42 231.22 481.51 236.02 492.42 241.32 503.14 247.15 513.64 253.52 523.92 260.41 533.95 267.79 543.72 275.63 553.23 283.87 562.46 292.45 571.4 301.3 580.07 310.32 576.55 321.42 572.22 332.52 567.26 343.62 561.82 354.72 556.11 365.81 550.32 376.91 544.67 388.01 539.34 399.11 534.53 410.21 530.41 421.31 527.12 432.41 524.79 443.51 523.49 454.61 523.27 465.71 521.17 482.83 510.55 489.86 495.74 492.84 481.24 497.13 467 504.53 452.75 514.19 445.56 520.42 438.3 527.45 430.94 535.26 423.47 543.79 415.86 552.98 408.11 562.73 396.33 561.96 384.59 561.41 372.92 560.93 361.33 560.38 349.83 559.64 338.45 558.58 327.2 557.09 316.1 555.06 305.14 552.41 294.34 549.06 283.71 544.98 273.24 540.12 262.95 534.49 252.83 528.1 242.87 520.97 233.07 513.16 232.19 501.69 231.79 490.22 231.89 478.75 232.49 467.28 233.57 455.8 235.09 444.33 236.99 432.86 239.21 421.39 241.67 409.92 244.29 398.45 246.96 386.98 249.6 375.51 252.11 364.04 254.41 352.56 256.41 341.09 258.03 329.62 268.78 325.45 279.45 320.71 290.03 315.42 300.5 309.56 310.85 303.15 321.06 296.24 331.12 288.87 341.01 281.09 350.72 272.97 360.24 264.59 369.57 256.03 378.69 247.37 387.61 238.7 396.32 230.1 408.99 217.54 413.14 213.43" stroke-dasharray="11 8" transform="rotate(48.48, 400, 400)" opacity="0.43"></path><path d="M416.74 225.91Q427.31 228.56 437.79 231.42 448.16 234.56 458.41 238.03 468.51 241.87 478.46 246.13 488.24 250.82 497.82 255.98 507.21 261.61 516.4 267.7 525.36 274.25 534.09 281.23 542.6 288.61 550.87 296.33 558.9 304.36 566.7 312.62 563.08 322.85 558.85 333.09 554.14 343.32 549.09 353.56 543.85 363.79 538.59 374.03 533.46 384.26 528.62 394.5 524.22 404.73 520.39 414.97 517.26 425.21 514.9 435.44 513.41 445.68 512.82 455.91 510 471.78 499.47 478.61 485.23 482.17 471.34 487.05 457.83 494.8 444.41 504.53 437.71 510.6 430.98 517.33 424.21 524.72 417.37 532.71 410.45 541.25 403.44 550.26 392.51 549.47 381.66 548.87 370.89 548.35 360.23 547.8 349.68 547.12 339.25 546.2 328.95 544.95 318.8 543.28 308.79 541.13 298.93 538.42 289.22 535.12 279.67 531.17 270.27 526.57 261.02 521.32 251.91 515.41 242.95 508.88 242.34 498.2 242.18 487.52 242.47 476.83 243.2 466.15 244.35 455.46 245.89 444.78 247.77 434.1 249.93 423.41 252.31 412.73 254.82 402.05 257.41 391.36 259.98 380.68 262.46 370 264.77 359.32 266.84 348.63 268.62 337.95 278.71 333.52 288.76 328.59 298.73 323.17 308.63 317.26 318.43 310.9 328.13 304.12 337.7 296.97 347.13 289.5 356.43 281.76 365.56 273.83 374.54 265.77 383.34 257.65 391.96 249.53 400.41 241.49 412.7 229.75 416.74 225.91" stroke-dasharray="6 11" transform="rotate(52.52, 400, 400)" opacity="0.85"></path><path d="M419.56 238.38Q429.05 240.76 438.43 243.33 447.69 246.14 456.82 249.21 465.81 252.61 474.64 256.35 483.32 260.47 491.82 264.98 500.15 269.9 508.3 275.22 516.25 280.96 524.02 287.08 531.59 293.58 538.96 300.43 547.83 315.98 545.46 333.76 541.05 343.15 536.4 352.54 531.64 361.92 526.89 371.31 522.27 380.69 517.9 390.08 513.9 399.46 510.37 408.85 507.4 418.23 505.08 427.62 503.45 437 502.56 446.39 499.16 461.07 488.82 467.82 475.2 471.95 461.92 477.36 449.09 485.33 436.43 495.01 430.15 500.85 423.89 507.25 417.61 514.19 411.32 521.62 404.99 529.51 398.61 537.78 388.61 536.99 378.71 536.36 368.91 535.8 359.21 535.25 349.64 534.6 340.18 533.79 330.86 532.74 321.67 531.38 312.61 529.64 303.69 527.48 294.9 524.84 286.25 521.69 277.74 518.01 269.35 513.78 256.85 501.39 252.67 483.9 253.13 474.03 253.97 464.15 255.18 454.27 256.73 444.39 258.57 434.51 260.65 424.63 262.92 414.75 265.33 404.87 267.8 394.99 270.28 385.11 272.7 375.24 274.99 365.36 277.11 355.48 278.99 345.6 288.41 340.97 297.8 335.9 307.15 330.43 316.43 324.55 325.65 318.31 334.79 311.73 343.84 304.86 352.78 297.75 361.61 290.44 370.32 282.98 378.89 275.45 387.33 267.88 395.62 260.33 403.76 252.87 415.65 241.96 419.56 238.38" stroke-dasharray="2 6" transform="rotate(56.56, 400, 400)" opacity="0.54"></path><path d="M421.48 250.86Q438.16 255.27 454.37 260.46 470.05 266.69 485.16 274.16 499.66 283 513.54 293.24 526.78 304.83 539.4 317.6 532.06 334.7 523.76 351.8 515.22 368.9 507.18 385.99 500.34 403.09 495.3 420.19 492.49 437.28 492.17 454.38 478.61 457.57 465.59 462.02 453.02 468.05 440.83 475.88 428.9 485.6 417.16 497.2 405.5 510.52 393.84 525.3 375.92 523.86 358.42 522.72 341.37 521.39 324.79 519.38 308.68 516.27 293.04 511.72 277.86 505.49 263.09 497.46 263.27 479.34 264.81 461.23 267.6 443.11 271.37 424.99 275.8 406.87 280.51 388.75 285.09 370.63 289.14 352.51 306.58 342.64 323.91 331.43 341.05 319.07 357.93 305.84 374.47 292.06 390.61 278.07 406.3 264.23 421.48 250.86 421.48 250.86 421.48 250.86" stroke-dasharray="3 11" transform="rotate(60.599999999999994, 400, 400)" opacity="0.10"></path><path d="M422.41 263.34Q436.96 267.23 451.07 271.75 464.72 277.13 477.89 283.52 490.55 291.03 502.71 299.73 514.38 309.6 525.56 320.57 518.69 336.03 511.18 351.48 503.59 366.94 496.46 382.4 490.31 397.86 485.57 413.31 482.59 428.77 481.58 444.22 468.83 447.94 456.54 452.85 444.68 459.16 433.16 466.97 421.94 476.33 410.95 487.19 400.11 499.43 389.36 512.83 373.48 511.4 357.99 510.25 342.9 509.01 328.23 507.32 313.96 504.85 300.08 501.32 286.57 496.53 273.4 490.32 273.99 473.86 275.73 457.4 278.49 440.94 282.08 424.48 286.25 408.02 290.68 391.56 295.06 375.1 299.07 358.64 315.09 348.78 331.05 337.88 346.89 326.14 362.56 313.77 378 301.04 393.16 288.22 407.98 275.57 422.41 263.34 422.41 263.34 422.41 263.34" stroke-dasharray="8 3" transform="rotate(64.64, 400, 400)" opacity="0.53"></path><path d="M422.31 275.81Q434.81 279.2 446.95 283.11 458.7 287.69 470.06 293.07 481.03 299.35 491.6 306.6 501.81 314.83 511.65 324.02 505.34 337.86 498.66 351.71 492 365.56 485.75 379.41 480.27 393.25 475.88 407.1 472.84 420.95 471.33 434.8 459.47 438.98 448 444.22 436.9 450.64 426.12 458.29 415.62 467.16 405.36 477.21 395.3 488.33 385.37 500.35 371.52 498.95 358.02 497.81 344.87 496.64 332.05 495.2 319.57 493.24 307.4 490.55 295.52 486.93 283.9 482.26 284.84 467.47 286.71 452.69 289.42 437.9 292.8 423.12 296.67 408.33 300.78 393.55 304.9 378.77 308.8 363.98 323.34 354.35 337.86 343.96 352.33 332.97 366.7 321.57 380.93 309.96 394.96 298.33 408.77 286.89 422.31 275.81 422.31 275.81 422.31 275.81" stroke-dasharray="3 1" transform="rotate(68.68, 400, 400)" opacity="0.19"></path><path d="M421.17 288.28Q431.76 291.2 442.06 294.53 452.05 298.36 461.75 302.82 471.15 307.97 480.27 313.88 489.12 320.58 497.71 328.07 492.05 340.34 486.2 352.6 480.44 364.87 475.03 377.13 470.21 389.4 466.22 401.66 463.23 413.93 461.38 426.2 450.5 430.72 439.95 436.14 429.69 442.51 419.71 449.83 409.99 458.1 400.49 467.26 391.19 477.22 382.05 487.88 370.2 486.54 358.64 485.41 347.35 484.32 336.33 483.08 325.56 481.51 315.03 479.46 304.73 476.78 294.62 473.37 295.82 460.26 297.77 447.16 300.38 434.06 303.52 420.96 307.06 407.86 310.82 394.76 314.63 381.66 318.32 368.56 331.34 359.37 344.37 349.67 357.39 339.58 370.37 329.24 383.26 318.8 396.05 308.41 414.93 293.24 421.17 288.28" stroke-dasharray="8 7" transform="rotate(72.72, 400, 400)" opacity="1.00"></path><path d="M419.06 300.76Q427.88 303.23 436.49 306 444.87 309.16 453.05 312.78 461.01 316.91 468.78 321.61 477.59 335.22 473.82 354.24 468.92 364.94 464.31 375.65 460.15 386.36 456.58 397.07 453.74 407.78 451.72 418.49 441.92 423.19 432.37 428.6 423.05 434.73 413.96 441.58 405.09 449.13 396.41 457.33 387.91 466.11 379.57 475.41 369.63 474.15 359.91 473.06 350.4 472.04 341.09 470.95 331.96 469.69 323.01 468.13 310.58 459.25 308.91 440.9 311.37 429.49 314.24 418.07 317.42 406.66 320.79 395.24 324.25 383.83 327.65 372.41 339.11 363.89 350.59 355.05 362.09 345.99 373.59 336.8 385.05 327.59 396.47 318.45 413.43 305.12 419.06 300.76" stroke-dasharray="9 2" transform="rotate(76.76, 400, 400)" opacity="0.62"></path><path d="M416.06 313.23Q430.27 317.68 444.04 322.94 457.13 330 469.87 338.34 465.68 347.51 461.5 356.68 457.43 365.85 453.59 375.02 450.07 384.19 446.96 393.36 444.35 402.52 442.3 411.69 433.67 416.37 425.23 421.57 416.96 427.29 408.86 433.52 400.92 440.24 393.14 447.41 377.7 458.38 361.91 460.76 346.44 458.81 331.35 456.62 321.12 449.49 320.14 434.03 322.4 424.3 324.96 414.57 327.75 404.83 330.71 395.1 333.76 385.36 336.81 375.63 346.66 367.98 356.55 360.16 366.48 352.24 376.42 344.27 386.36 336.33 396.29 328.47 411.13 316.99 416.06 313.23" stroke-dasharray="1 5" transform="rotate(80.80000000000001, 400, 400)" opacity="0.86"></path><path d="M412.32 325.71Q423.76 329.15 434.83 333.31 445.58 338.42 456.06 344.67 449.26 359.96 442.87 375.24 437.36 390.53 433.11 405.82 418.49 415.04 404.37 425.64 390.71 437.51 377.5 450.45 364.67 448.51 352.21 446.81 340.07 445.02 328.18 442.8 331.44 426.68 335.68 410.55 340.58 394.42 345.8 378.29 362.29 365.03 378.92 351.66 395.62 338.45 412.32 325.71 412.32 325.71 412.32 325.71" stroke-dasharray="9 4" transform="rotate(84.84, 400, 400)" opacity="0.28"></path><path d="M408.02 338.18Q416.87 340.81 425.52 343.88 435.55 355.8 432.15 376.33 427.75 388.58 424.11 400.83 412.13 408.95 400.45 417.91 389.08 427.62 378 437.98 368.2 436.31 358.6 434.84 346 426.19 346.4 406.16 350.4 393.34 354.66 380.52 367.85 369.73 381.16 358.98 401.29 343.3 408.02 338.18" stroke-dasharray="9 1" transform="rotate(88.88, 400, 400)" opacity="0.93"></path><path d="M403.35 350.66Q420.6 361.9 421.44 378.23 418.15 387.45 415.26 396.67 406.08 403.27 397.06 410.3 380.35 420.95 365.53 422.96 356.48 416.46 357.12 401.56 360.17 392.01 363.41 382.46 373.27 374.33 383.23 366.27 398.3 354.51 403.35 350.66" stroke-dasharray="9 10" transform="rotate(92.92, 400, 400)" opacity="0.21"></path><path d="M398.52 363.13Q408.86 373.25 406.53 393.23 394.12 402.82 382 413.03 370.41 404.06 372.07 384.27 391.86 368.33 398.52 363.13" stroke-dasharray="3 10" transform="rotate(96.96, 400, 400)" opacity="0.84"></path></g></svg>