<svg xmlns="http://www.w3.org/2000/svg" version="1.1" xmlns:xlink="http://www.w3.org/1999/xlink" xmlns:svgjs="http://svgjs.dev/svgjs" viewBox="0 0 800 800"><g stroke-width="2" stroke="#e0cde4" fill="none" stroke-linecap="round"><path d="M378.99 63.74Q388.88 67.17 399.24 70.74 410.07 74.48 421.34 78.44 433.02 82.64 445.06 87.12 457.4 91.9 469.98 97 482.73 102.42 495.57 108.18 508.42 114.27 521.19 120.67 533.79 127.36 546.14 134.31 558.15 141.49 569.75 148.85 580.86 156.35 591.43 163.94 601.39 171.55 610.72 179.13 619.37 186.62 627.35 193.97 634.64 201.12 641.27 208.02 652.41 220.69 661.97 232.25 669.72 241.77 676.96 250.04 666.93 260.68 658.45 271.31 652.23 281.94 648.76 292.57 648.33 303.21 650.97 313.84 656.47 324.47 664.38 335.1 674.06 345.74 684.71 356.37 695.47 367 705.45 377.63 713.84 388.27 719.96 398.9 723.31 409.53 723.62 420.17 720.85 430.8 715.24 441.43 707.24 452.06 697.5 462.7 686.83 473.33 676.09 483.96 666.16 494.59 657.85 505.23 651.83 515.86 648.6 526.49 648.43 537.13 651.32 547.76 657.04 558.39 665.13 569.02 674.92 579.66 685.61 590.29 678.03 604.99 669.44 617.71 658.34 626.83 645.37 633.78 637.7 636.06 629.33 637.74 620.27 638.89 610.54 639.61 600.18 639.98 589.24 640.12 577.77 640.13 565.84 640.15 553.54 640.27 540.93 640.63 528.12 641.34 515.19 642.51 502.23 644.22 489.33 646.57 476.56 649.63 464.01 653.46 451.74 658.09 439.82 663.55 428.3 669.83 417.21 676.93 406.6 684.8 396.47 693.39 386.84 702.63 377.7 712.43 362.65 712.85 348.63 713.6 335.75 713.6 323.19 712.46 310.52 708.45 297.45 702.29 290.55 697.86 283.4 692.62 275.95 686.59 268.2 679.81 260.12 672.3 251.73 664.15 243.02 655.41 234 646.19 224.71 636.57 215.16 626.67 205.39 616.6 195.44 606.47 185.34 596.4 175.13 586.49 164.86 576.86 154.57 567.61 144.29 558.82 134.07 550.57 123.93 542.93 113.91 535.94 111.9 525.98 110.06 516.02 108.54 506.06 107.46 496.1 106.92 486.14 106.95 476.18 107.56 466.23 108.69 456.27 110.25 446.31 112.12 436.35 114.14 426.39 116.15 416.43 117.98 406.48 119.49 396.52 120.54 386.56 121.06 376.6 121.01 366.64 120.38 356.68 119.23 346.73 117.65 336.77 115.77 326.81 113.74 316.85 111.74 306.89 109.92 296.94 108.43 286.98 107.39 277.02 106.9 267.06 106.98 257.1 107.63 247.15 108.8 237.19 110.4 227.23 112.28 217.27 122.18 213.48 132.23 210.04 142.41 206.89 152.69 203.99 163.04 201.27 173.42 198.68 183.79 196.15 194.12 193.62 204.35 191.04 214.45 188.34 224.37 185.46 234.07 182.37 243.53 179.01 252.7 175.35 261.57 171.36 270.12 167.03 278.33 162.34 286.21 157.29 293.76 151.88 300.99 146.14 307.94 140.08 314.64 133.73 321.11 127.13 327.42 120.32 333.61 113.33 339.75 106.23 345.89 99.05 352.11 91.85 358.46 84.67 365.02 77.56 375.42 67.15 378.99 63.74" stroke-dasharray="5 3" transform="rotate(0, 400, 400)" opacity="1.00"></path><path d="M383.07 76.21Q393.56 79.45 404.43 82.83 415.65 86.36 427.17 90.1 438.96 94.06 450.94 98.29 463.07 102.8 475.26 107.62 487.45 112.75 499.57 118.19 511.54 123.95 523.29 130.01 534.74 136.36 545.83 142.97 556.5 149.82 566.69 156.86 576.35 164.06 585.44 171.37 593.95 178.75 601.85 186.13 609.14 193.47 615.83 200.72 627.25 214.6 637.17 227.75 645.24 239.31 652.67 249.75 653.71 261.47 644.27 278.92 639.68 289.18 637.76 299.44 638.65 309.7 642.29 319.96 648.39 330.22 656.5 340.48 666.01 350.74 676.2 361 686.29 371.26 695.54 381.51 703.23 391.77 708.79 402.03 711.8 412.29 712.03 422.55 709.46 432.81 704.29 443.07 696.91 453.33 687.88 463.59 677.87 473.85 667.65 484.11 657.97 494.37 649.59 504.63 643.12 514.89 639.06 525.15 637.71 535.41 639.18 545.66 643.35 555.92 649.91 566.18 658.37 576.44 668.08 586.7 660.95 599.32 653.26 610.01 643.8 617.38 632.88 622.84 619.09 625.58 603.44 627.09 594.53 627.34 585.04 627.44 575 627.51 564.44 627.65 553.43 627.95 542.02 628.53 530.29 629.48 518.3 630.89 506.12 632.84 493.85 635.4 481.54 638.63 469.28 642.57 457.14 647.25 445.18 652.69 433.46 658.88 422.04 665.81 410.97 673.44 400.27 681.72 389.99 690.58 380.13 699.95 367.34 700.22 355.16 700.8 343.44 700.79 331.63 699.8 319.16 696.31 306.04 690.92 299.02 687 291.69 682.36 284.06 676.99 276.11 670.91 267.84 664.15 259.28 656.75 250.42 648.78 241.3 640.3 231.95 631.4 222.38 622.16 212.65 612.68 202.79 603.05 192.83 593.38 182.81 583.77 172.78 574.31 162.77 565.09 152.81 556.22 142.94 547.76 133.18 539.78 123.55 532.34 121.54 522.73 119.79 513.13 118.43 503.52 117.57 493.91 117.27 484.31 117.55 474.7 118.39 465.1 119.73 455.49 121.46 445.88 123.46 436.28 125.58 426.67 127.65 417.07 129.52 407.46 131.05 397.86 132.12 388.25 132.65 378.64 132.6 369.04 131.98 359.43 130.83 349.83 129.24 340.22 127.32 330.62 125.23 321.01 123.12 311.4 121.16 301.8 119.48 292.19 118.21 282.59 117.46 272.98 117.28 263.38 117.67 253.77 118.62 244.17 125.69 228.15 140.95 218.81 150.73 216.1 160.64 213.57 170.65 211.14 180.72 208.78 190.84 206.42 200.96 204.01 211.04 201.49 221.04 198.82 230.92 195.94 240.64 192.83 250.16 189.43 259.46 185.73 268.49 181.71 277.24 177.35 285.68 172.64 293.8 167.6 301.59 162.23 309.06 156.54 316.2 150.56 323.04 144.31 329.61 137.84 335.92 131.18 342.02 124.37 347.95 117.45 353.76 110.48 359.51 103.48 365.26 96.52 371.06 89.63 380.02 79.53 383.07 76.21" stroke-dasharray="8 6" transform="rotate(4.04, 400, 400)" opacity="0.96"></path><path d="M389.24 88.68Q400.03 91.74 411.07 94.92 422.33 98.25 433.74 101.77 445.26 105.51 456.82 109.49 468.36 113.74 479.83 118.27 491.15 123.09 502.27 128.22 513.12 133.65 523.65 139.37 533.8 145.37 543.53 151.63 552.79 158.13 561.56 164.84 569.8 171.72 577.5 178.74 584.66 185.84 591.29 192.99 597.39 200.15 602.99 207.25 612.67 221.01 621.26 234.22 628.7 246.08 635.92 256.96 637.92 268.93 630.92 285.95 627.92 295.82 627.43 305.7 629.48 315.57 633.94 325.44 640.49 335.31 648.67 345.18 657.93 355.06 667.6 364.93 677.03 374.8 685.54 384.67 692.56 394.54 697.59 404.42 700.28 414.29 700.44 424.16 698.07 434.03 693.32 443.9 686.53 453.78 678.18 463.65 668.83 473.52 659.15 483.39 649.81 493.26 641.45 503.14 634.67 513.01 629.92 522.88 627.55 532.75 627.71 542.62 630.4 552.49 635.43 562.37 644.95 580.05 643.98 593.01 630.42 605.49 619.23 611.49 607.66 613.47 594.5 614.53 578.61 614.87 561.09 615.31 551.46 615.81 541.37 616.62 530.89 617.81 520.05 619.45 508.92 621.62 497.56 624.36 486.04 627.73 474.41 631.76 462.75 636.47 451.12 641.87 439.57 647.95 428.17 654.7 416.97 662.07 406.01 670.04 395.35 678.53 385 687.48 365.6 687.89 351.77 688.13 340.01 686.91 327.6 684.38 313.84 679.08 299.17 671.88 291.3 667.12 283.13 661.71 274.68 655.67 265.96 649.01 256.99 641.79 247.81 634.07 238.44 625.9 228.93 617.36 219.29 608.52 209.58 599.46 199.83 590.29 190.07 581.07 180.33 571.9 170.65 562.86 161.06 554.04 151.58 545.51 142.23 537.35 133.03 529.61 131.11 520.35 129.52 511.09 128.38 501.83 127.77 492.57 127.73 483.31 128.27 474.04 129.34 464.78 130.88 455.52 132.77 446.26 134.89 437 137.08 427.74 139.2 418.48 141.09 409.22 142.63 399.95 143.7 390.69 144.24 381.43 144.2 372.17 143.59 362.91 142.45 353.65 140.87 344.39 138.94 335.13 136.8 325.86 134.61 316.6 132.52 307.34 130.66 298.08 129.18 288.82 128.17 279.56 127.7 270.29 127.81 261.03 128.49 251.77 135.02 236.52 149.51 228.03 158.85 225.68 168.34 223.43 177.95 221.23 187.67 219.03 197.46 216.78 207.3 214.43 217.15 211.93 226.98 209.25 236.74 206.35 246.41 203.19 255.94 199.74 265.3 196 274.46 191.93 283.37 187.54 292.03 182.83 300.4 177.8 308.46 172.46 316.21 166.84 323.64 160.95 330.75 154.82 337.55 148.49 344.06 141.99 350.28 135.36 356.27 128.64 367.56 115.11 378.48 101.68 386.54 91.9 389.24 88.68" stroke-dasharray="5 6" transform="rotate(8.08, 400, 400)" opacity="0.92"></path><path d="M396.73 101.17Q407.47 104.04 418.33 107.03 429.25 110.16 440.18 113.47 451.08 116.98 461.89 120.72 472.55 124.7 483.02 128.96 493.24 133.48 503.16 138.3 512.75 143.39 521.95 148.77 530.74 154.42 539.08 160.32 546.97 166.47 554.38 172.83 561.3 179.37 567.76 186.06 579.07 199.77 589.13 213.59 597.53 227.15 605.24 240.3 612.44 252.37 619.77 263.61 622.92 275.77 618.44 292.34 616.92 301.81 617.72 311.28 620.77 320.75 625.88 330.22 632.73 339.69 640.87 349.16 649.79 358.63 658.92 368.1 667.66 377.57 675.47 387.05 681.84 396.52 686.36 405.99 688.75 415.46 688.85 424.93 686.66 434.4 682.32 443.87 676.1 453.34 668.4 462.81 659.72 472.28 650.61 481.75 641.65 491.22 633.41 500.69 626.43 510.16 621.15 519.63 617.9 529.1 616.9 538.57 618.21 548.04 621.74 557.51 626.39 581.58 620.26 592.18 606.46 598.67 595.13 601.31 583.66 601.94 570.78 602.37 555.46 603.26 538.71 604.88 529.56 606.3 520.01 608.17 510.1 610.53 499.87 613.44 489.38 616.93 478.67 621.02 467.8 625.74 456.83 631.08 445.8 637.03 434.78 643.59 423.81 650.7 412.95 658.35 402.24 666.46 391.73 675 373.58 675.17 360.04 675.31 347.99 674.25 335.13 672.06 320.82 667.46 305.61 661.17 297.51 656.99 289.14 652.21 280.53 646.84 271.7 640.9 262.69 634.42 253.51 627.44 244.2 620.01 234.81 612.19 225.35 604.03 215.86 595.61 206.38 587 196.94 578.27 187.56 569.5 178.27 560.76 169.09 552.14 160.05 543.69 151.15 535.49 142.41 527.6 140.64 518.68 139.28 509.76 138.41 500.84 138.09 491.92 138.33 483 139.13 474.08 140.44 465.15 142.16 456.23 144.19 447.31 146.4 438.39 148.64 429.47 150.78 420.55 152.68 411.62 154.22 402.7 155.29 393.78 155.83 384.86 155.8 375.94 155.21 367.01 154.1 358.09 152.53 349.17 150.6 340.25 148.44 331.33 146.2 322.4 144 313.48 141.99 304.56 140.3 295.64 139.04 286.72 138.29 277.79 138.09 268.87 138.46 259.95 144.34 245.42 157.98 237.64 166.84 235.56 175.85 233.52 185.02 231.47 194.32 229.37 203.72 227.17 213.21 224.84 222.76 222.33 232.33 219.61 241.9 216.66 251.42 213.44 260.87 209.93 270.21 206.13 279.41 202.03 288.43 197.62 297.25 192.91 305.83 187.9 314.15 182.61 322.19 177.06 329.94 171.27 337.38 165.27 344.51 159.09 351.33 152.76 357.85 146.32 364.07 139.8 375.62 126.71 386.52 113.73 394.2 104.27 396.73 101.17" stroke-dasharray="3 7" transform="rotate(12.12, 400, 400)" opacity="0.89"></path><path d="M404.63 113.64Q425.26 119.14 445.65 125.18 465.44 131.97 484.28 139.67 501.88 148.41 518.01 158.21 532.5 169.04 545.3 180.82 556.47 193.36 566.16 206.43 574.64 219.76 582.25 233.06 589.43 245.99 596.65 258.28 604.41 269.66 613.18 279.91 606.83 298.02 608.6 316.14 618.07 334.25 633.06 352.37 650.12 370.48 665.3 388.6 675.1 406.71 677.27 424.83 671.29 442.94 658.55 461.06 641.99 479.17 625.44 497.29 612.7 515.4 606.72 533.52 608.89 551.63 618.69 569.75 604.03 581.32 589.61 587.82 581.36 588.91 571.88 589.48 560.92 590.05 548.28 591.17 533.91 593.35 517.86 597.06 500.28 602.65 481.39 610.37 461.52 620.33 440.99 632.49 420.19 646.66 399.47 662.53 389.58 662.33 379.04 662.53 367.61 662.52 355.11 661.74 341.48 659.69 326.7 655.96 310.84 650.26 294.04 642.42 276.49 632.43 258.42 620.42 240.08 606.63 221.69 591.44 203.5 575.29 185.69 558.68 168.41 542.14 151.75 526.18 149.13 509.01 148.56 491.84 150.15 474.66 153.56 457.49 157.98 440.32 162.41 423.15 165.82 405.98 167.41 388.81 166.84 371.64 164.22 354.47 160.16 337.29 155.6 320.12 151.59 302.95 149.06 285.78 148.58 268.61 150.28 251.44 166.44 247.54 183.28 243.74 200.77 239.72 218.79 235.17 237.18 229.84 255.74 223.53 274.23 216.12 292.4 207.55 310 197.87 326.79 187.18 342.6 175.64 357.27 163.47 370.76 150.93 383.07 138.27 399.46 119.7 404.63 113.64" stroke-dasharray="9 5" transform="rotate(16.16, 400, 400)" opacity="0.85"></path><path d="M411.95 126.11Q430.99 131.25 449.4 136.9 466.91 143.24 483.26 150.42 498.28 158.55 511.85 167.69 523.95 177.8 534.62 188.83 544.01 200.64 552.33 213.04 559.88 225.8 567.02 238.67 574.14 251.35 581.66 263.59 589.99 275.12 599.52 285.73 596.08 302.99 600 320.26 610.45 337.53 625.22 354.8 641.21 372.07 655.05 389.34 663.82 406.6 665.68 423.87 660.23 441.14 648.62 458.41 633.3 475.67 617.5 492.94 604.53 510.21 597.14 527.48 596.89 544.74 603.81 562.01 588.44 570.89 574.32 575.68 566.95 576.51 558.8 577.1 549.56 577.92 539.01 579.42 527.01 582.03 513.48 586.12 498.47 591.98 482.09 599.79 464.51 609.61 445.99 621.39 426.81 634.97 407.27 650.05 397.11 649.75 386.03 649.81 373.91 649.74 360.68 649.04 346.36 647.28 331.01 644.07 314.78 639.16 297.83 632.35 280.38 623.6 262.64 612.97 244.84 600.64 227.18 586.87 209.86 572.01 193.02 556.47 176.76 540.7 161.13 525.14 159.13 508.64 159.21 492.14 161.34 475.64 165.09 459.14 169.65 442.65 174.08 426.15 177.43 409.65 179 393.15 178.47 376.65 175.93 360.15 171.94 343.65 167.32 327.15 163.05 310.65 160.03 294.15 158.9 277.65 159.9 261.15 174.97 257.65 190.73 254.03 207.14 250.02 224.15 245.38 241.66 239.9 259.49 233.44 277.46 225.92 295.34 217.33 312.91 207.72 329.94 197.2 346.22 185.94 361.57 174.13 375.85 162.01 389 149.82 406.48 131.94 411.95 126.11" stroke-dasharray="5 3" transform="rotate(20.200000000000003, 400, 400)" opacity="0.81"></path><path d="M417.8 138.58Q434.8 143.38 450.91 148.65 465.96 154.54 479.81 161.21 492.39 168.76 503.69 177.23 513.76 186.62 522.72 196.9 530.79 207.95 538.2 219.63 545.25 231.75 552.28 244.09 559.62 256.42 567.63 268.47 576.64 280.02 586.92 290.86 586.16 307.26 591.88 323.67 602.97 340.07 617.33 356.47 632.19 372.88 644.72 389.28 652.52 405.68 654.09 422.08 649.14 438.49 638.61 454.89 624.52 471.29 609.56 487.7 596.6 504.1 588.12 520.5 585.73 536.9 589.9 553.31 573.54 559.93 559.17 563.43 544.68 565.07 528.2 567.89 518.19 570.92 506.93 575.36 494.34 581.43 480.45 589.27 465.33 598.92 449.11 610.3 431.99 623.27 414.18 637.58 403.32 637.17 391.44 637.12 378.5 636.98 364.53 636.34 349.62 634.82 333.88 632.08 317.48 627.86 300.61 622 283.48 614.41 266.29 605.1 249.22 594.18 232.46 581.84 216.13 568.34 200.35 554.01 185.17 539.2 170.63 524.3 169.33 508.48 170.07 492.66 172.71 476.84 176.74 461.01 181.39 445.19 185.77 429.37 189.05 413.55 190.59 397.72 190.1 381.9 187.67 366.08 183.78 350.25 179.15 334.43 174.69 318.61 171.24 302.78 169.46 286.96 169.7 271.14 183.67 267.86 198.29 264.3 213.56 260.21 229.46 255.42 245.92 249.77 262.84 243.16 280.07 235.55 297.42 226.95 314.7 217.44 331.7 207.13 348.22 196.17 364.05 184.74 379.02 173.07 393.02 161.35 411.88 144.19 417.8 138.58" stroke-dasharray="2 0" transform="rotate(24.24, 400, 400)" opacity="0.77"></path><path d="M421.46 151.06Q436.15 155.52 449.87 160.41 462.51 165.88 474.04 172.05 484.47 179.01 493.87 186.83 502.35 195.51 510.08 205.03 517.28 215.3 524.2 226.23 531.12 237.65 538.33 249.38 546.1 261.23 554.71 272.98 564.42 284.42 575.41 295.33 577.02 310.85 584.16 326.38 595.59 341.91 609.34 357.43 623.04 372.96 634.3 388.48 641.19 404.01 642.5 419.53 638.02 435.06 628.52 450.58 615.64 466.11 601.61 481.63 588.86 497.16 579.59 512.68 575.41 528.21 577.03 543.73 559.52 548.57 544.5 551.18 530.81 553.12 516.23 556.61 507.81 560.02 498.43 564.76 487.99 571 476.41 578.82 463.68 588.25 449.86 599.21 435.03 611.57 419.34 625.11 407.58 624.61 394.82 624.44 381.11 624.24 366.54 623.65 351.24 622.33 335.35 619.99 319.06 616.4 302.54 611.39 285.97 604.86 269.54 596.79 253.4 587.23 237.66 576.3 222.44 564.2 207.79 551.16 193.75 537.49 180.31 523.47 179.77 508.33 181.17 493.2 184.26 478.06 188.52 462.92 193.21 447.79 197.51 432.65 200.68 417.51 202.18 402.38 201.74 387.24 199.44 372.1 195.67 356.97 191.1 341.83 186.51 326.69 182.69 311.55 180.31 296.42 179.77 281.28 192.63 278.08 206.08 274.45 220.15 270.22 234.85 265.24 250.16 259.4 266 252.65 282.27 244.98 298.84 236.41 315.55 227.03 332.22 216.95 348.67 206.32 364.7 195.31 380.14 184.09 394.83 172.85 415.04 156.42 421.46 151.06" stroke-dasharray="7 4" transform="rotate(28.28, 400, 400)" opacity="0.73"></path><path d="M422.47 163.53Q434.84 167.67 446.26 172.19 456.72 177.24 466.26 182.92 474.94 189.32 482.89 196.5 490.24 204.47 497.2 213.23 503.96 222.72 510.76 232.86 517.84 243.53 525.42 254.58 533.75 265.86 543 277.18 553.36 288.35 564.96 299.19 568.57 313.83 576.76 328.47 588.25 343.1 601.25 357.74 613.75 372.38 623.8 387.02 629.83 401.66 630.92 416.3 626.88 430.94 618.36 445.58 606.67 460.22 593.62 474.86 581.26 489.49 571.5 504.13 565.86 518.77 565.22 533.41 555.09 535.65 546.06 537.16 530.84 539.03 517.08 541.09 503.38 546.12 488.39 554.33 479.69 560.68 470.11 568.44 459.56 577.61 448.03 588.13 435.53 599.87 422.12 612.63 409.45 612.06 395.93 611.8 381.65 611.53 366.74 610.96 351.35 609.81 335.62 607.83 319.73 604.79 303.83 600.54 288.08 594.98 272.61 588.06 257.54 579.78 242.96 570.22 228.92 559.52 215.47 547.84 202.59 535.4 190.26 522.45 190.49 508.01 192.51 493.58 196 479.14 200.42 464.7 205.09 450.26 209.27 435.82 212.32 421.38 213.76 406.94 213.37 392.51 211.22 378.07 207.62 363.63 203.15 349.19 198.5 334.75 194.39 320.31 191.46 305.88 190.17 291.44 201.92 288.18 214.2 284.41 227.05 279.97 240.5 274.78 254.55 268.77 269.18 261.9 284.32 254.2 299.88 245.7 315.74 236.49 331.78 226.68 347.82 216.4 363.71 205.81 379.28 195.07 394.35 184.34 415.63 168.65 422.47 163.53" stroke-dasharray="4 2" transform="rotate(32.32, 400, 400)" opacity="0.70"></path><path d="M420.71 176.01Q430.93 179.83 440.33 184 448.98 188.64 456.95 193.85 464.35 199.7 471.32 206.25 478 213.53 484.59 221.53 491.27 230.23 498.24 239.56 505.67 249.44 513.77 259.76 522.68 270.37 532.54 281.14 543.46 291.91 555.52 302.51 560.75 316.26 569.62 330.01 580.9 343.76 593.03 357.51 604.33 371.26 613.21 385.01 618.46 398.76 619.33 412.5 615.71 426.25 608.11 440 597.57 453.75 585.56 467.5 573.75 481.25 563.78 495 557.04 508.75 554.46 522.5 543.79 524.09 534.2 525.23 518.03 527.09 503.75 529.6 490.72 535.33 477.29 544.06 469.9 550.46 461.91 558.11 453.19 566.99 443.69 577.04 433.35 588.15 422.17 600.15 408.8 599.51 394.79 599.16 380.26 598.83 365.36 598.28 350.21 597.27 334.97 595.58 319.78 593.03 304.77 589.46 290.05 584.77 275.72 578.89 261.86 571.82 248.51 563.57 235.72 554.24 223.48 543.94 211.76 532.82 200.54 521.07 201.53 507.34 204.11 493.62 207.92 479.9 212.44 466.17 217.03 452.45 221.06 438.72 223.97 425 225.35 411.27 225.02 397.55 223.01 383.83 219.61 370.1 215.29 356.38 210.66 342.65 206.34 328.93 202.95 315.21 200.95 301.48 211.63 298.07 222.75 294.09 234.37 289.42 246.55 284.02 259.29 277.85 272.61 270.9 286.48 263.2 300.84 254.81 315.62 245.81 330.72 236.31 346.02 226.42 361.4 216.28 376.7 206.03 391.79 195.82 406.5 185.77 420.71 176.01 420.71 176.01 420.71 176.01" stroke-dasharray="10 8" transform="rotate(36.36, 400, 400)" opacity="0.66"></path><path d="M416.41 188.49Q432.35 196.03 446.77 204.81 453.35 210.13 459.78 216.08 466.2 222.68 472.76 229.94 479.62 237.85 486.94 246.36 494.85 255.42 503.48 264.94 512.94 274.83 523.32 284.95 534.66 295.19 547 305.4 553.44 318.26 562.65 331.12 573.5 343.98 584.67 356.84 594.76 369.7 602.55 382.56 607.06 395.42 607.74 408.28 604.52 421.14 597.78 434 588.35 446.86 577.4 459.72 566.28 472.58 556.36 485.44 548.86 498.3 544.69 511.16 533.64 512.34 523.56 513.28 506.41 515.37 491.35 518.43 478.38 524.8 465.73 533.95 459.21 540.35 452.35 547.84 445.03 556.4 437.17 565.96 428.67 576.43 419.49 587.68 405.76 586.99 391.65 586.55 377.27 586.17 362.75 585.63 348.22 584.73 333.8 583.29 319.58 581.16 305.68 578.18 292.16 574.26 279.1 569.33 266.53 563.36 254.48 556.34 242.95 548.33 231.92 539.38 221.36 529.61 211.21 519.15 212.91 506.16 215.97 493.17 220.02 480.17 224.56 467.18 229.03 454.19 232.87 441.2 235.62 428.21 236.94 415.21 236.66 402.22 234.82 389.23 231.64 376.24 227.52 363.25 222.97 350.25 218.54 337.26 214.78 324.27 212.16 311.28 221.81 307.64 231.81 303.41 242.24 298.51 253.14 292.91 264.57 286.62 276.53 279.62 289.03 271.98 302.04 263.74 315.54 254.99 329.47 245.83 343.73 236.36 358.24 226.69 372.88 216.95 387.54 207.26 409.25 193.11 416.41 188.49" stroke-dasharray="9 11" transform="rotate(40.400000000000006, 400, 400)" opacity="0.62"></path><path d="M410.08 200.96Q423.64 207.85 436.41 215.84 448.96 226.29 462.11 238.48 469.33 245.6 477.09 253.3 485.5 261.53 494.63 270.22 504.55 279.3 515.29 288.69 526.87 298.28 539.3 307.96 546.53 319.93 555.77 331.91 566.01 343.88 576.13 355.86 585.05 367.83 591.8 379.81 595.64 391.78 596.16 403.76 593.29 415.74 587.36 427.71 579.01 439.69 569.13 451.66 558.81 463.64 549.16 475.61 541.22 487.59 535.86 499.57 524.57 500.54 514.15 501.45 496.1 503.93 480.17 507.6 466.82 514.53 454.31 524 448.24 530.34 442.08 537.62 435.71 545.82 429.04 554.88 421.96 564.71 414.41 575.2 400.78 574.47 387 573.97 373.18 573.53 359.43 572.99 345.84 572.18 332.5 570.96 319.5 569.17 306.88 566.7 294.7 563.46 282.99 559.38 271.76 554.4 261.01 548.52 250.73 541.75 240.89 534.11 231.44 525.69 222.33 516.56 224.65 504.31 228.1 492.07 232.3 479.83 236.78 467.59 241.07 455.35 244.7 443.11 247.28 430.87 248.53 418.62 248.3 406.38 246.63 394.14 243.7 381.9 239.83 369.66 235.42 357.42 230.98 345.18 229.73 324.87 241.44 312.3 250.73 307.19 260.41 301.43 270.53 295.06 281.12 288.08 292.22 280.54 303.81 272.5 315.9 264.05 328.46 255.26 341.43 246.23 354.77 237.06 368.4 227.84 382.22 218.69 403.11 205.33 410.08 200.96" stroke-dasharray="10 2" transform="rotate(44.44, 400, 400)" opacity="0.58"></path><path d="M402.51 213.43Q414.62 219.7 426.59 226.91 439.29 236.27 452.98 247.15 460.62 253.52 468.84 260.41 477.68 267.79 487.2 275.63 497.42 283.87 508.34 292.45 519.97 301.3 532.27 310.32 539.92 321.42 548.9 332.52 558.37 343.62 567.42 354.72 575.2 365.81 580.97 376.91 584.2 388.01 584.57 399.11 582.05 410.21 576.87 421.31 569.53 432.41 560.73 443.51 551.28 454.61 542.1 465.71 534.03 476.81 527.86 487.91 516.52 488.84 505.91 489.86 496.02 491.08 486.84 492.62 470.72 497.45 456.26 504.15 443.74 514.6 431.83 527.45 425.98 535.26 420.04 543.79 413.93 552.98 407.55 562.73 394.48 561.96 381.47 561.41 368.6 560.93 355.94 560.38 343.58 559.64 331.55 558.58 319.91 557.09 308.69 555.06 297.91 552.41 287.58 549.06 277.69 544.98 268.22 540.12 259.15 534.49 250.44 528.1 242.05 520.97 233.91 513.16 236.76 501.69 240.49 490.22 244.73 478.75 249.1 467.28 253.17 455.8 256.56 444.33 258.95 432.86 260.11 421.39 259.94 409.92 258.45 398.45 255.78 386.98 252.19 375.51 248 364.04 243.63 352.56 241.6 333.27 251.69 320.71 259.91 315.42 268.43 309.56 277.3 303.15 286.58 296.24 296.28 288.87 306.44 281.09 317.05 272.97 328.13 264.59 339.65 256.03 351.59 247.37 363.91 238.7 376.54 230.1 395.97 217.54 402.51 213.43" stroke-dasharray="4 10" transform="rotate(48.48, 400, 400)" opacity="0.54"></path><path d="M394.63 225.91Q406.12 231.56 417.98 238.03 431.19 246.35 445.59 255.98 453.63 261.61 462.21 267.7 471.37 274.25 481.1 281.23 491.43 288.61 502.34 296.33 513.8 304.36 525.77 312.62 533.48 322.85 541.97 333.09 550.54 343.32 558.5 353.56 565.19 363.79 570.07 374.03 572.74 384.26 572.98 394.5 570.77 404.73 566.3 414.97 559.92 425.21 552.17 435.44 543.66 445.68 535.1 455.91 527.18 466.15 520.56 476.39 509.36 477.41 498.75 478.61 488.74 480.1 479.34 481.94 462.56 487.34 447.38 494.47 434.37 504.88 422.29 517.33 416.61 524.72 411.01 532.71 405.42 541.25 399.77 550.26 387.69 549.47 375.82 548.87 364.21 548.35 352.9 547.8 341.95 547.12 331.37 546.2 321.18 544.95 311.41 543.28 302.03 541.13 293.06 538.42 284.46 535.12 276.21 531.17 268.28 526.57 260.63 521.32 251.22 506.81 253.11 487.52 257.31 476.83 261.49 466.15 265.29 455.46 268.42 444.78 270.62 434.1 271.7 423.41 271.58 412.73 270.27 402.05 267.88 391.36 264.59 380.68 260.69 370 256.48 359.32 253.9 341.08 262.56 328.59 269.8 323.17 277.26 317.26 284.98 310.9 293.01 304.12 301.39 296.97 310.14 289.5 319.3 281.76 328.87 273.83 338.87 265.77 349.28 257.65 360.09 249.53 371.27 241.49 388.71 229.75 394.63 225.91" stroke-dasharray="2 4" transform="rotate(52.52, 400, 400)" opacity="0.51"></path><path d="M387.41 238.38Q398.91 243.45 411.11 249.21 424.96 256.54 440.03 264.98 448.36 269.9 457.16 275.22 466.44 280.96 476.2 287.08 486.43 293.58 497.1 300.43 508.18 307.58 519.63 314.99 527.1 324.38 534.9 333.76 542.51 343.15 549.38 352.54 555.04 361.92 559.09 371.31 561.26 380.69 561.39 390.08 559.48 399.46 555.65 408.85 550.17 418.23 543.43 427.62 535.9 437 528.09 446.39 520.55 455.77 513.81 465.16 502.96 466.37 492.55 467.82 482.61 469.59 473.16 471.73 464.2 474.31 455.74 477.36 440.45 485.33 426.46 495.01 420.12 500.85 414.1 507.25 408.33 514.19 402.76 521.62 397.34 529.51 392.01 537.78 381.26 536.99 370.8 536.36 360.66 535.8 350.86 535.25 341.41 534.6 332.33 533.79 315.42 531.19 299.54 527.48 285.15 521.42 271.46 513.78 263.48 501.39 265.95 483.9 270.02 474.03 273.94 464.15 277.45 454.27 280.3 444.39 282.29 434.51 283.29 424.63 283.22 414.75 282.09 404.87 279.98 394.99 277.03 385.11 273.46 375.24 269.5 365.36 266.61 348.22 274.05 335.9 280.41 330.43 286.91 324.55 293.59 318.31 300.49 311.73 307.65 304.86 315.1 297.75 322.87 290.44 330.98 282.98 339.46 275.45 348.31 267.88 357.53 260.33 367.14 252.87 382.25 241.96 387.41 238.38" stroke-dasharray="4 4" transform="rotate(56.56, 400, 400)" opacity="0.47"></path><path d="M381.73 250.86Q393.48 255.27 406.35 260.46 420.57 266.69 436.27 274.16 453.53 283 472.3 293.24 492.43 304.83 513.7 317.6 527.63 334.7 540.03 351.8 548.04 368.9 549.81 385.99 544.92 403.09 534.52 420.19 521 437.28 507.47 454.38 487.12 457.57 468.16 462.02 450.74 468.05 434.91 475.88 420.63 485.6 407.75 497.2 396.04 510.52 385.23 525.3 367.12 523.86 350.28 522.72 334.71 521.39 320.37 519.38 307.1 516.27 294.7 511.72 282.93 505.49 271.53 497.46 278.99 479.34 286.44 461.23 292.18 443.11 294.87 424.99 293.9 406.87 289.48 388.75 282.65 370.63 274.96 352.51 286.1 342.64 297.36 331.43 309.03 319.07 321.38 305.84 334.66 292.06 349.07 278.07 364.74 264.23 381.73 250.86 381.73 250.86 381.73 250.86" stroke-dasharray="4 11" transform="rotate(60.599999999999994, 400, 400)" opacity="0.43"></path><path d="M378.32 263.34Q390.54 267.23 403.86 271.75 418.39 277.13 434.14 283.52 451.09 291.03 469.14 299.73 488.11 309.6 507.79 320.57 520.09 336.03 530.46 351.48 536.92 366.94 538.22 382.4 534.12 397.86 525.41 413.31 513.74 428.77 501.36 444.22 482.27 447.94 464.14 452.85 447.13 459.16 431.35 466.97 416.84 476.33 403.56 487.19 391.42 499.43 380.27 512.83 365.34 511.4 351.51 510.25 338.71 509.01 326.84 507.32 315.72 504.85 305.18 501.32 294.99 496.53 284.95 490.32 292.17 473.86 298.98 457.4 304.07 440.94 306.46 424.48 305.7 408.02 301.93 391.56 295.88 375.1 288.7 358.64 298.64 348.78 308.53 337.88 318.56 326.14 328.98 313.77 339.98 301.04 351.77 288.22 364.51 275.57 378.32 263.34 378.32 263.34 378.32 263.34" stroke-dasharray="3 4" transform="rotate(64.64, 400, 400)" opacity="0.39"></path><path d="M377.57 275.81Q390.11 279.2 403.59 283.11 418.03 287.69 433.38 293.07 449.56 299.35 466.46 306.6 483.91 314.83 501.73 324.02 512.22 337.86 520.65 351.71 525.72 365.56 526.63 379.41 523.25 393.25 516.09 407.1 506.27 420.95 495.33 434.8 477.8 438.98 460.87 444.22 444.69 450.64 429.38 458.29 415.02 467.16 401.64 477.21 389.23 488.33 377.75 500.35 365.81 498.95 354.72 497.81 344.37 496.64 334.63 495.2 325.36 493.24 316.39 490.55 307.57 486.93 298.72 482.26 305.48 467.47 311.54 452.69 315.96 437.9 318.05 423.12 317.49 408.33 314.36 393.55 309.15 378.77 302.68 363.98 311.58 354.35 320.29 343.96 328.97 332.97 337.78 321.57 346.88 309.96 356.45 298.33 372.1 281.35 377.57 275.81" stroke-dasharray="0 10" transform="rotate(68.68, 400, 400)" opacity="0.35"></path><path d="M379.58 288.28Q392.08 291.2 405.28 294.53 419.14 298.36 433.61 302.82 448.59 307.97 463.97 313.88 479.61 320.58 495.39 328.07 503.99 340.34 510.62 352.6 514.46 364.87 515.04 377.13 512.3 389.4 506.55 401.66 498.52 413.93 489.2 426.2 473.48 430.72 458.08 436.14 443.12 442.51 428.72 449.83 414.95 458.1 401.88 467.26 389.55 477.22 377.96 487.88 360.11 485.43 343.62 483.08 328.22 479.15 312.77 473.37 318.86 460.26 324.1 447.16 327.84 434.06 329.64 420.96 329.26 407.86 326.75 394.76 322.42 381.66 316.81 368.56 324.79 359.37 332.51 349.67 340.07 339.58 347.58 329.24 355.16 318.8 362.94 308.41 375.31 293.24 379.58 288.28" stroke-dasharray="1 9" transform="rotate(72.72, 400, 400)" opacity="0.32"></path><path d="M384.11 300.76Q396.07 303.23 408.48 306 421.29 309.16 434.43 312.78 447.82 316.91 461.38 321.61 475.01 326.91 488.61 332.82 495.35 343.53 500.35 354.24 503.14 364.94 503.46 375.65 501.27 386.36 496.8 397.07 490.45 407.78 482.82 418.49 469.1 423.19 455.49 428.6 442.09 434.73 429 441.58 416.27 449.13 403.98 457.33 392.18 466.11 380.89 475.41 366.92 473.09 353.59 470.95 336.36 460.13 336.63 440.9 339.72 429.49 341.22 418.07 341 406.66 339.08 395.24 335.63 383.83 330.99 372.41 338.13 363.89 344.99 355.05 351.63 345.99 358.11 336.8 364.51 327.59 370.93 318.45 380.77 305.12 384.11 300.76" stroke-dasharray="2 5" transform="rotate(76.76, 400, 400)" opacity="0.28"></path><path d="M390.6 313.23Q401.5 315.28 412.63 317.54 423.94 320.08 435.38 322.94 446.9 326.16 458.43 329.79 469.92 333.84 481.29 338.34 486.27 347.51 489.84 356.68 491.75 365.85 491.87 375.02 490.18 384.19 486.81 393.36 482 402.52 476.06 411.69 464.44 416.37 452.81 421.57 441.25 427.29 429.79 433.52 418.51 440.24 407.45 447.41 388.63 458.38 375.13 460.76 355.76 457.01 341.31 453.5 345.63 443.77 349.13 434.03 351.58 424.3 352.81 414.57 352.73 404.83 351.34 395.1 348.74 385.36 345.12 375.63 351.46 367.98 357.53 360.16 363.38 352.24 369.03 344.27 374.52 336.33 379.92 328.47 387.93 316.99 390.6 313.23" stroke-dasharray="3 8" transform="rotate(80.80000000000001, 400, 400)" opacity="0.24"></path><path d="M398.25 325.71Q417.05 329.15 436.01 333.31 454.86 338.42 473.33 344.67 479.11 359.96 480.28 375.24 476.61 390.53 468.8 405.82 449.78 415.04 430.66 425.64 411.7 437.51 393.16 450.45 384.32 448.51 375.26 446.81 365.74 445.02 355.59 442.8 361.58 426.68 364.4 410.55 363.5 394.42 359.06 378.29 369.91 365.03 379.95 351.66 393.79 332.08 398.25 325.71" stroke-dasharray="10 8" transform="rotate(84.84, 400, 400)" opacity="0.20"></path><path d="M406.1 338.18Q421.07 340.81 435.9 343.88 450.48 347.51 464.65 351.82 468.16 364.08 468.69 376.33 466.18 388.58 460.94 400.83 446.16 408.95 431.15 417.91 416.05 427.62 400.99 437.98 386 434.85 369.71 431.8 373.95 418.98 375.99 406.16 375.55 393.34 372.71 380.52 381.91 369.73 390.51 358.98 402.32 343.3 406.1 338.18" stroke-dasharray="4 8" transform="rotate(88.88, 400, 400)" opacity="0.16"></path><path d="M413.21 350.66Q424.05 352.54 434.7 354.65 451.05 363.03 457.11 378.23 455.54 387.45 452.4 396.67 441.74 403.27 430.86 410.3 419.83 417.73 408.69 425.51 391.42 417.05 387.57 401.56 387.48 392.01 385.96 382.46 393.32 374.33 400.31 366.27 410.07 354.51 413.21 350.66" stroke-dasharray="5 6" transform="rotate(92.92, 400, 400)" opacity="0.13"></path><path d="M418.69 363.13Q432.14 365.61 445.01 368.55 445.52 380.89 443.13 393.23 429.45 402.82 415.33 413.03 402.83 404.06 398.7 384.27 413.87 368.33 418.69 363.13" stroke-dasharray="7 10" transform="rotate(96.96, 400, 400)" opacity="0.09"></path></g></svg>