<svg xmlns="http://www.w3.org/2000/svg" version="1.1" xmlns:xlink="http://www.w3.org/1999/xlink" xmlns:svgjs="http://svgjs.dev/svgjs" viewBox="0 0 800 800" opacity="0.73"><g stroke-width="2" stroke="#e0cde4" fill="none" stroke-linecap="round"><path d="M392.25 73.85Q405.61 81.59 419.31 89.09 433.14 96.22 446.89 102.88 460.35 108.98 473.29 114.45 485.53 119.27 496.88 123.42 507.2 126.96 516.4 129.92 538.13 137.35 548.72 142.46 558.73 155.13 567.97 167.82 573.68 174.66 580.67 182.2 589.08 190.34 598.97 198.96 610.33 207.88 623.1 216.95 637.16 225.97 652.31 234.76 668.3 243.13 684.86 250.93 700.14 261.58 713.05 272.23 721.41 282.88 723.82 293.53 719.88 304.18 710.24 314.83 696.53 325.48 681.05 336.13 666.4 346.78 655.05 357.43 648.89 368.08 648.96 378.74 655.26 389.39 666.72 400.04 681.42 410.69 696.89 421.34 710.52 431.99 720.04 442.64 723.84 453.29 721.27 463.94 712.79 474.59 699.79 485.24 684.49 495.9 669.43 506.55 657.16 517.2 649.73 527.85 648.4 538.5 653.38 549.15 663.84 559.8 678.03 570.45 686.47 589.17 665.99 587 653.92 585.57 640.65 584.8 626.4 585 611.42 586.4 595.98 589.2 580.39 593.53 564.92 599.45 549.85 606.94 535.43 615.9 521.88 626.18 509.37 637.54 498.02 649.7 487.89 662.33 478.99 675.09 471.29 687.61 464.69 699.53 459.05 710.53 454.21 720.33 446.11 734.56 438.42 743.76 429.24 744.96 418.1 742.4 405.72 729.28 392.87 716.05 379.73 703.08 366.49 690.75 353.36 679.38 340.51 669.26 328.09 660.6 316.25 653.57 305.07 648.22 294.62 644.55 276.37 642.41 260.24 643.83 246.78 648.14 234.21 652.13 221.78 652.37 208.7 648.83 201.54 644.47 193.92 638.56 185.81 631.13 177.23 622.33 168.17 612.33 158.71 601.38 148.88 589.76 138.78 577.79 128.48 565.79 118.09 554.09 115.41 543.9 112.49 533.72 109.82 523.54 107.85 513.35 106.91 503.17 107.16 492.99 108.56 482.8 110.87 472.62 113.7 462.43 116.58 452.25 119.03 442.07 120.62 431.88 121.11 421.7 120.39 411.52 118.6 401.33 116.03 391.15 113.12 380.97 110.36 370.78 108.2 360.6 107.02 350.42 107 340.23 108.16 330.05 110.3 319.87 113.06 309.68 115.97 299.5 118.55 289.32 120.36 279.13 121.1 268.95 120.65 258.77 119.08 248.58 127.26 228.68 142.9 223.04 158.23 217.86 174.58 210.54 183.54 205.48 193.03 199.62 203.05 193.01 213.59 185.72 224.62 177.89 236.06 169.64 247.83 161.14 259.8 152.54 271.84 144.02 283.82 135.72 295.57 127.8 306.97 120.37 317.86 113.54 328.13 107.35 337.69 101.85 346.47 97.04 361.19 89.54 373.64 83.49 387.78 76.27 392.25 73.85" stroke-dasharray="0 1" transform="rotate(0, 400, 400)" opacity="1.00"></path><path d="M403.5 86.7Q416.57 94.24 429.49 101.55 442.09 108.51 454.18 115.03 465.6 121.02 476.2 126.42 485.88 131.2 494.55 135.35 515.6 144.94 526.25 149.97 536.51 157.53 545.44 165.16 550.66 169.64 556.98 174.87 564.53 180.84 573.38 187.54 583.55 194.9 595.03 202.82 607.73 211.18 621.51 219.85 636.19 228.67 651.55 237.45 667.34 246.04 683.28 254.27 696.69 264.45 706.72 274.63 711.82 284.81 711.2 294.99 704.95 305.16 694.03 315.34 680.16 325.52 665.49 335.7 652.29 345.88 642.62 356.06 637.99 366.24 639.11 376.41 645.81 386.59 657.05 396.77 671.08 406.95 685.72 417.13 698.69 427.31 707.97 437.48 712.13 447.66 710.51 457.84 703.37 468.02 691.82 478.2 677.65 488.38 663.07 498.56 650.34 508.74 641.45 518.91 637.77 529.09 639.88 539.27 647.45 549.45 659.31 559.63 660.5 573.87 637.48 572.62 625.45 573.89 612.43 576.43 598.62 580.35 584.24 585.71 569.55 592.51 554.79 600.68 540.21 610.11 526.04 620.6 512.48 631.93 499.73 643.82 487.9 655.97 477.11 668.08 467.42 679.81 458.82 690.87 451.28 700.99 444.72 709.93 434.36 722.77 425.64 730.98 417.79 731.96 409.32 729.54 396.4 717.03 383.46 704.4 370.68 691.99 358.21 680.12 346.21 669.09 334.79 659.15 324.03 650.51 314 643.32 304.71 637.65 296.17 633.53 281.41 630.24 268.28 630.48 256.73 634.17 245.35 638.15 233.1 639.66 219.75 638.18 212.3 635.24 204.35 630.9 195.92 625.13 187.04 617.99 177.74 609.6 168.11 600.11 158.2 589.74 148.1 578.72 137.91 567.35 127.7 555.89 124.7 546 121.74 536.11 119.28 526.22 117.72 516.33 117.28 506.44 118.04 496.55 119.88 486.66 122.52 476.78 125.53 466.89 128.47 457 130.86 447.11 132.34 437.22 132.67 427.33 131.81 417.44 129.89 407.55 127.2 397.66 124.17 387.78 121.27 377.89 118.94 368 117.56 358.11 117.32 348.22 118.28 338.33 120.28 328.44 123.02 318.55 126.05 308.67 128.93 298.78 131.19 288.89 132.48 279 132.61 269.11 131.55 259.22 139.55 239.83 154.2 233.78 168.03 227.54 182.57 219.08 190.45 213.51 198.81 207.21 207.67 200.26 217.07 192.76 227 184.83 237.44 176.62 248.34 168.26 259.63 159.92 271.21 151.74 282.96 143.86 294.77 136.4 306.49 129.45 317.98 123.1 329.1 117.39 339.74 112.34 349.76 107.93 367.27 101.08 382.42 95.57 398.67 88.94 403.5 86.7" stroke-dasharray="10 11" transform="rotate(4.04, 400, 400)" opacity="0.96"></path><path d="M413.87 99.56Q425.56 106.89 436.73 114 447.25 120.78 457.02 127.15 465.94 133.03 473.95 138.36 486.79 146.94 497.07 153.77 514.01 163.66 523.66 168.71 535.04 174.66 549.57 182.45 558.85 187.56 569.31 193.37 580.89 199.86 593.49 206.98 606.99 214.63 621.21 222.71 635.94 231.1 650.96 239.64 666.02 248.19 680.87 256.59 691.78 266.29 698.7 275.98 700.64 285.67 697.32 295.37 689.22 305.06 677.51 314.76 663.85 324.45 650.22 334.14 638.56 343.84 630.55 353.53 627.34 363.23 629.39 372.92 636.4 382.61 647.37 392.31 660.73 402 674.55 411.7 686.87 421.39 695.89 431.08 700.35 440.78 699.59 450.47 693.72 460.16 683.59 469.86 670.64 479.55 656.75 489.25 643.89 498.94 633.92 508.63 628.26 518.33 627.73 528.02 632.4 537.71 641.6 547.41 648.16 560.86 631.08 561.55 621.43 563.94 610.68 567.58 598.94 572.52 586.37 578.78 573.15 586.31 559.48 595 545.57 604.72 531.63 615.27 517.87 626.42 504.49 637.92 491.66 649.5 479.54 660.89 468.24 671.81 457.85 682.01 448.42 691.26 439.96 699.36 426.23 710.88 414.87 718.18 406.19 718.95 398.18 716.69 385.83 704.77 373.86 692.74 362.39 680.89 351.52 669.49 341.32 658.82 331.83 649.09 323.08 640.51 315.05 633.21 301.22 623.46 288.97 617.8 270.33 619.99 256.72 624.04 244.04 626.42 230.02 626.56 222.16 624.86 213.82 621.93 205.05 617.72 195.89 612.22 186.41 605.47 176.68 597.57 166.78 588.66 156.79 578.91 146.79 568.54 136.86 557.77 133.73 548.18 130.91 538.59 128.83 529 127.77 519.42 127.89 509.83 129.17 500.24 131.43 490.65 134.34 481.06 137.49 471.47 140.42 461.88 142.72 452.3 144.05 442.71 144.22 433.12 143.21 423.53 141.16 413.94 138.38 404.35 135.25 394.76 132.22 385.17 129.74 375.58 128.15 366 127.68 356.41 128.41 346.82 130.22 337.23 132.86 327.64 135.95 318.05 139.05 308.46 141.7 298.87 143.53 289.28 144.28 279.69 143.84 270.11 152.17 250.81 166.16 243.94 178.77 236.51 191.72 226.91 198.62 220.87 205.87 214.21 213.56 207.01 221.74 199.39 230.43 191.47 239.66 183.38 249.41 175.26 259.66 167.24 270.35 159.46 281.41 152.03 292.74 145.06 304.25 138.61 315.8 132.75 327.27 127.52 338.52 122.9 349.44 118.89 359.89 115.44 369.78 112.48 387.12 107.78 402.19 103.68 411.13 100.62 413.87 99.56" stroke-dasharray="2 7" transform="rotate(8.08, 400, 400)" opacity="0.92"></path><path d="M420.74 112.42Q430.3 119.53 439.14 126.44 447.22 133.04 454.5 139.26 466.26 149.99 475.85 159.08 492.86 171.85 502.62 176.33 513.58 179.68 527.32 184.03 535.96 187.03 545.64 190.64 556.34 194.89 567.98 199.8 580.46 205.39 593.64 211.62 607.36 218.44 621.44 225.78 635.67 233.54 649.84 241.61 663.73 249.86 677.13 258.16 685.13 267.37 688.88 276.57 687.91 285.77 682.33 294.98 672.88 304.18 660.81 313.39 647.71 322.59 635.3 331.79 625.23 341 618.82 350.2 616.92 359.4 619.78 368.61 627.01 377.81 637.67 387.01 650.35 396.22 663.38 405.42 675.04 414.62 683.8 423.83 688.49 433.03 688.5 442.23 683.83 451.44 675.09 460.64 663.44 469.84 650.41 479.05 637.72 488.25 627.05 497.45 619.8 506.66 616.92 515.86 618.8 525.06 625.19 534.27 623.76 551.89 605.6 559.82 596.15 565.67 585.74 572.67 574.48 580.75 562.5 589.79 549.97 599.62 537.06 610.07 523.94 620.91 510.79 631.93 497.79 642.86 485.11 653.49 472.9 663.58 461.29 672.91 450.38 681.31 440.26 688.62 430.97 694.72 422.54 699.55 408.55 704.74 396.76 706.4 391.91 705.47 387.49 703.82 376.69 692.5 366.52 681.06 357.02 669.76 348.22 658.84 340.14 648.54 332.74 639.07 325.98 630.58 319.79 623.23 308.95 612.88 298.96 606.29 281.44 606.67 267.63 609.9 254.1 612.76 239.13 614.1 230.83 613.41 222.13 611.71 213.07 608.9 203.72 604.93 194.15 599.8 184.44 593.52 174.66 586.19 164.89 577.91 155.21 568.83 145.67 559.13 142.61 549.86 140.13 540.58 138.55 531.31 138.09 522.03 138.8 512.76 140.59 503.48 143.22 494.2 146.35 484.93 149.56 475.65 152.43 466.38 154.59 457.1 155.74 447.82 155.74 438.55 154.58 429.27 152.42 420 149.55 410.72 146.33 401.44 143.21 392.17 140.58 382.89 138.79 373.62 138.09 364.34 138.56 355.06 140.14 345.79 142.62 336.51 145.68 327.24 148.91 317.96 151.89 308.68 154.22 299.41 155.59 290.13 155.83 280.86 157.34 266.22 166.3 258.94 178.56 252.98 190.36 245.02 202.13 233.72 214.37 220.67 220.97 213.33 227.95 205.69 235.38 197.87 243.3 189.99 251.74 182.17 260.7 174.55 270.17 167.21 280.13 160.28 290.53 153.81 301.28 147.88 312.32 142.52 323.53 137.75 334.81 133.57 346.04 129.94 357.09 126.83 367.85 124.16 378.2 121.86 388.03 119.84 413.1 114.3 420.74 112.42" stroke-dasharray="7 10" transform="rotate(12.12, 400, 400)" opacity="0.89"></path><path d="M422.36 125.28Q436.02 138.86 446.9 151.33 455.38 162.12 462.13 170.88 468.13 177.51 474.5 182.22 482.39 185.48 492.8 188.01 506.49 190.62 523.82 194.18 544.71 199.43 568.61 206.91 594.59 216.89 621.36 229.28 647.51 243.65 671.61 259.3 677.27 276.73 666.4 294.16 644.1 311.6 620.81 329.03 607.45 346.46 610.27 363.89 627.95 381.33 652.21 398.76 671.69 416.19 677.25 433.62 666.3 451.05 643.96 468.48 620.7 485.92 607.41 503.35 617.67 528.4 621.62 535.28 616.5 537.33 608.54 543.12 597.01 553.14 581.65 567.3 562.68 584.96 540.76 604.95 516.86 625.8 492.15 645.87 467.82 663.6 444.97 677.72 424.43 687.42 406.73 692.49 391.99 693.34 379.97 690.97 363.35 669.37 349.4 648.19 337.78 629.08 327.89 613.39 318.96 601.98 310.15 595.13 300.67 592.5 289.9 593.19 277.39 595.88 263 599.01 246.82 600.97 229.17 600.37 210.54 596.17 191.48 587.84 172.56 575.41 154.26 559.46 149.52 541.57 148.74 523.67 152.29 505.78 158.51 487.89 164.48 470 167.41 452.11 165.92 434.21 160.72 416.32 154.23 398.43 149.5 380.54 148.75 362.65 152.32 344.75 158.55 326.86 164.51 308.97 167.42 291.08 165.9 273.18 179.24 268.69 191.39 261.78 202.63 252.28 213.4 240.4 224.27 226.62 235.87 211.7 248.78 196.49 263.44 181.87 280.12 168.61 298.79 157.26 319.17 148.09 340.72 141.07 362.67 135.9 384.16 132.02 404.31 128.73 422.36 125.28 422.36 125.28 422.36 125.28" stroke-dasharray="2 5" transform="rotate(16.16, 400, 400)" opacity="0.85"></path><path d="M418.33 138.13Q427.95 151.26 435.66 163.36 442.13 173.93 448.23 182.61 454.9 189.29 463.1 194.1 473.63 197.42 487.08 199.82 503.74 202.02 523.52 204.78 545.96 208.83 570.28 214.76 595.43 222.92 620.22 233.42 643.45 246.07 664.02 260.38 663.95 276.85 649.76 293.33 627.53 309.8 606.78 326.28 596.41 342.76 600.85 359.23 618.21 375.71 641.04 392.18 659.57 408.66 665.86 425.13 657.21 441.61 637.33 458.08 614.73 474.56 599.11 491.03 601.43 515.19 602.46 523.9 598.66 528.02 593.17 535.82 585.1 547.45 573.85 562.57 559.25 580.4 541.47 599.82 521.04 619.49 498.77 637.99 475.62 654.05 452.59 666.66 430.62 675.22 410.49 679.62 392.71 680.3 377.51 678.11 365.28 657.67 355.11 637.53 346.37 619.13 338.33 603.66 330.23 591.94 321.35 584.32 311.14 580.63 299.23 580.23 285.48 582.09 269.97 584.92 253 587.35 235 588.07 216.48 586.01 197.98 580.46 179.97 571.15 162.83 558.27 159.21 541.08 159.78 523.89 164.29 506.7 170.81 489.52 176.55 472.33 179.05 455.14 177.24 437.95 171.89 420.76 165.29 403.57 160.28 386.38 159 369.19 161.99 352 167.98 334.81 174.4 317.62 178.5 300.43 178.52 283.24 191.98 277.42 204.17 269.2 215.25 258.65 225.51 246.1 235.39 232.14 245.45 217.49 256.27 202.95 268.36 189.27 282.16 177.07 297.91 166.77 315.61 158.54 335.03 152.29 355.72 147.69 377.03 144.23 398.17 141.27 418.33 138.13 418.33 138.13 418.33 138.13" stroke-dasharray="5 4" transform="rotate(20.200000000000003, 400, 400)" opacity="0.81"></path><path d="M409.68 150.99Q416.69 163.65 422.96 175.37 429.22 185.69 436.29 194.29 444.91 201.01 455.72 205.95 469.16 209.36 485.41 211.73 504.34 213.65 525.56 215.8 548.39 218.85 571.97 223.37 595.3 229.82 617.37 238.42 637.26 249.16 654.22 261.78 649.1 277.33 632.63 292.88 611.23 308.43 593.25 323.98 585.7 339.52 591.52 355.07 608.45 370.62 629.87 386.17 647.45 401.71 654.32 417.26 647.8 432.81 630.45 448.36 609.01 463.9 591.86 479.45 585.68 495 592.88 510.54 583.78 515.59 576.03 529.75 570.43 542.64 562.56 558.33 551.93 576 538.36 594.6 521.98 612.94 503.2 629.83 482.64 644.26 461.09 655.43 439.37 662.93 418.3 666.74 398.58 667.25 380.72 665.26 372.04 645.95 364.44 626.85 357.21 609.2 349.67 594.04 341.22 582.13 331.38 573.85 319.85 569.18 306.55 567.69 291.56 568.6 275.16 570.89 257.74 573.41 239.78 574.98 221.78 574.59 204.18 571.42 187.35 565 171.55 555.23 169.31 538.79 171.24 522.35 176.57 505.91 183.24 489.47 188.63 473.03 190.66 456.59 188.52 440.15 183.06 423.7 176.39 407.26 171.13 390.82 169.32 374.38 171.67 357.94 177.26 341.5 183.91 325.05 189.04 308.61 190.63 292.17 204.27 284.97 216.69 275.56 227.88 264.15 238.02 251.2 247.4 237.31 256.45 223.15 265.69 209.44 275.63 196.78 286.78 185.68 299.53 176.43 314.13 169.11 330.63 163.6 348.88 159.55 368.52 156.48 389.01 153.83 409.68 150.99 409.68 150.99 409.68 150.99" stroke-dasharray="10 8" transform="rotate(24.24, 400, 400)" opacity="0.77"></path><path d="M398.57 163.84Q404.78 176.02 411.34 187.35 418.91 197.41 428.07 205.9 439.3 212.66 452.87 217.72 468.87 221.28 487.15 223.7 507.32 225.48 528.8 227.19 550.87 229.42 572.69 232.75 593.43 237.63 612.31 244.4 628.71 253.17 642.2 263.88 632.95 278.54 615.25 293.2 595.34 307.86 580.25 322.51 575.31 337.17 582.26 351.83 598.66 366.48 618.7 381.14 635.32 395.8 642.64 410.45 638.08 425.11 623.25 439.77 603.39 454.42 585.51 469.08 575.92 483.73 578 498.39 566.26 507.24 558.04 524.81 553.86 538.57 548.37 554.45 540.95 571.65 531.16 589.21 518.84 606.11 504.03 621.39 487.02 634.23 468.28 644.05 448.42 650.57 428.1 653.83 408.02 654.22 388.81 652.4 382.2 634.21 375.62 616.16 368.46 599.28 360.22 584.51 350.53 572.52 339.18 563.72 326.13 558.17 311.5 555.62 295.56 555.52 278.67 557.07 261.28 559.35 243.82 561.35 226.74 562.12 210.36 560.86 194.95 556.97 180.64 550.14 179.94 534.49 183.14 518.84 189.11 503.19 195.75 487.55 200.7 471.9 202.22 456.25 199.78 440.6 194.23 424.96 187.53 409.31 182.06 393.66 179.73 378.01 181.38 362.36 186.42 346.72 193.07 331.07 198.99 315.42 202.07 299.77 215.92 291.27 228.65 280.86 240.16 268.87 250.49 255.8 259.81 242.23 268.41 228.77 276.68 216.01 285.07 204.46 294.08 194.48 304.16 186.26 315.69 179.83 328.93 175 344 171.46 360.82 168.77 379.15 166.4 398.57 163.84 398.57 163.84 398.57 163.84" stroke-dasharray="7 9" transform="rotate(28.28, 400, 400)" opacity="0.73"></path><path d="M387.83 176.7Q394.86 188.38 403.06 199.29 412.87 209.07 424.59 217.42 438.39 224.2 454.25 229.39 471.97 233.12 491.2 235.67 511.42 237.42 532.01 238.86 552.3 240.49 571.58 242.85 589.24 246.38 604.75 251.45 617.75 258.3 628.1 267.01 615.81 280.81 597.86 294.62 579.96 308.43 567.78 322.23 565.21 336.04 573.06 349.84 588.84 363.65 607.53 377.46 623.18 391.26 630.83 405.07 628.04 418.88 615.7 432.68 597.73 446.49 579.84 460.3 567.73 474.1 565.23 487.91 556.21 492.21 549.41 499.13 544.29 508.74 540.2 520.86 536.43 535.08 532.25 550.79 527.03 567.24 520.22 583.58 511.45 598.97 500.51 612.64 487.39 623.97 472.26 632.53 455.44 638.15 437.39 640.92 418.62 641.19 399.71 639.55 393.51 622.46 386.47 605.45 378.2 589.39 368.44 575.08 357.06 563.12 344.09 553.92 329.68 547.61 314.09 544.08 297.69 542.94 280.86 543.61 264.02 545.38 247.54 547.4 231.74 548.86 216.85 548.99 203.02 547.16 190.26 542.92 191.16 528.11 195.49 513.3 201.89 498.48 208.32 483.67 212.73 468.86 213.73 454.04 211 439.23 205.4 424.42 198.71 409.6 193.07 394.79 190.26 379.98 191.18 365.16 195.53 350.35 201.94 335.54 208.36 320.73 212.75 305.91 226.75 296.31 239.79 285.18 251.73 272.92 262.48 260.02 272.1 247.01 280.73 234.42 288.64 222.73 296.17 212.33 303.74 203.47 311.77 196.27 320.68 190.67 330.86 186.49 342.57 183.43 355.98 181.08 379.47 177.84 387.83 176.7" stroke-dasharray="3 3" transform="rotate(32.32, 400, 400)" opacity="0.70"></path><path d="M380.16 189.56Q389.12 200.73 399.64 211.21 411.9 220.68 425.94 228.88 441.67 235.66 458.87 240.97 477.19 244.88 496.17 247.61 515.29 249.44 533.99 250.76 551.72 251.99 567.98 253.61 582.36 256.02 594.58 259.62 604.51 264.69 612.19 271.41 598.02 284.41 580.71 297.41 565.18 310.4 555.87 323.4 555.4 336.4 563.92 349.4 579 362.39 596.36 375.39 611.05 388.39 618.9 401.39 617.68 414.38 607.73 427.38 591.88 440.38 574.64 453.38 560.92 466.38 554.61 479.38 543.83 485.56 535.28 494.12 528.63 504.93 523.45 517.71 519.22 532 515.34 547.21 511.23 562.65 506.36 577.64 500.27 591.48 492.59 603.57 483.11 613.46 471.76 620.85 458.59 625.65 443.81 627.98 427.71 628.15 410.7 626.68 403.47 610.69 394.89 594.71 384.82 579.49 373.23 565.71 360.19 553.89 345.89 544.43 330.6 537.49 314.66 533.06 298.42 530.91 282.25 530.63 266.47 531.67 251.37 533.38 237.16 535.08 223.95 536.09 207.4 527.77 208.26 505.8 214.85 491.85 220.91 477.91 224.72 463.97 225.19 450.02 222.18 436.08 216.57 422.13 209.93 408.19 204.16 394.25 200.9 380.3 201.08 366.36 204.64 352.41 210.58 338.47 217.2 324.53 222.62 310.58 236.64 300.17 249.92 288.66 262.27 276.45 273.55 264 283.7 251.78 292.76 240.22 300.85 229.68 308.18 220.46 315.07 212.71 321.84 206.47 328.9 201.66 336.62 198.09 345.35 195.47 355.4 193.44 373.56 190.58 380.16 189.56" stroke-dasharray="9 9" transform="rotate(36.36, 400, 400)" opacity="0.66"></path><path d="M377.5 202.42Q388.75 213.06 401.5 223.09 415.72 232.23 431.25 240.24 447.86 246.99 465.22 252.4 482.91 256.51 500.52 259.45 517.59 261.44 533.69 262.78 548.43 263.81 561.5 264.92 572.71 266.49 581.95 268.87 589.28 272.39 594.85 277.27 579.92 289.5 563.99 301.72 551.1 313.95 544.49 326.18 545.85 338.4 554.82 350.63 569.13 362.86 585.19 375.09 598.92 387.31 606.86 399.54 607 411.77 599.31 424 585.73 436.22 569.69 448.45 555.24 460.68 546.04 472.91 533.79 480.74 523.57 490.56 515.26 502.15 508.62 515.17 503.29 529.15 498.87 543.55 494.88 557.81 490.86 571.34 486.37 583.62 480.99 594.19 474.41 602.73 466.39 609.05 456.81 613.11 445.64 615.04 432.97 615.14 418.98 613.83 409.84 598.9 399.27 583.96 387.32 569.61 374.13 556.42 359.9 544.84 344.9 535.24 329.45 527.82 313.86 522.61 298.45 519.5 283.49 518.24 269.22 518.42 255.82 519.55 243.38 521.11 231.93 522.5 218.47 516.4 221.41 496.57 227.96 483.52 233.5 470.47 236.63 457.42 236.58 444.37 233.34 431.32 227.74 418.27 221.19 405.22 215.34 392.17 211.68 379.12 211.13 366.07 213.83 353.02 219.09 339.97 225.59 326.92 231.68 313.87 245.54 303.01 258.9 291.46 271.57 279.63 283.35 267.9 294.12 256.66 303.82 246.24 312.47 236.91 320.16 228.86 333.29 217.48 345.67 209.78 368.78 204.16 377.5 202.42" stroke-dasharray="4 10" transform="rotate(40.400000000000006, 400, 400)" opacity="0.62"></path><path d="M380.52 215.27Q393.64 225.37 407.89 234.93 423.07 243.72 438.94 251.52 455.2 258.2 471.52 263.69 487.53 267.98 502.89 271.16 517.27 273.37 530.39 274.84 542.03 275.84 552.05 276.67 564.17 287.82 547.92 307.62 537.76 319.11 533.65 330.6 536.53 342.09 545.74 353.58 559.24 365.07 574.02 376.56 586.79 388.05 594.71 399.54 596.01 411.03 590.41 422.52 579.15 434.01 564.74 445.5 550.38 456.99 539.28 468.48 525.97 477.58 514.38 488.22 504.51 500.15 496.29 512.98 489.52 526.31 483.97 539.67 479.3 552.59 475.17 564.62 471.2 575.36 467.02 584.48 456.19 596.13 442.2 602.09 432.99 602.13 422.46 600.97 411.28 587.1 398.92 573.19 385.57 559.72 371.45 547.17 356.81 535.94 341.94 526.33 327.1 518.56 312.57 512.71 298.57 508.75 285.28 506.52 272.84 505.76 261.31 506.14 250.71 507.22 241 508.57 230.36 503.91 234.87 485.95 241.14 473.8 246.03 461.66 248.46 449.52 247.9 437.38 244.45 425.23 238.91 413.09 232.48 400.95 226.62 388.81 222.62 376.66 221.37 364.52 223.15 352.38 227.57 340.24 233.64 328.1 240.01 315.96 253.49 305.04 266.72 293.84 279.49 282.68 291.63 271.9 302.95 261.78 313.35 252.58 322.76 244.47 331.17 237.57 344.95 227.99 356.85 221.57 374.28 216.78 380.52 215.27" stroke-dasharray="10 10" transform="rotate(44.44, 400, 400)" opacity="0.58"></path><path d="M388.47 228.13Q402.47 237.67 417.05 246.74 431.96 255.14 446.95 262.7 461.73 269.28 476.04 274.81 489.6 279.26 502.19 282.68 513.62 285.16 523.74 286.85 545.59 297.18 532.66 315.06 525.19 325.83 523.33 336.61 527.42 347.38 536.68 358.16 549.31 368.94 562.85 379.71 574.66 390.49 582.46 401.27 584.73 412.04 581.02 422.82 572.05 433.6 559.58 444.37 546.02 455.15 534.01 465.93 520.13 475.83 507.58 486.84 496.46 498.65 486.8 510.93 478.54 523.33 471.57 535.45 465.71 546.94 460.73 557.45 452.38 573.64 444.16 585.04 433.54 588.49 420.26 588.12 407.58 575.29 394.19 562.39 380.32 549.83 366.2 537.98 352.07 527.17 338.16 517.68 324.67 509.71 311.78 503.36 299.62 498.67 288.29 495.55 277.81 493.85 268.2 493.35 246.95 490.2 248.56 474.37 254.33 463.13 258.47 451.9 260.19 440.67 259.14 429.44 255.54 418.21 250.08 406.98 243.82 395.75 237.99 384.52 233.71 373.29 231.81 362.06 232.68 350.82 236.13 339.59 241.49 328.36 247.73 317.13 260.6 306.56 273.44 296.03 286.06 285.81 298.3 276.15 309.98 267.26 320.95 259.31 331.1 252.42 340.35 246.63 355.67 238.71 368.52 233.45 383.57 229.42 388.47 228.13" stroke-dasharray="5 7" transform="rotate(48.48, 400, 400)" opacity="0.54"></path><path d="M399.32 240.98Q412.97 249.95 426.63 258.51 440.11 266.5 453.19 273.78 465.66 280.22 477.35 285.75 488.11 290.33 497.8 293.97 513.23 298.37 525.34 300.87 530.18 307.91 518.33 323.85 513.42 333.93 513.48 344 518.5 354.08 527.63 364.16 539.35 374.24 551.68 384.32 562.55 394.39 570.13 404.47 573.16 414.55 571.11 424.63 564.35 434.71 553.99 444.79 541.79 454.86 529.79 464.94 515.86 475.17 502.86 486.06 490.94 497.36 480.18 508.77 470.63 520 462.26 530.76 455.03 540.77 448.81 549.79 439.01 563.41 430.61 572.86 422.35 575.64 412.95 575.26 399.78 563.46 386.41 551.58 373.06 539.93 359.91 528.82 347.14 518.52 334.89 509.27 323.29 501.24 312.42 494.56 302.34 489.28 293.04 485.38 277.02 481.86 262.85 481.24 256.47 477.33 262.38 462.33 267.46 452 270.78 441.67 271.79 431.35 270.3 421.02 266.58 410.69 261.25 400.37 255.2 390.04 249.45 379.71 244.96 369.39 242.5 359.06 242.47 348.73 244.88 338.41 249.32 328.08 255.05 317.76 267.08 307.89 279.25 298.31 291.42 289.23 303.45 280.82 315.17 273.21 326.44 266.52 337.13 260.79 347.12 256.04 364.28 249.65 378.94 245.42 394.61 242.08 399.32 240.98" stroke-dasharray="2 8" transform="rotate(52.52, 400, 400)" opacity="0.51"></path><path d="M410.35 253.84Q422.47 262.21 434.21 270.25 445.41 277.8 455.95 284.76 465.72 291.01 474.62 296.49 489.19 304.58 501.02 310.29 512.51 318.99 505.02 333.74 502.43 343.12 504.08 352.51 509.74 361.89 518.59 371.28 529.36 380.66 540.51 390.04 550.44 399.43 557.73 408.81 561.32 418.2 560.7 427.58 555.97 436.97 547.8 446.35 537.36 455.74 526.15 465.12 512.68 475.18 499.77 485.54 487.56 495.98 476.19 506.27 465.74 516.18 456.26 525.5 447.77 534.03 440.25 541.61 428.18 552.86 418.18 560.57 410.17 562.78 402.37 562.41 389.87 551.61 377.61 540.73 365.73 530 354.34 519.68 343.54 509.96 333.4 501.06 323.97 493.12 315.25 486.26 300.19 476.6 286.9 470.36 273.21 464.32 276.21 450.35 280.46 440.92 282.93 431.48 283.25 422.04 281.38 412.61 277.59 403.17 272.42 393.73 266.61 384.29 261.01 374.86 256.4 365.42 253.45 355.98 252.59 346.54 253.94 337.11 257.31 327.67 262.2 318.23 273.17 309.37 284.42 300.97 295.84 293.16 307.31 286.05 318.71 279.74 329.91 274.26 340.78 269.63 351.2 265.84 361.07 262.82 370.3 260.51 386.21 257.65 399.86 255.7 407.88 254.35 410.35 253.84" stroke-dasharray="7 9" transform="rotate(56.56, 400, 400)" opacity="0.47"></path><path d="M418.76 266.7Q437.79 281.95 454.21 295.64 467.68 307.03 478.2 315.69 491.99 323.96 503.69 326.99 492.77 344.36 495.08 361.74 509.52 379.11 529.34 396.48 545.25 413.85 549.8 431.22 540.85 448.59 522.61 465.97 497.71 484.89 474.33 503.2 453.38 519.57 435.42 532.9 420.61 542.51 408.73 548.18 399.19 550.25 391.18 549.54 370.05 529.85 351.12 510.54 334.7 493.02 320.74 478.44 308.93 467.49 298.67 460.4 289.24 456.85 279.87 456.09 289.94 438.95 294.87 421.81 292.36 404.68 283.59 387.54 272.66 370.4 264.69 353.26 263.42 336.13 269.44 318.99 289.3 304.26 310.28 291.99 331.69 282.57 352.72 276.02 372.56 271.95 390.48 269.67 412.36 267.48 418.76 266.7" stroke-dasharray="10 8" transform="rotate(60.599999999999994, 400, 400)" opacity="0.43"></path><path d="M422.43 279.56Q436.31 293.61 447.83 306.4 457.07 317.35 464.37 326.04 475.74 335.43 487.86 339.36 481.61 355.31 486.43 371.26 500.44 387.22 518.17 403.17 532.72 419.12 538.41 435.07 533.02 451.02 518.65 466.97 496.02 483.79 473.88 499.41 453.03 512.93 434.13 523.68 417.58 531.28 403.52 535.71 391.86 537.29 382.22 536.69 365.75 518.95 351.48 501.42 339.32 485.15 328.97 471.05 319.96 459.75 311.71 451.57 303.6 446.46 295.04 444.05 303.42 428.6 306.57 413.14 303.25 397.69 294.76 382.24 284.4 366.78 276.23 351.33 273.41 335.88 277.06 320.42 294.3 308.4 312.88 298.72 332.35 291.49 352.18 286.58 371.72 283.59 390.32 281.91 414.9 280.19 422.43 279.56" stroke-dasharray="8 4" transform="rotate(64.64, 400, 400)" opacity="0.39"></path><path d="M420.43 292.41Q429.82 305.23 437.56 317.06 443.93 327.44 449.39 336.03 460.25 346.43 473.63 351.64 471.48 366.14 478.07 380.63 491.31 395.13 507 409.62 520.14 424.12 526.56 438.61 524.22 453.11 513.86 467.61 494.07 481.9 474.03 494.72 454.39 505.52 435.71 513.93 418.47 519.78 402.98 523.15 389.41 524.33 377.75 523.83 365.98 508.01 355.91 492.28 347.25 477.4 339.62 464.05 332.56 452.76 325.59 443.87 318.25 437.49 310.16 433.49 316.56 419.67 318 405.85 314.04 392.02 305.93 378.2 296.24 364.38 288.06 350.56 283.99 336.74 285.32 322.92 299.82 313.6 315.66 306.32 332.63 301.03 350.41 297.52 368.57 295.42 386.62 294.25 412.25 292.93 420.43 292.41" stroke-dasharray="11 8" transform="rotate(68.68, 400, 400)" opacity="0.35"></path><path d="M413.27 305.27Q419.5 316.82 424.9 327.61 429.83 337.29 434.66 345.61 446.26 356.79 461.16 363.42 462.31 376.41 469.95 389.4 482.15 402.4 495.83 415.39 507.52 428.39 514.29 441.38 514.41 454.38 507.86 467.37 491.22 478.94 473.93 489.03 456.4 497.33 439.09 503.68 422.38 508.04 406.62 510.52 392.07 511.38 378.91 510.98 371.03 497.05 364.15 483.13 357.92 469.74 352.01 457.38 346.07 446.46 339.76 437.28 332.79 430.01 324.95 424.69 329.22 412.45 329.14 400.21 324.73 387.97 317.1 375.73 308.17 363.49 300.21 351.25 295.22 339.01 294.47 326.78 306.25 319.98 319.22 314.82 333.33 311.17 348.43 308.81 364.28 307.43 380.61 306.66 405.17 305.67 413.27 305.27" stroke-dasharray="8 11" transform="rotate(72.72, 400, 400)" opacity="0.32"></path><path d="M402.76 318.12Q407.34 328.36 411.81 338.04 416.43 346.92 421.46 354.8 434.33 366.38 450.45 374.27 454 385.72 462.01 397.16 472.94 408.61 484.66 420.06 494.88 431.51 501.63 442.96 503.59 454.41 500.38 465.86 486.98 474.72 472.77 482.26 458 488.35 442.95 492.94 427.91 496.07 413.14 497.83 398.9 498.43 385.38 498.12 380.13 486.06 375.18 473.94 370.28 462.13 365.19 450.97 359.7 440.75 353.61 431.71 346.78 424.02 339.1 417.79 341.32 407.09 339.97 396.39 335.31 385.69 328.27 374.99 320.19 364.3 312.66 353.6 310.52 335.26 324.08 324.24 335.23 321.91 347.32 320.45 360.28 319.62 373.96 319.15 395.48 318.43 402.76 318.12" stroke-dasharray="8 6" transform="rotate(76.76, 400, 400)" opacity="0.28"></path><path d="M391.55 330.98Q395.76 339.87 400.28 348.37 405.27 356.31 410.87 363.56 417.2 370.01 424.36 375.56 432.42 380.18 441.43 383.86 446.4 393.72 454.19 403.58 463.68 413.44 473.49 423.3 482.23 433.16 488.64 443.02 491.8 452.87 491.26 462.73 480.96 469.09 469.88 474.39 458.17 478.62 445.96 481.77 433.43 483.89 420.74 485.09 408.06 485.49 395.55 485.27 391.56 475.03 387.41 464.72 382.95 454.56 378.06 444.76 372.62 435.53 366.56 427.04 359.82 419.42 352.37 412.79 352.76 403.6 350.46 394.42 345.8 385.24 339.44 376.05 332.3 366.87 325.4 357.68 330.2 337.86 348.09 332.4 357.94 331.97 368.51 331.7 385.64 331.21 391.55 330.98" stroke-dasharray="3 9" transform="rotate(80.80000000000001, 400, 400)" opacity="0.24"></path><path d="M382.47 343.84Q392 358.59 403.54 371.92 417.46 383.17 433.88 391.92 446.43 408.39 462.32 424.86 475.36 441.33 480.45 457.8 464.79 465.46 446.92 470.19 427.38 472.31 406.85 472.4 399.01 455.45 389.52 438.7 378.06 423.13 364.53 409.56 360.62 394.19 350.61 378.82 338.81 354.52 351.49 344.62 374.17 344.08 382.47 343.84" stroke-dasharray="1 1" transform="rotate(84.84, 400, 400)" opacity="0.20"></path><path d="M377.82 356.7Q387.99 368.7 399.66 379.87 412.86 389.83 427.52 398.3 438.66 411.48 451.15 424.65 459.55 446.66 444.97 458.26 431.27 459.49 416.41 459.55 408.22 446.12 398.67 432.7 387.71 419.79 375.43 407.86 370.43 395.48 361.78 383.1 368.38 358.61 377.82 356.7" stroke-dasharray="0 2" transform="rotate(88.88, 400, 400)" opacity="0.16"></path><path d="M378.77 369.55Q388.44 378.71 398.91 387.44 410.12 395.57 421.99 402.96 430.83 412.81 439.98 422.66 439.44 442.62 421.82 446.69 413.76 436.73 404.9 426.71 395.29 416.83 385 407.31 379.9 397.95 372.95 388.58 373.48 370.82 378.77 369.55" stroke-dasharray="4 8" transform="rotate(92.92, 400, 400)" opacity="0.13"></path><path d="M385.09 382.41Q400.53 394.64 416.91 406 418.99 423.48 393.28 407.5 383.34 385.54 385.09 382.41" stroke-dasharray="9 0" transform="rotate(96.96, 400, 400)" opacity="0.09"></path></g></svg>