<svg xmlns="http://www.w3.org/2000/svg" version="1.1" xmlns:xlink="http://www.w3.org/1999/xlink" xmlns:svgjs="http://svgjs.dev/svgjs" viewBox="0 0 1422 800"><defs><linearGradient x1="50%" y1="0%" x2="50%" y2="100%" id="ccchaos-grad"><stop stop-color="#bb86fc" stop-opacity="1" offset="0%"></stop><stop stop-color="#FFFDD0" stop-opacity="1" offset="100%"></stop></linearGradient></defs><g stroke-width="2" stroke="url(#ccchaos-grad)" fill="none" stroke-linecap="round"><path d="M688.83 65.29Q697.99 68.5 707.55 71.83 717.52 75.32 727.89 79.04 738.66 83.02 749.79 87.31 761.28 91.93 773.07 96.92 785.14 102.28 797.43 108.03 809.9 114.15 822.47 120.64 835.1 127.45 847.72 134.56 860.26 141.92 872.65 149.48 884.83 157.18 896.73 164.94 908.29 172.71 919.46 180.4 930.18 187.96 940.41 195.3 950.11 202.37 959.25 209.12 967.81 215.47 975.79 221.41 989.73 231.67 1002.03 240.5 1005.04 250.99 993.04 268.45 983.56 279.03 974.97 289.6 967.84 300.18 962.64 310.75 959.71 321.33 959.25 331.91 961.29 342.48 965.69 353.06 972.17 363.63 980.28 374.21 989.51 384.79 999.23 395.36 1008.8 405.94 1017.59 416.51 1025.02 427.09 1030.59 437.67 1033.94 448.24 1034.84 458.82 1033.24 469.4 1029.24 479.97 1023.1 490.55 1015.23 501.12 1006.16 511.7 996.48 522.28 986.84 532.85 977.86 543.43 970.16 554.01 964.23 564.58 960.47 575.16 959.12 585.74 950.93 594.56 943.35 602.78 936.32 610.32 929.81 617.09 918.29 627.74 907.77 635.85 891.03 641.19 878.85 642.23 867.87 641.56 855.87 641.2 841.8 642.75 826.35 646.2 817.8 649.28 808.8 653.26 799.35 658.18 789.48 664.05 779.22 670.86 768.61 678.57 757.7 687.14 746.52 696.48 735.13 706.49 723.58 717.03 709.15 718.57 693.67 720.03 685.3 720.33 676.58 720.15 667.51 719.37 658.12 717.88 648.42 715.59 638.45 712.43 628.24 708.37 617.82 703.37 607.24 697.45 596.52 690.65 585.72 683 574.88 674.58 564.03 665.5 553.22 655.86 542.47 645.78 531.82 635.4 521.31 624.86 510.95 614.31 500.77 603.88 490.77 593.72 480.98 583.94 471.39 574.68 462.01 566.02 452.82 558.06 443.83 550.87 435.02 544.47 422.24 531.57 418.82 514.3 419.93 504.36 421.38 494.43 423.07 484.49 424.89 474.55 426.71 464.62 428.42 454.68 429.9 444.74 431.05 434.81 431.81 424.87 432.11 414.93 431.94 405 431.31 395.06 430.26 385.13 428.86 375.19 427.21 365.25 425.41 355.32 423.58 345.38 421.84 335.44 420.31 325.51 419.09 315.57 418.27 305.63 417.88 295.7 417.97 285.76 418.52 275.83 419.5 265.89 420.84 255.95 422.46 246.02 424.24 236.08 426.07 226.14 427.84 216.21 437.84 211.1 447.88 206.48 457.93 202.33 467.97 198.6 477.97 195.26 487.89 192.23 497.69 189.47 507.37 186.9 516.87 184.45 526.19 182.04 535.29 179.6 544.17 177.06 552.79 174.35 561.17 171.41 577.02 164.45 592.12 156.41 606.16 146.4 619.71 135.22 626.29 128.99 632.82 122.46 639.34 115.66 645.91 108.64 652.56 101.47 659.36 94.2 666.34 86.89 673.55 79.6 684.93 68.84 688.83 65.29" stroke-dasharray="4 6" transform="rotate(0, 711, 400)" opacity="0.10"></path><path d="M691.15 77.82Q700.83 80.84 710.86 83.97 721.24 87.26 731.94 90.76 742.95 94.5 754.22 98.53 765.74 102.88 777.44 107.57 789.3 112.62 801.26 118.03 813.26 123.8 825.25 129.93 837.18 136.38 848.98 143.13 860.6 150.15 871.99 157.38 883.08 164.78 893.84 172.28 904.21 179.83 914.15 187.35 923.63 194.8 932.62 202.09 941.1 209.18 949.06 216 956.5 222.5 963.41 228.63 975.51 239.44 986.26 248.92 988.56 259.74 977.01 276.83 968.4 287.05 960.87 297.27 954.87 307.49 950.79 317.71 948.85 327.93 949.2 338.15 951.79 348.37 956.48 358.59 962.98 368.81 970.88 379.03 979.72 389.25 988.93 399.47 997.97 409.69 1006.27 419.91 1013.33 430.13 1018.72 440.35 1022.1 450.57 1023.28 460.79 1022.17 471.01 1018.84 481.23 1013.5 491.45 1006.48 501.67 998.21 511.89 989.19 522.11 979.97 532.33 971.12 542.55 963.18 552.77 956.64 562.99 951.89 573.21 949.24 583.43 940.62 591.17 932.57 598.26 918.32 609.91 905.5 619.27 887.13 627.02 875.01 629.5 858.05 628.96 845.04 628.9 832.88 631.02 819.61 635.03 812.26 638.32 804.5 642.45 796.33 647.44 787.74 653.29 778.75 660 769.39 667.54 759.68 675.83 749.65 684.83 739.33 694.42 728.77 704.5 713.41 705.84 696.99 707.13 688.2 707.41 679.09 707.28 669.68 706.62 660.01 705.35 650.11 703.36 640 700.6 629.73 697.03 619.32 692.61 608.83 687.35 598.28 681.26 587.71 674.37 577.16 666.74 566.67 658.45 556.27 649.58 545.98 640.24 535.83 630.53 525.84 620.58 516.03 610.5 506.41 600.44 496.99 590.5 487.77 580.82 478.75 571.49 469.93 562.63 461.3 554.33 452.85 546.65 444.56 539.66 432.67 525.87 429.91 508.79 431.26 499.24 432.9 489.68 434.74 480.13 436.65 470.58 438.51 461.03 440.23 451.47 441.68 441.92 442.78 432.37 443.47 422.82 443.7 413.26 443.46 403.71 442.76 394.16 441.64 384.61 440.18 375.05 438.46 365.5 436.59 355.95 434.69 346.4 432.86 336.85 431.22 327.29 429.88 317.74 428.9 308.19 428.37 298.64 428.3 289.08 428.7 279.53 429.54 269.98 430.78 260.43 432.34 250.88 434.12 241.32 436.02 231.77 437.91 222.22 447.59 217.89 457.32 213.99 467.09 210.49 476.87 207.35 486.64 204.51 496.36 201.92 506 199.51 515.55 197.22 524.96 194.98 534.22 192.71 543.3 190.37 552.18 187.87 560.84 185.17 569.26 182.22 585.24 175.19 600.46 167.09 614.49 157.1 627.9 146.01 634.31 139.88 640.59 133.46 646.78 126.81 652.92 119.96 659.06 112.98 665.23 105.9 671.48 98.8 677.85 91.72 687.77 81.27 691.15 77.82" stroke-dasharray="7 4" transform="rotate(4.04, 711, 400)" opacity="0.37"></path><path d="M695.45 90.35Q705.47 93.19 715.78 96.12 726.34 99.21 737.13 102.49 748.13 106 759.28 109.78 770.55 113.86 781.91 118.25 793.3 122.99 804.67 128.06 815.99 133.49 827.19 139.25 838.23 145.33 849.06 151.72 859.64 158.37 869.92 165.25 879.86 172.32 889.43 179.53 898.59 186.82 907.33 194.14 915.61 201.42 923.44 208.62 930.8 215.66 937.69 222.51 949.89 235.2 960.84 246.87 970.04 256.54 978.44 264.94 969.72 274.79 961.3 284.64 953.66 294.49 947.22 304.34 942.35 314.19 939.32 324.03 938.31 333.88 939.36 343.73 942.43 353.58 947.34 363.43 953.81 373.28 961.47 383.13 969.9 392.97 978.62 402.82 987.13 412.67 994.95 422.52 1001.65 432.37 1006.85 442.22 1010.24 452.07 1011.65 461.91 1010.99 471.76 1008.29 481.61 1003.72 491.46 997.52 501.31 990.06 511.16 981.74 521 973.04 530.85 964.45 540.7 956.46 550.55 949.51 560.4 944 570.24 940.25 580.09 931.28 586.71 922.83 592.67 907.71 602.18 893.99 609.6 874.45 615.17 861.83 616.72 845.48 616.37 833.48 616.8 822.81 619.49 811.3 624.01 798.16 632.12 783.93 642.58 776.17 649.17 768.05 656.5 759.57 664.52 750.76 673.17 741.62 682.35 732.19 691.97 715.83 693.11 698.53 694.24 689.38 694.5 679.97 694.41 670.34 693.86 660.52 692.78 650.54 691.07 640.43 688.67 630.24 685.55 619.98 681.67 609.71 677.02 599.45 671.6 589.24 665.44 579.11 658.58 569.08 651.07 559.17 642.98 549.42 634.39 539.83 625.39 530.43 616.09 521.21 606.58 512.19 596.97 503.38 587.39 494.76 577.92 486.33 568.68 478.09 559.77 470.01 551.28 462.1 543.27 454.32 535.83 443.32 521.33 441.21 504.47 442.79 495.29 444.6 486.11 446.54 476.93 448.51 467.74 450.4 458.56 452.09 449.38 453.49 440.2 454.53 431.01 455.14 421.83 455.29 412.65 454.97 403.47 454.2 394.28 453.02 385.1 451.51 375.92 449.73 366.74 447.8 357.55 445.83 348.37 443.92 339.19 442.19 330.01 440.72 320.82 439.61 311.64 438.91 302.46 438.68 293.28 438.91 284.09 439.59 274.91 440.69 265.73 442.15 256.54 443.88 247.36 451.44 231.78 466.48 222.14 475.94 219.22 485.43 216.58 494.93 214.17 504.42 211.93 513.87 209.8 523.25 207.72 532.54 205.62 541.71 203.45 550.74 201.15 559.6 198.66 568.28 195.94 576.74 192.95 584.99 189.65 593 186.01 608.17 177.49 622.6 167.88 635.89 156.58 648.57 144.41 654.61 137.91 660.53 131.24 666.36 124.45 672.13 117.58 677.89 110.69 683.67 103.82 692.48 93.69 695.45 90.35" stroke-dasharray="8 3" transform="rotate(8.08, 711, 400)" opacity="0.75"></path><path d="M701.31 102.9Q711.45 105.55 721.78 108.3 732.27 111.18 742.89 114.25 753.61 117.54 764.38 121.07 775.16 124.88 785.92 128.98 796.62 133.4 807.21 138.15 817.65 143.22 827.9 148.62 837.92 154.33 847.68 160.33 857.14 166.61 866.27 173.13 875.04 179.85 883.43 186.73 891.43 193.73 899.03 200.79 906.2 207.87 912.96 214.91 919.32 221.86 925.27 228.67 935.88 241.51 945.49 253.51 953.82 263.76 961.65 272.85 953.56 282.31 946.01 291.77 939.39 301.23 934.06 310.69 930.27 320.15 928.23 329.61 928.05 339.08 929.73 348.54 933.19 358 938.25 367.46 944.64 376.92 952.03 386.38 960.05 395.84 968.27 405.3 976.27 414.76 983.63 424.22 989.98 433.69 994.97 443.15 998.36 452.61 999.97 462.07 999.71 471.53 997.6 480.99 993.75 490.45 988.35 499.91 981.69 509.37 974.12 518.83 966.01 528.29 957.81 537.75 949.92 547.21 942.77 556.67 936.71 566.14 932.07 575.6 922.85 581.1 914.1 585.98 898.21 593.52 883.67 599.19 862.81 603.01 849.46 603.9 833.12 603.92 821.62 604.9 811.97 608.14 801.79 613.12 790.43 621.44 778.22 631.9 771.57 638.35 764.6 645.47 757.3 653.2 749.67 661.49 741.73 670.26 733.49 679.43 725.08 679.85 716.38 680.38 707.44 680.92 698.26 681.36 688.88 681.6 679.32 681.53 669.61 681.08 659.79 680.16 649.89 678.69 639.94 676.63 629.97 673.92 620.02 670.53 610.11 666.45 600.27 661.67 590.53 656.21 580.91 650.08 571.42 643.33 562.1 636.02 552.95 628.19 543.99 619.93 535.21 611.32 526.63 602.44 518.24 593.38 510.04 584.24 502.03 575.12 494.2 566.11 486.53 557.29 479.02 548.76 471.63 540.59 464.37 532.86 454.23 517.86 452.75 501.28 454.52 492.45 456.46 483.63 458.48 474.81 460.48 465.98 462.35 457.16 463.99 448.33 465.32 439.51 466.27 430.68 466.79 421.86 466.86 413.04 466.46 404.21 465.62 395.39 464.39 386.56 462.83 377.74 461.01 368.91 459.04 360.09 457.01 351.27 455.04 342.44 453.21 333.62 451.64 324.79 450.39 315.97 449.54 307.14 449.12 298.32 449.17 289.49 449.67 280.67 450.6 271.85 451.92 263.02 453.55 254.2 460.88 239.47 475.38 230.9 484.49 228.48 493.66 226.26 502.86 224.2 512.08 222.23 521.29 220.3 530.46 218.36 539.59 216.35 548.63 214.21 557.56 211.91 566.37 209.4 575.03 206.64 583.52 203.59 591.82 200.23 599.91 196.55 607.78 192.52 615.43 188.15 622.84 183.43 630.01 178.39 636.94 173.02 643.63 167.37 650.1 161.46 656.36 155.31 668.21 142.44 679.61 129.24 695.91 109.43 701.31 102.9" stroke-dasharray="0 8" transform="rotate(12.12, 711, 400)" opacity="0.69"></path><path d="M708.13 115.43Q728.23 120.47 748.58 126.03 768.92 132.38 788.97 139.75 808.44 148.28 827.08 158.04 844.65 168.99 860.97 181.01 875.88 193.89 889.35 207.33 901.36 221 912 234.5 921.44 247.47 929.9 259.56 937.68 270.48 945.11 280.01 931.21 298.13 921.4 316.25 917.51 334.37 920.28 352.49 929.19 370.61 942.57 388.73 957.9 406.84 972.31 424.96 983.1 443.08 988.24 461.2 986.76 479.32 978.96 497.44 966.28 515.55 951.11 533.67 936.29 551.79 924.61 569.91 906.28 578.22 889.59 584.26 874.55 588.18 861.08 590.29 849.02 591.08 838.15 591.11 828.21 591.04 818.89 591.54 809.88 593.24 800.87 596.71 791.54 602.38 781.63 610.53 770.92 621.26 759.23 634.45 746.45 649.82 732.54 666.9 714.78 667.68 696.3 668.51 677.32 668.67 658.07 667.51 638.78 664.49 619.68 659.22 600.95 651.48 582.77 641.25 565.24 628.68 548.44 614.11 532.39 598.01 517.08 580.98 502.43 563.64 488.36 546.64 474.73 530.61 461.4 516.06 464.52 499.11 468.48 482.16 472.54 465.21 475.93 448.25 478.01 431.3 478.41 414.35 477.03 397.4 474.15 380.45 470.3 363.49 466.2 346.54 462.62 329.59 460.24 312.64 459.5 295.68 460.54 278.73 463.16 261.78 466.88 244.82 484.05 240.21 501.59 236.3 519.35 232.71 537.2 229.05 554.96 224.94 572.46 220.04 589.51 214.1 605.97 206.94 621.68 198.5 636.55 188.79 650.51 177.94 663.55 166.15 675.72 153.69 687.09 140.87 702.98 121.72 708.13 115.43" stroke-dasharray="10 3" transform="rotate(16.16, 711, 400)" opacity="0.52"></path><path d="M715.24 127.96Q734.46 132.65 753.58 137.83 772.38 143.73 790.61 150.56 808.06 158.46 824.54 167.51 839.91 177.69 854.04 188.93 866.88 201.04 878.46 213.8 888.82 226.91 898.11 240.05 906.51 252.87 914.26 265.06 921.64 276.31 928.96 286.39 916.96 303.68 909.25 320.97 907.15 338.26 911.01 355.55 920.17 372.84 933.07 390.13 947.5 407.42 960.99 424.71 971.22 441.99 976.45 459.28 975.79 476.57 969.33 493.86 958.2 511.15 944.29 528.44 929.99 545.72 917.75 563.01 899.28 569.44 882.22 573.91 866.61 576.64 852.45 577.98 839.65 578.4 828.09 578.43 817.56 578.63 807.85 579.59 798.71 581.82 789.85 585.77 781.03 591.79 771.98 600.06 762.47 610.65 752.31 623.43 741.33 638.14 729.43 654.37 711.39 654.98 692.95 655.67 674.31 655.82 655.69 654.85 637.28 652.28 619.26 647.76 601.77 641.05 584.91 632.08 568.75 620.95 553.32 607.89 538.61 593.24 524.55 577.48 511.08 561.14 498.08 544.76 485.43 528.91 472.98 514.08 476.52 497.81 480.65 481.54 484.66 465.28 487.88 449.01 489.74 432.74 489.94 416.47 488.43 400.2 485.47 383.93 481.58 367.66 477.41 351.39 473.68 335.12 471.04 318.85 469.92 302.59 470.53 286.32 472.76 270.05 476.22 253.78 492.54 249.99 509.26 246.62 526.28 243.33 543.48 239.75 560.73 235.58 577.86 230.55 594.71 224.46 611.12 217.19 626.94 208.71 642.06 199.08 656.36 188.42 669.8 176.93 682.36 164.85 694.06 152.48 710.11 134.02 715.24 127.96" stroke-dasharray="2 8" transform="rotate(20.200000000000003, 711, 400)" opacity="0.96"></path><path d="M721.93 140.49Q739.82 144.85 757.34 149.65 774.3 155.11 790.53 161.41 805.87 168.7 820.21 177.05 833.46 186.47 845.59 196.9 856.61 208.22 866.57 220.23 875.6 232.71 883.83 245.36 891.48 257.91 898.77 270.04 905.95 281.48 913.31 291.97 903.31 308.41 897.62 324.85 897.12 341.28 901.88 357.72 911.17 374.16 923.55 390.59 937.08 407.03 949.67 423.46 959.35 439.9 964.62 456.34 964.67 472.77 959.48 489.21 949.86 505.64 937.31 522.08 923.77 538.51 911.36 554.95 892.98 559.73 875.75 562.88 859.77 564.69 845.07 565.49 831.63 565.74 819.38 565.9 808.22 566.46 797.97 567.89 788.45 570.63 779.46 575.02 770.77 581.32 762.16 589.67 753.42 600.07 744.33 612.41 734.73 626.45 724.48 641.83 706.6 642.3 688.61 642.85 670.7 642.97 653.05 642.16 635.8 639.99 619.08 636.13 602.97 630.36 587.54 622.58 572.81 612.82 558.77 601.22 545.37 588.05 532.55 573.66 520.2 558.47 508.22 542.95 496.49 527.57 484.88 512.8 488.74 497.2 492.95 481.61 496.85 466.02 499.84 450.43 501.46 434.84 501.44 419.24 499.8 403.65 496.79 388.06 492.88 372.47 488.67 356.87 484.82 341.28 481.93 325.69 480.45 310.09 480.61 294.5 482.38 278.91 485.48 263.31 500.9 260.15 516.74 257.14 532.93 253.99 549.39 250.39 566 246.09 582.62 240.89 599.12 234.64 615.35 227.28 631.15 218.8 646.41 209.26 661 198.82 674.83 187.65 687.84 175.98 700.02 164.06 716.64 146.32 721.93 140.49" stroke-dasharray="6 1" transform="rotate(24.24, 711, 400)" opacity="0.40"></path><path d="M727.52 153.02Q743.75 157.05 759.42 161.49 774.39 166.52 788.55 172.32 801.82 179.01 814.12 186.67 825.45 195.33 835.83 204.95 845.3 215.44 853.96 226.67 861.94 238.43 869.42 250.5 876.57 262.63 883.61 274.55 890.76 286.01 898.26 296.76 890.29 312.33 886.49 327.9 887.4 343.46 892.89 359.03 902.19 374.59 913.99 390.16 926.63 405.72 938.35 421.29 947.48 436.85 952.75 452.42 953.42 467.98 949.39 483.54 941.23 499.11 930.09 514.67 917.53 530.24 905.32 545.8 887.24 549.2 870.07 551.32 853.93 552.45 838.87 552.94 824.94 553.18 812.1 553.58 800.31 554.55 789.46 556.47 779.44 559.69 770.1 564.46 761.25 570.99 752.72 579.34 744.32 589.52 735.88 601.4 727.22 614.76 718.19 629.3 700.9 629.63 683.77 630.05 666.95 630.13 650.55 629.45 634.68 627.62 619.42 624.36 604.8 619.45 590.86 612.76 577.56 604.28 564.88 594.11 552.76 582.4 541.1 569.43 529.81 555.52 518.78 541.05 507.91 526.4 497.08 512 501.16 497.08 505.36 482.16 509.08 467.24 511.8 452.33 513.15 437.41 512.92 422.49 511.16 407.58 508.11 392.66 504.2 377.74 499.98 362.83 496.04 347.91 492.93 332.99 491.1 318.07 490.8 303.16 492.06 288.24 494.73 273.32 509.19 270.57 524.09 267.75 539.38 264.61 555 260.9 570.85 256.43 586.83 251.04 602.82 244.64 618.7 237.2 634.32 228.74 649.56 219.34 664.3 209.14 678.43 198.32 691.87 187.07 704.55 175.62 721.98 158.61 727.52 153.02" stroke-dasharray="5 3" transform="rotate(28.28, 711, 400)" opacity="0.82"></path><path d="M731.46 165.55Q745.82 169.27 759.52 173.35 772.47 177.97 784.63 183.27 795.96 189.38 806.44 196.37 816.11 204.27 825.01 213.09 833.24 222.74 840.91 233.14 848.14 244.12 855.11 255.51 861.99 267.1 868.95 278.67 876.19 289.98 883.9 300.81 877.92 315.49 875.85 330.17 877.97 344.85 884.01 359.53 893.2 374.21 904.39 388.89 916.16 403.57 927.02 418.25 935.61 432.94 940.83 447.62 942.04 462.3 939.08 476.98 932.31 491.66 922.6 506.34 911.18 521.02 899.47 535.7 881.91 538 865.03 539.36 848.94 540.07 833.75 540.44 819.5 540.81 806.22 541.54 793.9 542.95 782.48 545.35 771.91 549 762.08 554.1 752.88 560.78 744.16 569.09 735.78 579 727.59 590.39 719.43 603.06 711.17 616.77 694.91 616.97 678.99 617.28 663.53 617.32 648.61 616.73 634.27 615.2 620.56 612.47 607.47 608.31 595 602.62 583.11 595.35 571.73 586.52 560.8 576.24 550.22 564.71 539.91 552.16 529.77 538.89 519.69 525.2 509.58 511.45 513.77 497.21 517.85 482.97 521.33 468.74 523.75 454.5 524.81 440.26 524.38 426.02 522.51 411.79 519.43 397.55 515.55 383.31 511.34 369.08 507.34 354.84 504.05 340.6 501.89 326.36 501.13 312.13 501.87 297.89 504.01 283.65 517.48 281.13 531.39 278.35 545.71 275.11 560.4 271.22 575.38 266.53 590.59 260.95 605.91 254.42 621.26 246.92 636.51 238.52 651.55 229.29 666.26 219.37 680.52 208.92 694.25 198.11 707.36 187.15 725.62 170.9 731.46 165.55" stroke-dasharray="4 3" transform="rotate(32.32, 711, 400)" opacity="0.11"></path><path d="M733.36 178.1Q745.77 181.51 757.52 185.24 768.56 189.46 778.88 194.29 788.49 199.83 797.42 206.17 805.72 213.34 813.46 221.35 820.76 230.16 827.71 239.69 834.46 249.85 841.15 260.48 847.92 271.42 854.94 282.48 862.35 293.47 870.3 304.19 866.2 317.98 865.68 331.76 868.81 345.55 875.23 359.34 884.21 373.13 894.75 386.92 905.66 400.71 915.7 414.5 923.74 428.29 928.88 442.08 930.54 455.87 928.53 469.66 923.07 483.45 914.79 497.24 904.61 511.03 893.69 524.82 876.83 526.3 860.45 527.16 844.65 527.66 829.54 528.07 815.2 528.69 801.66 529.8 788.96 531.67 777.08 534.52 766 538.56 755.66 543.92 745.99 550.69 736.91 558.9 728.3 568.49 720.04 579.36 712.03 591.35 704.13 604.23 689.23 604.31 674.81 604.51 660.91 604.51 647.59 604 634.86 602.73 622.71 600.44 611.13 596.97 600.08 592.18 589.51 586 579.34 578.44 569.51 569.54 559.93 559.44 550.5 548.29 541.15 536.32 531.79 523.78 522.34 510.92 526.52 497.37 530.41 483.83 533.58 470.28 535.66 456.73 536.43 443.18 535.8 429.64 533.83 416.09 530.76 402.54 526.92 388.99 522.75 375.45 518.72 361.9 515.28 348.35 512.82 334.81 511.63 321.26 511.83 307.71 513.39 294.16 525.86 291.69 538.74 288.82 552.03 285.4 565.71 281.28 579.72 276.37 594.02 270.61 608.54 263.97 623.18 256.47 637.86 248.16 652.49 239.14 666.94 229.53 681.13 219.47 694.95 209.13 708.32 198.68 727.25 183.19 733.36 178.1" stroke-dasharray="10 3" transform="rotate(36.36, 711, 400)" opacity="0.26"></path><path d="M733.02 190.63Q743.56 193.74 753.5 197.15 762.82 200.98 771.56 205.35 779.74 210.35 787.41 216.06 794.65 222.51 801.55 229.73 808.19 237.7 814.69 246.36 821.17 255.65 827.75 265.45 834.55 275.64 841.7 286.07 849.31 296.58 857.49 307 855.13 319.9 855.96 332.79 859.88 345.69 866.52 358.58 875.21 371.48 885.08 384.37 895.13 397.27 904.38 410.17 911.88 423.06 916.9 435.96 918.93 448.85 917.76 461.75 913.52 474.65 906.62 487.54 897.76 500.44 887.83 513.33 871.85 514.28 856.15 514.87 840.86 515.35 826.07 515.95 811.85 516.9 798.28 518.43 785.39 520.74 773.21 524 761.73 528.37 750.95 533.92 740.82 540.72 731.3 548.77 722.32 558.01 713.8 568.35 705.65 579.64 697.79 591.7 684.49 591.68 671.72 591.77 659.49 591.72 647.81 591.28 636.66 590.21 626.04 588.32 615.89 585.45 606.16 581.46 596.79 576.28 587.72 569.88 578.88 562.29 570.17 553.57 561.54 543.83 552.9 533.23 544.18 521.94 535.33 510.18 539.38 497.34 542.99 484.49 545.81 471.65 547.54 458.81 548.01 445.96 547.19 433.12 545.14 420.27 542.08 407.43 538.31 394.59 534.2 381.74 530.18 368.9 526.63 356.06 523.92 343.21 522.32 330.37 521.98 317.53 522.95 304.68 534.39 302.11 546.22 299.05 558.44 295.39 571.05 291.03 584.02 285.9 597.31 279.98 610.87 273.27 624.65 265.8 638.58 257.63 652.57 248.86 666.54 239.59 680.4 229.96 694.07 220.1 707.45 210.16 726.73 195.46 733.02 190.63" stroke-dasharray="11 7" transform="rotate(40.400000000000006, 711, 400)" opacity="0.54"></path><path d="M730.47 203.16Q739.33 205.99 747.69 209.09 762.83 216.76 776.82 226.06 783.3 231.83 789.62 238.27 795.86 245.41 802.12 253.2 808.5 261.59 815.1 270.52 822 279.88 829.31 289.56 837.12 299.45 845.49 309.39 844.69 321.39 846.63 333.4 851.16 345.4 857.88 357.41 866.19 369.41 875.36 381.42 884.58 393.42 893.06 405.43 900.03 417.43 904.88 429.44 907.2 441.44 906.77 453.45 903.63 465.45 898.06 477.46 890.55 489.47 881.76 501.47 866.79 502.12 851.96 502.66 837.37 503.28 823.11 504.16 809.26 505.49 795.88 507.44 783.03 510.17 770.75 513.8 759.05 518.42 747.96 524.1 737.46 530.86 727.54 538.7 718.16 547.55 709.27 557.33 700.83 567.92 692.76 579.16 681.19 579.05 670.12 579.06 659.55 578.96 649.47 578.56 639.84 577.66 630.62 576.11 621.77 573.74 613.23 570.46 604.94 566.17 596.83 560.84 588.84 554.46 580.91 547.05 572.97 538.69 564.95 529.48 556.81 519.53 548.49 509.01 552.31 496.89 555.57 484.76 557.99 472.64 559.36 460.52 559.54 448.39 558.54 436.27 556.43 424.15 553.4 412.02 549.72 399.9 545.71 387.78 541.72 375.65 538.11 363.53 535.19 351.41 533.23 339.29 532.38 327.16 532.73 315.04 543.15 312.27 553.92 308.95 565.05 305.02 576.55 300.41 588.41 295.09 600.61 289.06 613.11 282.32 625.89 274.94 638.88 266.96 652.04 258.47 665.3 249.58 678.58 240.39 691.82 231.04 704.93 221.63 724.16 207.73 730.47 203.16" stroke-dasharray="2 1" transform="rotate(44.44, 711, 400)" opacity="0.61"></path><path d="M725.98 215.69Q740.34 221.21 753.73 227.67 766.02 236.47 778.05 246.98 784.09 253.3 790.27 260.23 796.66 267.72 803.34 275.74 810.38 284.21 817.85 293.06 825.81 302.19 834.31 311.49 834.84 322.62 837.68 333.74 842.61 344.86 849.27 355.98 857.13 367.1 865.59 378.23 874.01 389.35 881.73 400.47 888.18 411.59 892.84 422.72 895.37 433.84 895.57 444.96 893.42 456.08 889.09 467.21 882.92 478.33 875.36 489.45 861.52 490.04 847.7 490.68 833.99 491.55 820.45 492.77 807.18 494.51 794.22 496.87 781.65 499.97 769.5 503.9 757.8 508.71 746.59 514.44 735.88 521.1 725.67 528.67 715.96 537.1 706.72 546.31 697.93 556.19 689.56 566.63 679.7 566.44 670.29 566.36 652.86 565.65 636.46 563.81 621.31 558.81 606.58 551.34 599.33 546.06 592.06 539.89 584.71 532.84 577.24 524.99 569.61 516.41 561.78 507.21 565.27 495.82 568.12 484.44 570.12 473.06 571.11 461.67 571.02 450.29 569.85 438.9 567.7 427.52 564.72 416.14 561.15 404.75 557.26 393.37 553.35 381.99 549.72 370.6 546.64 359.22 544.36 347.84 547.63 329.24 561.93 318.42 571.97 314.22 582.35 309.39 593.06 303.92 604.11 297.82 615.47 291.12 627.13 283.86 639.06 276.12 651.21 267.96 663.55 259.48 676.01 250.77 688.55 241.94 701.1 233.08 719.79 219.99 725.98 215.69" stroke-dasharray="10 3" transform="rotate(48.48, 711, 400)" opacity="0.49"></path><path d="M719.99 228.22Q732.36 233.16 744.2 238.91 755.63 246.65 767.18 255.87 773.16 261.41 779.35 267.48 785.81 274.09 792.6 281.18 799.77 288.73 807.35 296.68 815.38 304.96 823.91 313.49 825.53 323.74 829.04 333.99 834.2 344.24 840.67 354.49 848.03 364.74 855.78 374.99 863.41 385.24 870.41 395.49 876.33 405.75 880.77 416 883.44 426.25 884.16 436.5 882.88 446.75 879.69 457 874.8 467.25 868.53 477.51 855.89 478.2 843.19 479.08 830.49 480.27 817.86 481.88 805.36 484.01 793.04 486.74 780.97 490.16 769.19 494.31 757.73 499.24 746.63 504.95 735.92 511.45 725.61 518.7 715.72 526.67 706.24 535.28 697.17 544.46 688.5 554.1 672.5 553.67 657.44 553.15 643.53 551.21 630.06 547.76 616.84 541.03 603.51 532.06 596.67 526.24 589.68 519.69 582.5 512.46 575.12 504.6 578.19 493.98 580.6 483.35 582.16 472.73 582.79 462.1 582.44 451.48 581.13 440.86 578.95 430.23 576.04 419.61 572.6 408.98 568.86 398.36 565.06 387.73 561.45 377.11 558.27 366.49 555.74 355.86 557.83 338.25 570.33 327.36 579.29 322.92 588.55 317.91 598.12 312.34 607.99 306.24 618.17 299.63 628.64 292.57 639.39 285.12 650.41 277.33 661.65 269.3 673.09 261.09 684.69 252.79 696.41 244.5 714.09 232.25 719.99 228.22" stroke-dasharray="1 8" transform="rotate(52.52, 711, 400)" opacity="0.07"></path><path d="M713.11 240.76Q724.1 245.15 734.94 250.23 745.92 256.97 757.28 264.96 769.67 275.24 782.94 286.92 790.17 293.53 797.79 300.54 805.81 307.9 814.25 315.55 816.73 324.94 820.68 334.34 825.9 343.73 832.09 353.13 838.88 362.52 845.91 371.92 852.78 381.31 859.09 390.7 864.5 400.1 868.69 409.49 871.43 418.89 872.56 428.28 872.03 437.67 869.85 447.07 866.16 456.46 861.17 465.85 849.78 466.78 838.28 467.97 826.7 469.53 815.11 471.52 803.54 474.01 792.06 477.06 780.7 480.72 769.51 485.02 758.53 489.98 747.78 495.6 737.31 501.87 727.14 508.77 717.27 516.25 707.74 524.25 698.54 532.72 689.68 541.57 676.34 541.04 663.6 540.47 651.49 538.86 639.54 536.1 627.48 530.75 615.14 523.58 602.08 513.24 588.44 501.06 591.04 491.22 592.97 481.37 594.1 471.53 594.38 461.68 593.78 451.84 592.36 441.99 590.18 432.14 587.36 422.3 584.08 412.45 580.5 402.61 576.85 392.76 573.31 382.92 570.09 373.07 567.37 363.22 568.41 346.62 579.19 335.73 587.11 331.09 595.28 325.97 603.71 320.37 612.41 314.34 621.39 307.89 630.64 301.09 640.16 293.97 649.95 286.6 659.99 279.04 670.26 271.36 680.73 263.62 691.39 255.9 707.65 244.51 713.11 240.76" stroke-dasharray="2 7" transform="rotate(56.56, 711, 400)" opacity="0.52"></path><path d="M706 253.3Q716.15 257.08 726.44 261.61 737.17 267.25 748.58 274.26 760.92 282.83 774.39 293.01 789.14 304.75 805.28 317.86 812.55 334.96 823.48 352.07 836 369.17 847.77 386.28 856.58 403.38 860.78 420.49 859.58 437.59 853.2 454.69 832.83 457.48 811.99 461.73 790.99 467.83 770.13 476.02 749.68 486.39 729.9 498.87 710.96 513.21 693.01 529.03 681.76 528.41 670.92 527.8 660.24 526.61 649.47 524.27 638.39 520.33 626.83 514.47 614.63 506.52 601.68 496.47 605.2 478.38 605.86 460.29 603.55 442.19 598.69 424.1 592.19 406 585.29 387.91 579.26 369.81 575.25 351.71 588.58 343.45 602.63 333.54 617.52 322.11 633.36 309.4 650.17 295.76 667.94 281.58 686.59 267.28 706 253.3 706 253.3 706 253.3" stroke-dasharray="2 5" transform="rotate(60.599999999999994, 711, 400)" opacity="0.29"></path><path d="M699.4 265.83Q709.08 269.13 719.16 273.05 729.82 277.85 741.24 283.77 753.57 290.96 766.91 299.5 781.34 309.4 796.9 320.57 804.59 336.03 814.83 351.48 826.03 366.94 836.45 382.4 844.47 397.86 848.83 413.31 848.87 428.77 844.57 444.22 826.71 447.7 808.3 452.57 789.54 459.06 770.68 467.31 751.91 477.32 733.45 489.01 715.47 502.17 698.13 516.5 688.56 515.81 679.07 515.18 669.46 514.15 659.58 512.3 649.27 509.27 638.41 504.79 626.92 498.66 614.75 490.81 617.26 474.34 617.24 457.87 614.69 441.4 610.01 424.93 603.93 408.46 597.39 391.99 591.41 375.52 586.92 359.05 598.52 350.5 610.65 340.61 623.45 329.54 636.98 317.51 651.34 304.81 666.54 291.74 682.57 278.64 699.4 265.83 699.4 265.83 699.4 265.83" stroke-dasharray="7 7" transform="rotate(64.64, 711, 400)" opacity="0.46"></path><path d="M693.96 278.36Q703.42 281.22 713.4 284.56 724 288.6 735.33 293.51 747.47 299.43 760.45 306.44 774.31 314.59 789.02 323.84 796.74 337.69 806.13 351.53 816.01 365.37 825.13 379.22 832.33 393.06 836.72 406.9 837.74 420.75 835.25 434.59 819.85 438.69 803.88 444.03 787.49 450.73 770.83 458.85 754.05 468.37 737.31 479.17 720.76 491.11 704.53 503.96 696.16 503.23 687.63 502.58 678.83 501.67 669.63 500.21 659.97 497.92 649.76 494.56 638.97 489.98 627.58 484.05 629.11 469.23 628.49 454.41 625.78 439.59 621.33 424.77 615.7 409.95 609.6 395.13 603.8 380.31 599.04 365.49 609.04 356.86 619.41 347.2 630.25 336.66 641.65 325.44 653.68 313.76 666.39 301.86 679.82 289.98 693.96 278.36 693.96 278.36 693.96 278.36" stroke-dasharray="2 4" transform="rotate(68.68, 711, 400)" opacity="0.31"></path><path d="M690.22 290.89Q699.54 293.33 709.38 296.14 719.8 299.47 730.85 303.47 742.54 308.24 754.9 313.86 767.91 320.39 781.56 327.83 788.96 340.09 797.36 352.35 805.93 364.61 813.8 376.87 820.2 389.13 824.47 401.39 826.2 413.65 825.21 425.91 812.17 430.49 798.61 436.12 784.61 442.84 770.26 450.65 755.68 459.52 740.97 469.37 726.24 480.06 711.58 491.43 695.99 489.94 679.35 488.05 670.27 486.33 660.71 483.88 650.65 480.55 640.09 476.24 640.74 463.08 639.61 449.93 636.82 436.78 632.65 423.63 627.51 410.47 621.92 397.32 616.43 384.17 611.61 371.02 620.14 362.54 628.91 353.31 637.98 343.48 647.43 333.19 657.33 322.62 667.74 311.92 684.46 296.09 690.22 290.89" stroke-dasharray="3 4" transform="rotate(72.72, 711, 400)" opacity="0.36"></path><path d="M688.56 303.42Q697.65 305.46 707.18 307.78 717.19 310.48 727.69 313.67 738.67 317.42 750.13 321.8 762.04 326.86 774.38 332.62 781.19 343.33 788.51 354.03 795.8 364.73 802.48 375.44 808.06 386.14 812.1 396.85 814.28 407.55 814.46 418.26 803.65 423.13 792.39 428.82 780.73 435.34 768.73 442.67 756.45 450.77 743.95 459.57 731.3 468.99 718.58 478.9 704.06 477.46 688.48 475.83 680.02 474.54 671.15 472.78 656.99 463.2 650.6 444.48 647.81 433.01 643.97 421.54 639.36 410.07 634.34 398.59 629.29 387.12 624.6 375.65 631.81 367.57 639.13 358.99 646.63 350.03 654.35 340.79 662.36 331.39 670.71 321.95 683.99 308.01 688.56 303.42" stroke-dasharray="1 1" transform="rotate(76.76, 711, 400)" opacity="0.61"></path><path d="M689.14 315.96Q697.77 317.63 706.74 319.49 716.05 321.63 725.7 324.1 735.67 326.95 745.96 330.25 756.55 334.03 767.39 338.32 773.38 347.49 779.57 356.66 785.61 365.82 791.16 374.99 795.92 384.16 799.61 393.33 798.15 409.54 785.18 422.11 775.75 428.22 766.03 434.9 756.03 442.11 745.81 449.79 735.38 457.91 724.81 466.37 711.26 465 696.8 463.58 680.8 461.2 663.92 457.76 663.19 447.97 661.44 438.18 658.75 428.39 655.29 418.6 651.25 408.8 646.86 399.01 643.17 380.61 650.03 364.28 656.14 356.34 662.36 348.25 668.74 340.09 675.31 331.94 685.62 319.91 689.14 315.96" stroke-dasharray="4 11" transform="rotate(80.80000000000001, 711, 400)" opacity="0.91"></path><path d="M691.91 328.5Q707.85 331.28 724.65 334.75 742.23 339.23 760.47 344.95 770.51 360.25 779.84 375.54 787.02 390.84 790.93 406.13 776.96 415.95 762.02 427.31 746.21 440.02 729.67 453.83 717.34 452.56 704.11 451.34 690.02 449.74 675.13 447.37 672.13 431.14 666.62 414.91 659.45 398.68 651.74 382.44 661.52 369.22 671.35 355.58 686.66 335.19 691.91 328.5" stroke-dasharray="8 7" transform="rotate(84.84, 711, 400)" opacity="0.71"></path><path d="M696.59 341.03Q710.2 343.12 724.27 345.63 738.73 348.72 753.5 352.53 761.33 364.8 768.52 377.06 774.36 389.33 778.26 401.59 767.78 410.28 756.66 419.87 744.93 430.26 732.65 441.29 721.75 440.18 710.28 439.13 698.29 437.95 685.82 436.43 682.67 423.53 677.94 410.62 672.11 397.72 665.78 384.81 673.49 373.88 681.13 362.81 692.69 346.41 696.59 341.03" stroke-dasharray="5 7" transform="rotate(88.88, 711, 400)" opacity="0.43"></path><path d="M702.7 353.56Q713.38 355.04 724.25 356.72 735.26 358.7 746.39 361.03 752.02 370.26 757.2 379.5 759.66 396.88 749.96 412.56 741.89 420.49 733.47 428.76 724.51 427.84 715.25 426.98 699.39 420.82 689.26 405.91 684.84 396.3 680.03 386.69 685.81 378.32 691.49 369.96 699.9 357.62 702.7 353.56" stroke-dasharray="7 10" transform="rotate(92.92, 711, 400)" opacity="0.61"></path><path d="M709.65 366.09Q724.27 368.02 739.03 370.37 745.87 382.75 751.44 395.13 742.04 405.37 732.05 416.23 719 414.93 705.59 413.7 700.58 400.97 694.41 388.25 705.89 371.57 709.65 366.09" stroke-dasharray="6 2" transform="rotate(96.96, 711, 400)" opacity="0.09"></path></g></svg>