<svg xmlns="http://www.w3.org/2000/svg" version="1.1" xmlns:xlink="http://www.w3.org/1999/xlink" xmlns:svgjs="http://svgjs.dev/svgjs" viewBox="0 0 1422 800" opacity="1"><g stroke-width="2" stroke="hsl(265, 55%, 20%)" fill="none" stroke-linecap="round"><path d="M 0 1188 Q 355.5 -100 711 400 Q 1066.5 900 1422 1188"></path><path d="M 0 1155 Q 355.5 -100 711 400 Q 1066.5 900 1422 1155"></path><path d="M 0 1122 Q 355.5 -100 711 400 Q 1066.5 900 1422 1122"></path><path d="M 0 1089 Q 355.5 -100 711 400 Q 1066.5 900 1422 1089"></path><path d="M 0 1056 Q 355.5 -100 711 400 Q 1066.5 900 1422 1056"></path><path d="M 0 1023 Q 355.5 -100 711 400 Q 1066.5 900 1422 1023"></path><path d="M 0 990 Q 355.5 -100 711 400 Q 1066.5 900 1422 990"></path><path d="M 0 957 Q 355.5 -100 711 400 Q 1066.5 900 1422 957"></path><path d="M 0 924 Q 355.5 -100 711 400 Q 1066.5 900 1422 924"></path><path d="M 0 891 Q 355.5 -100 711 400 Q 1066.5 900 1422 891"></path><path d="M 0 858 Q 355.5 -100 711 400 Q 1066.5 900 1422 858"></path><path d="M 0 825 Q 355.5 -100 711 400 Q 1066.5 900 1422 825"></path><path d="M 0 792 Q 355.5 -100 711 400 Q 1066.5 900 1422 792"></path><path d="M 0 759 Q 355.5 -100 711 400 Q 1066.5 900 1422 759"></path><path d="M 0 726 Q 355.5 -100 711 400 Q 1066.5 900 1422 726"></path><path d="M 0 693 Q 355.5 -100 711 400 Q 1066.5 900 1422 693"></path><path d="M 0 660 Q 355.5 -100 711 400 Q 1066.5 900 1422 660"></path><path d="M 0 627 Q 355.5 -100 711 400 Q 1066.5 900 1422 627"></path><path d="M 0 594 Q 355.5 -100 711 400 Q 1066.5 900 1422 594"></path><path d="M 0 561 Q 355.5 -100 711 400 Q 1066.5 900 1422 561"></path><path d="M 0 528 Q 355.5 -100 711 400 Q 1066.5 900 1422 528"></path><path d="M 0 495 Q 355.5 -100 711 400 Q 1066.5 900 1422 495"></path><path d="M 0 462 Q 355.5 -100 711 400 Q 1066.5 900 1422 462"></path><path d="M 0 429 Q 355.5 -100 711 400 Q 1066.5 900 1422 429"></path><path d="M 0 396 Q 355.5 -100 711 400 Q 1066.5 900 1422 396"></path><path d="M 0 363 Q 355.5 -100 711 400 Q 1066.5 900 1422 363"></path><path d="M 0 330 Q 355.5 -100 711 400 Q 1066.5 900 1422 330"></path><path d="M 0 297 Q 355.5 -100 711 400 Q 1066.5 900 1422 297"></path><path d="M 0 264 Q 355.5 -100 711 400 Q 1066.5 900 1422 264"></path><path d="M 0 231 Q 355.5 -100 711 400 Q 1066.5 900 1422 231"></path><path d="M 0 198 Q 355.5 -100 711 400 Q 1066.5 900 1422 198"></path><path d="M 0 165 Q 355.5 -100 711 400 Q 1066.5 900 1422 165"></path><path d="M 0 132 Q 355.5 -100 711 400 Q 1066.5 900 1422 132"></path><path d="M 0 99 Q 355.5 -100 711 400 Q 1066.5 900 1422 99"></path><path d="M 0 66 Q 355.5 -100 711 400 Q 1066.5 900 1422 66"></path></g></svg>