<svg xmlns="http://www.w3.org/2000/svg" version="1.1" xmlns:xlink="http://www.w3.org/1999/xlink" xmlns:svgjs="http://svgjs.dev/svgjs" viewBox="0 0 800 800" opacity="0.39"><g stroke-width="2" stroke="hsl(265, 55%, 20%)" fill="none"><circle r="2754" cx="50%" cy="0"></circle><circle r="2673" cx="50%" cy="0"></circle><circle r="2592" cx="50%" cy="0"></circle><circle r="2511" cx="50%" cy="0"></circle><circle r="2430" cx="50%" cy="0"></circle><circle r="2349" cx="50%" cy="0"></circle><circle r="2268" cx="50%" cy="0"></circle><circle r="2187" cx="50%" cy="0"></circle><circle r="2106" cx="50%" cy="0"></circle><circle r="2025" cx="50%" cy="0"></circle><circle r="1944" cx="50%" cy="0"></circle><circle r="1863" cx="50%" cy="0"></circle><circle r="1782" cx="50%" cy="0"></circle><circle r="1701" cx="50%" cy="0"></circle><circle r="1620" cx="50%" cy="0"></circle><circle r="1539" cx="50%" cy="0"></circle><circle r="1458" cx="50%" cy="0"></circle><circle r="1377" cx="50%" cy="0"></circle><circle r="1296" cx="50%" cy="0"></circle><circle r="1215" cx="50%" cy="0"></circle><circle r="1134" cx="50%" cy="0"></circle><circle r="1053" cx="50%" cy="0"></circle><circle r="972" cx="50%" cy="0"></circle><circle r="891" cx="50%" cy="0"></circle><circle r="810" cx="50%" cy="0"></circle><circle r="729" cx="50%" cy="0"></circle><circle r="648" cx="50%" cy="0"></circle><circle r="567" cx="50%" cy="0"></circle><circle r="486" cx="50%" cy="0"></circle><circle r="405" cx="50%" cy="0"></circle><circle r="324" cx="50%" cy="0"></circle><circle r="243" cx="50%" cy="0"></circle><circle r="162" cx="50%" cy="0"></circle><circle r="81" cx="50%" cy="0"></circle></g><g stroke-width="2" stroke="hsl(265, 55%, 20%)" fill="none"><circle r="2754" cx="50%" cy="100%"></circle><circle r="2673" cx="50%" cy="100%"></circle><circle r="2592" cx="50%" cy="100%"></circle><circle r="2511" cx="50%" cy="100%"></circle><circle r="2430" cx="50%" cy="100%"></circle><circle r="2349" cx="50%" cy="100%"></circle><circle r="2268" cx="50%" cy="100%"></circle><circle r="2187" cx="50%" cy="100%"></circle><circle r="2106" cx="50%" cy="100%"></circle><circle r="2025" cx="50%" cy="100%"></circle><circle r="1944" cx="50%" cy="100%"></circle><circle r="1863" cx="50%" cy="100%"></circle><circle r="1782" cx="50%" cy="100%"></circle><circle r="1701" cx="50%" cy="100%"></circle><circle r="1620" cx="50%" cy="100%"></circle><circle r="1539" cx="50%" cy="100%"></circle><circle r="1458" cx="50%" cy="100%"></circle><circle r="1377" cx="50%" cy="100%"></circle><circle r="1296" cx="50%" cy="100%"></circle><circle r="1215" cx="50%" cy="100%"></circle><circle r="1134" cx="50%" cy="100%"></circle><circle r="1053" cx="50%" cy="100%"></circle><circle r="972" cx="50%" cy="100%"></circle><circle r="891" cx="50%" cy="100%"></circle><circle r="810" cx="50%" cy="100%"></circle><circle r="729" cx="50%" cy="100%"></circle><circle r="648" cx="50%" cy="100%"></circle><circle r="567" cx="50%" cy="100%"></circle><circle r="486" cx="50%" cy="100%"></circle><circle r="405" cx="50%" cy="100%"></circle><circle r="324" cx="50%" cy="100%"></circle><circle r="243" cx="50%" cy="100%"></circle><circle r="162" cx="50%" cy="100%"></circle><circle r="81" cx="50%" cy="100%"></circle></g><g stroke-width="2" stroke="hsl(265, 55%, 20%)" fill="none"><circle r="2754" cx="0" cy="50%"></circle><circle r="2673" cx="0" cy="50%"></circle><circle r="2592" cx="0" cy="50%"></circle><circle r="2511" cx="0" cy="50%"></circle><circle r="2430" cx="0" cy="50%"></circle><circle r="2349" cx="0" cy="50%"></circle><circle r="2268" cx="0" cy="50%"></circle><circle r="2187" cx="0" cy="50%"></circle><circle r="2106" cx="0" cy="50%"></circle><circle r="2025" cx="0" cy="50%"></circle><circle r="1944" cx="0" cy="50%"></circle><circle r="1863" cx="0" cy="50%"></circle><circle r="1782" cx="0" cy="50%"></circle><circle r="1701" cx="0" cy="50%"></circle><circle r="1620" cx="0" cy="50%"></circle><circle r="1539" cx="0" cy="50%"></circle><circle r="1458" cx="0" cy="50%"></circle><circle r="1377" cx="0" cy="50%"></circle><circle r="1296" cx="0" cy="50%"></circle><circle r="1215" cx="0" cy="50%"></circle><circle r="1134" cx="0" cy="50%"></circle><circle r="1053" cx="0" cy="50%"></circle><circle r="972" cx="0" cy="50%"></circle><circle r="891" cx="0" cy="50%"></circle><circle r="810" cx="0" cy="50%"></circle><circle r="729" cx="0" cy="50%"></circle><circle r="648" cx="0" cy="50%"></circle><circle r="567" cx="0" cy="50%"></circle><circle r="486" cx="0" cy="50%"></circle><circle r="405" cx="0" cy="50%"></circle><circle r="324" cx="0" cy="50%"></circle><circle r="243" cx="0" cy="50%"></circle><circle r="162" cx="0" cy="50%"></circle><circle r="81" cx="0" cy="50%"></circle></g><g stroke-width="2" stroke="hsl(265, 55%, 20%)" fill="none"><circle r="2754" cx="100%" cy="50%"></circle><circle r="2673" cx="100%" cy="50%"></circle><circle r="2592" cx="100%" cy="50%"></circle><circle r="2511" cx="100%" cy="50%"></circle><circle r="2430" cx="100%" cy="50%"></circle><circle r="2349" cx="100%" cy="50%"></circle><circle r="2268" cx="100%" cy="50%"></circle><circle r="2187" cx="100%" cy="50%"></circle><circle r="2106" cx="100%" cy="50%"></circle><circle r="2025" cx="100%" cy="50%"></circle><circle r="1944" cx="100%" cy="50%"></circle><circle r="1863" cx="100%" cy="50%"></circle><circle r="1782" cx="100%" cy="50%"></circle><circle r="1701" cx="100%" cy="50%"></circle><circle r="1620" cx="100%" cy="50%"></circle><circle r="1539" cx="100%" cy="50%"></circle><circle r="1458" cx="100%" cy="50%"></circle><circle r="1377" cx="100%" cy="50%"></circle><circle r="1296" cx="100%" cy="50%"></circle><circle r="1215" cx="100%" cy="50%"></circle><circle r="1134" cx="100%" cy="50%"></circle><circle r="1053" cx="100%" cy="50%"></circle><circle r="972" cx="100%" cy="50%"></circle><circle r="891" cx="100%" cy="50%"></circle><circle r="810" cx="100%" cy="50%"></circle><circle r="729" cx="100%" cy="50%"></circle><circle r="648" cx="100%" cy="50%"></circle><circle r="567" cx="100%" cy="50%"></circle><circle r="486" cx="100%" cy="50%"></circle><circle r="405" cx="100%" cy="50%"></circle><circle r="324" cx="100%" cy="50%"></circle><circle r="243" cx="100%" cy="50%"></circle><circle r="162" cx="100%" cy="50%"></circle><circle r="81" cx="100%" cy="50%"></circle></g></svg>