<svg xmlns="http://www.w3.org/2000/svg" version="1.1" xmlns:xlink="http://www.w3.org/1999/xlink" xmlns:svgjs="http://svgjs.dev/svgjs" viewBox="0 0 2400 800" opacity="0.49"><defs><linearGradient x1="50%" y1="0%" x2="50%" y2="100%" id="sssurf-grad"><stop stop-color="hsl(265, 55%, 30%)" stop-opacity="1" offset="0%"></stop><stop stop-color="#e0d985ff" stop-opacity="1" offset="100%"></stop></linearGradient></defs><g fill="url(#sssurf-grad)" transform="matrix(1,0,0,1,10.593017578125,-167.97541427612305)"><path d="M-10,10C19.86111111111111,11.041666666666666,75.69444444444446,20.416666666666664,133.33333333333334,15C190.97222222222223,9.583333333333334,211.11111111111114,-22.666666666666664,266.6666666666667,-16C322.22222222222223,-9.333333333333334,344.44444444444446,49.083333333333336,400,47C455.55555555555554,44.916666666666664,477.7777777777778,-23.916666666666668,533.3333333333334,-26C588.8888888888889,-28.083333333333332,611.1111111111112,36.791666666666664,666.6666666666667,37C722.2222222222223,37.208333333333336,744.4444444444445,-25,800,-25C855.5555555555555,-25,877.7777777777778,34.083333333333336,933.3333333333334,37C988.8888888888889,39.916666666666664,1011.1111111111112,-14.541666666666668,1066.6666666666667,-11C1122.2222222222222,-7.458333333333333,1144.4444444444443,51.916666666666664,1200,54C1255.5555555555557,56.083333333333336,1277.7777777777778,2.125,1333.3333333333335,-1C1388.8888888888891,-4.125,1411.1111111111113,39.416666666666664,1466.6666666666667,39C1522.2222222222222,38.583333333333336,1544.4444444444443,-6.958333333333333,1600,-3C1655.5555555555557,0.958333333333333,1677.7777777777778,59.041666666666664,1733.3333333333335,58C1788.8888888888891,56.958333333333336,1811.111111111111,-7.791666666666667,1866.6666666666667,-8C1922.2222222222224,-8.208333333333334,1944.4444444444446,53.875,2000.0000000000002,57C2055.5555555555557,60.125,2077.777777777778,7.416666666666667,2133.3333333333335,7C2188.888888888889,6.583333333333333,2211.1111111111113,54.166666666666664,2266.666666666667,55C2322.2222222222226,55.833333333333336,2320.138888888889,-60.875,2400,11C2479.861111111111,82.875,3254.1666666666665,214.79166666666669,2650,400C2045.8333333333335,585.2083333333333,156.25,795.8333333333334,-500,900" transform="matrix(1,0,0,1,0,59)" opacity="0.05"></path><path d="M-10,10C19.86111111111111,11.041666666666666,75.69444444444446,20.416666666666664,133.33333333333334,15C190.97222222222223,9.583333333333334,211.11111111111114,-22.666666666666664,266.6666666666667,-16C322.22222222222223,-9.333333333333334,344.44444444444446,49.083333333333336,400,47C455.55555555555554,44.916666666666664,477.7777777777778,-23.916666666666668,533.3333333333334,-26C588.8888888888889,-28.083333333333332,611.1111111111112,36.791666666666664,666.6666666666667,37C722.2222222222223,37.208333333333336,744.4444444444445,-25,800,-25C855.5555555555555,-25,877.7777777777778,34.083333333333336,933.3333333333334,37C988.8888888888889,39.916666666666664,1011.1111111111112,-14.541666666666668,1066.6666666666667,-11C1122.2222222222222,-7.458333333333333,1144.4444444444443,51.916666666666664,1200,54C1255.5555555555557,56.083333333333336,1277.7777777777778,2.125,1333.3333333333335,-1C1388.8888888888891,-4.125,1411.1111111111113,39.416666666666664,1466.6666666666667,39C1522.2222222222222,38.583333333333336,1544.4444444444443,-6.958333333333333,1600,-3C1655.5555555555557,0.958333333333333,1677.7777777777778,59.041666666666664,1733.3333333333335,58C1788.8888888888891,56.958333333333336,1811.111111111111,-7.791666666666667,1866.6666666666667,-8C1922.2222222222224,-8.208333333333334,1944.4444444444446,53.875,2000.0000000000002,57C2055.5555555555557,60.125,2077.777777777778,7.416666666666667,2133.3333333333335,7C2188.888888888889,6.583333333333333,2211.1111111111113,54.166666666666664,2266.666666666667,55C2322.2222222222226,55.833333333333336,2320.138888888889,-60.875,2400,11C2479.861111111111,82.875,3254.1666666666665,214.79166666666669,2650,400C2045.8333333333335,585.2083333333333,156.25,795.8333333333334,-500,900" transform="matrix(1,0,0,1,0,118)" opacity="0.11"></path><path d="M-10,10C19.86111111111111,11.041666666666666,75.69444444444446,20.416666666666664,133.33333333333334,15C190.97222222222223,9.583333333333334,211.11111111111114,-22.666666666666664,266.6666666666667,-16C322.22222222222223,-9.333333333333334,344.44444444444446,49.083333333333336,400,47C455.55555555555554,44.916666666666664,477.7777777777778,-23.916666666666668,533.3333333333334,-26C588.8888888888889,-28.083333333333332,611.1111111111112,36.791666666666664,666.6666666666667,37C722.2222222222223,37.208333333333336,744.4444444444445,-25,800,-25C855.5555555555555,-25,877.7777777777778,34.083333333333336,933.3333333333334,37C988.8888888888889,39.916666666666664,1011.1111111111112,-14.541666666666668,1066.6666666666667,-11C1122.2222222222222,-7.458333333333333,1144.4444444444443,51.916666666666664,1200,54C1255.5555555555557,56.083333333333336,1277.7777777777778,2.125,1333.3333333333335,-1C1388.8888888888891,-4.125,1411.1111111111113,39.416666666666664,1466.6666666666667,39C1522.2222222222222,38.583333333333336,1544.4444444444443,-6.958333333333333,1600,-3C1655.5555555555557,0.958333333333333,1677.7777777777778,59.041666666666664,1733.3333333333335,58C1788.8888888888891,56.958333333333336,1811.111111111111,-7.791666666666667,1866.6666666666667,-8C1922.2222222222224,-8.208333333333334,1944.4444444444446,53.875,2000.0000000000002,57C2055.5555555555557,60.125,2077.777777777778,7.416666666666667,2133.3333333333335,7C2188.888888888889,6.583333333333333,2211.1111111111113,54.166666666666664,2266.666666666667,55C2322.2222222222226,55.833333333333336,2320.138888888889,-60.875,2400,11C2479.861111111111,82.875,3254.1666666666665,214.79166666666669,2650,400C2045.8333333333335,585.2083333333333,156.25,795.8333333333334,-500,900" transform="matrix(1,0,0,1,0,177)" opacity="0.17"></path><path d="M-10,10C19.86111111111111,11.041666666666666,75.69444444444446,20.416666666666664,133.33333333333334,15C190.97222222222223,9.583333333333334,211.11111111111114,-22.666666666666664,266.6666666666667,-16C322.22222222222223,-9.333333333333334,344.44444444444446,49.083333333333336,400,47C455.55555555555554,44.916666666666664,477.7777777777778,-23.916666666666668,533.3333333333334,-26C588.8888888888889,-28.083333333333332,611.1111111111112,36.791666666666664,666.6666666666667,37C722.2222222222223,37.208333333333336,744.4444444444445,-25,800,-25C855.5555555555555,-25,877.7777777777778,34.083333333333336,933.3333333333334,37C988.8888888888889,39.916666666666664,1011.1111111111112,-14.541666666666668,1066.6666666666667,-11C1122.2222222222222,-7.458333333333333,1144.4444444444443,51.916666666666664,1200,54C1255.5555555555557,56.083333333333336,1277.7777777777778,2.125,1333.3333333333335,-1C1388.8888888888891,-4.125,1411.1111111111113,39.416666666666664,1466.6666666666667,39C1522.2222222222222,38.583333333333336,1544.4444444444443,-6.958333333333333,1600,-3C1655.5555555555557,0.958333333333333,1677.7777777777778,59.041666666666664,1733.3333333333335,58C1788.8888888888891,56.958333333333336,1811.111111111111,-7.791666666666667,1866.6666666666667,-8C1922.2222222222224,-8.208333333333334,1944.4444444444446,53.875,2000.0000000000002,57C2055.5555555555557,60.125,2077.777777777778,7.416666666666667,2133.3333333333335,7C2188.888888888889,6.583333333333333,2211.1111111111113,54.166666666666664,2266.666666666667,55C2322.2222222222226,55.833333333333336,2320.138888888889,-60.875,2400,11C2479.861111111111,82.875,3254.1666666666665,214.79166666666669,2650,400C2045.8333333333335,585.2083333333333,156.25,795.8333333333334,-500,900" transform="matrix(1,0,0,1,0,236)" opacity="0.23"></path><path d="M-10,10C19.86111111111111,11.041666666666666,75.69444444444446,20.416666666666664,133.33333333333334,15C190.97222222222223,9.583333333333334,211.11111111111114,-22.666666666666664,266.6666666666667,-16C322.22222222222223,-9.333333333333334,344.44444444444446,49.083333333333336,400,47C455.55555555555554,44.916666666666664,477.7777777777778,-23.916666666666668,533.3333333333334,-26C588.8888888888889,-28.083333333333332,611.1111111111112,36.791666666666664,666.6666666666667,37C722.2222222222223,37.208333333333336,744.4444444444445,-25,800,-25C855.5555555555555,-25,877.7777777777778,34.083333333333336,933.3333333333334,37C988.8888888888889,39.916666666666664,1011.1111111111112,-14.541666666666668,1066.6666666666667,-11C1122.2222222222222,-7.458333333333333,1144.4444444444443,51.916666666666664,1200,54C1255.5555555555557,56.083333333333336,1277.7777777777778,2.125,1333.3333333333335,-1C1388.8888888888891,-4.125,1411.1111111111113,39.416666666666664,1466.6666666666667,39C1522.2222222222222,38.583333333333336,1544.4444444444443,-6.958333333333333,1600,-3C1655.5555555555557,0.958333333333333,1677.7777777777778,59.041666666666664,1733.3333333333335,58C1788.8888888888891,56.958333333333336,1811.111111111111,-7.791666666666667,1866.6666666666667,-8C1922.2222222222224,-8.208333333333334,1944.4444444444446,53.875,2000.0000000000002,57C2055.5555555555557,60.125,2077.777777777778,7.416666666666667,2133.3333333333335,7C2188.888888888889,6.583333333333333,2211.1111111111113,54.166666666666664,2266.666666666667,55C2322.2222222222226,55.833333333333336,2320.138888888889,-60.875,2400,11C2479.861111111111,82.875,3254.1666666666665,214.79166666666669,2650,400C2045.8333333333335,585.2083333333333,156.25,795.8333333333334,-500,900" transform="matrix(1,0,0,1,0,295)" opacity="0.29"></path><path d="M-10,10C19.86111111111111,11.041666666666666,75.69444444444446,20.416666666666664,133.33333333333334,15C190.97222222222223,9.583333333333334,211.11111111111114,-22.666666666666664,266.6666666666667,-16C322.22222222222223,-9.333333333333334,344.44444444444446,49.083333333333336,400,47C455.55555555555554,44.916666666666664,477.7777777777778,-23.916666666666668,533.3333333333334,-26C588.8888888888889,-28.083333333333332,611.1111111111112,36.791666666666664,666.6666666666667,37C722.2222222222223,37.208333333333336,744.4444444444445,-25,800,-25C855.5555555555555,-25,877.7777777777778,34.083333333333336,933.3333333333334,37C988.8888888888889,39.916666666666664,1011.1111111111112,-14.541666666666668,1066.6666666666667,-11C1122.2222222222222,-7.458333333333333,1144.4444444444443,51.916666666666664,1200,54C1255.5555555555557,56.083333333333336,1277.7777777777778,2.125,1333.3333333333335,-1C1388.8888888888891,-4.125,1411.1111111111113,39.416666666666664,1466.6666666666667,39C1522.2222222222222,38.583333333333336,1544.4444444444443,-6.958333333333333,1600,-3C1655.5555555555557,0.958333333333333,1677.7777777777778,59.041666666666664,1733.3333333333335,58C1788.8888888888891,56.958333333333336,1811.111111111111,-7.791666666666667,1866.6666666666667,-8C1922.2222222222224,-8.208333333333334,1944.4444444444446,53.875,2000.0000000000002,57C2055.5555555555557,60.125,2077.777777777778,7.416666666666667,2133.3333333333335,7C2188.888888888889,6.583333333333333,2211.1111111111113,54.166666666666664,2266.666666666667,55C2322.2222222222226,55.833333333333336,2320.138888888889,-60.875,2400,11C2479.861111111111,82.875,3254.1666666666665,214.79166666666669,2650,400C2045.8333333333335,585.2083333333333,156.25,795.8333333333334,-500,900" transform="matrix(1,0,0,1,0,354)" opacity="0.35"></path><path d="M-10,10C19.86111111111111,11.041666666666666,75.69444444444446,20.416666666666664,133.33333333333334,15C190.97222222222223,9.583333333333334,211.11111111111114,-22.666666666666664,266.6666666666667,-16C322.22222222222223,-9.333333333333334,344.44444444444446,49.083333333333336,400,47C455.55555555555554,44.916666666666664,477.7777777777778,-23.916666666666668,533.3333333333334,-26C588.8888888888889,-28.083333333333332,611.1111111111112,36.791666666666664,666.6666666666667,37C722.2222222222223,37.208333333333336,744.4444444444445,-25,800,-25C855.5555555555555,-25,877.7777777777778,34.083333333333336,933.3333333333334,37C988.8888888888889,39.916666666666664,1011.1111111111112,-14.541666666666668,1066.6666666666667,-11C1122.2222222222222,-7.458333333333333,1144.4444444444443,51.916666666666664,1200,54C1255.5555555555557,56.083333333333336,1277.7777777777778,2.125,1333.3333333333335,-1C1388.8888888888891,-4.125,1411.1111111111113,39.416666666666664,1466.6666666666667,39C1522.2222222222222,38.583333333333336,1544.4444444444443,-6.958333333333333,1600,-3C1655.5555555555557,0.958333333333333,1677.7777777777778,59.041666666666664,1733.3333333333335,58C1788.8888888888891,56.958333333333336,1811.111111111111,-7.791666666666667,1866.6666666666667,-8C1922.2222222222224,-8.208333333333334,1944.4444444444446,53.875,2000.0000000000002,57C2055.5555555555557,60.125,2077.777777777778,7.416666666666667,2133.3333333333335,7C2188.888888888889,6.583333333333333,2211.1111111111113,54.166666666666664,2266.666666666667,55C2322.2222222222226,55.833333333333336,2320.138888888889,-60.875,2400,11C2479.861111111111,82.875,3254.1666666666665,214.79166666666669,2650,400C2045.8333333333335,585.2083333333333,156.25,795.8333333333334,-500,900" transform="matrix(1,0,0,1,0,413)" opacity="0.41"></path><path d="M-10,10C19.86111111111111,11.041666666666666,75.69444444444446,20.416666666666664,133.33333333333334,15C190.97222222222223,9.583333333333334,211.11111111111114,-22.666666666666664,266.6666666666667,-16C322.22222222222223,-9.333333333333334,344.44444444444446,49.083333333333336,400,47C455.55555555555554,44.916666666666664,477.7777777777778,-23.916666666666668,533.3333333333334,-26C588.8888888888889,-28.083333333333332,611.1111111111112,36.791666666666664,666.6666666666667,37C722.2222222222223,37.208333333333336,744.4444444444445,-25,800,-25C855.5555555555555,-25,877.7777777777778,34.083333333333336,933.3333333333334,37C988.8888888888889,39.916666666666664,1011.1111111111112,-14.541666666666668,1066.6666666666667,-11C1122.2222222222222,-7.458333333333333,1144.4444444444443,51.916666666666664,1200,54C1255.5555555555557,56.083333333333336,1277.7777777777778,2.125,1333.3333333333335,-1C1388.8888888888891,-4.125,1411.1111111111113,39.416666666666664,1466.6666666666667,39C1522.2222222222222,38.583333333333336,1544.4444444444443,-6.958333333333333,1600,-3C1655.5555555555557,0.958333333333333,1677.7777777777778,59.041666666666664,1733.3333333333335,58C1788.8888888888891,56.958333333333336,1811.111111111111,-7.791666666666667,1866.6666666666667,-8C1922.2222222222224,-8.208333333333334,1944.4444444444446,53.875,2000.0000000000002,57C2055.5555555555557,60.125,2077.777777777778,7.416666666666667,2133.3333333333335,7C2188.888888888889,6.583333333333333,2211.1111111111113,54.166666666666664,2266.666666666667,55C2322.2222222222226,55.833333333333336,2320.138888888889,-60.875,2400,11C2479.861111111111,82.875,3254.1666666666665,214.79166666666669,2650,400C2045.8333333333335,585.2083333333333,156.25,795.8333333333334,-500,900" transform="matrix(1,0,0,1,0,472)" opacity="0.47"></path><path d="M-10,10C19.86111111111111,11.041666666666666,75.69444444444446,20.416666666666664,133.33333333333334,15C190.97222222222223,9.583333333333334,211.11111111111114,-22.666666666666664,266.6666666666667,-16C322.22222222222223,-9.333333333333334,344.44444444444446,49.083333333333336,400,47C455.55555555555554,44.916666666666664,477.7777777777778,-23.916666666666668,533.3333333333334,-26C588.8888888888889,-28.083333333333332,611.1111111111112,36.791666666666664,666.6666666666667,37C722.2222222222223,37.208333333333336,744.4444444444445,-25,800,-25C855.5555555555555,-25,877.7777777777778,34.083333333333336,933.3333333333334,37C988.8888888888889,39.916666666666664,1011.1111111111112,-14.541666666666668,1066.6666666666667,-11C1122.2222222222222,-7.458333333333333,1144.4444444444443,51.916666666666664,1200,54C1255.5555555555557,56.083333333333336,1277.7777777777778,2.125,1333.3333333333335,-1C1388.8888888888891,-4.125,1411.1111111111113,39.416666666666664,1466.6666666666667,39C1522.2222222222222,38.583333333333336,1544.4444444444443,-6.958333333333333,1600,-3C1655.5555555555557,0.958333333333333,1677.7777777777778,59.041666666666664,1733.3333333333335,58C1788.8888888888891,56.958333333333336,1811.111111111111,-7.791666666666667,1866.6666666666667,-8C1922.2222222222224,-8.208333333333334,1944.4444444444446,53.875,2000.0000000000002,57C2055.5555555555557,60.125,2077.777777777778,7.416666666666667,2133.3333333333335,7C2188.888888888889,6.583333333333333,2211.1111111111113,54.166666666666664,2266.666666666667,55C2322.2222222222226,55.833333333333336,2320.138888888889,-60.875,2400,11C2479.861111111111,82.875,3254.1666666666665,214.79166666666669,2650,400C2045.8333333333335,585.2083333333333,156.25,795.8333333333334,-500,900" transform="matrix(1,0,0,1,0,531)" opacity="0.53"></path><path d="M-10,10C19.86111111111111,11.041666666666666,75.69444444444446,20.416666666666664,133.33333333333334,15C190.97222222222223,9.583333333333334,211.11111111111114,-22.666666666666664,266.6666666666667,-16C322.22222222222223,-9.333333333333334,344.44444444444446,49.083333333333336,400,47C455.55555555555554,44.916666666666664,477.7777777777778,-23.916666666666668,533.3333333333334,-26C588.8888888888889,-28.083333333333332,611.1111111111112,36.791666666666664,666.6666666666667,37C722.2222222222223,37.208333333333336,744.4444444444445,-25,800,-25C855.5555555555555,-25,877.7777777777778,34.083333333333336,933.3333333333334,37C988.8888888888889,39.916666666666664,1011.1111111111112,-14.541666666666668,1066.6666666666667,-11C1122.2222222222222,-7.458333333333333,1144.4444444444443,51.916666666666664,1200,54C1255.5555555555557,56.083333333333336,1277.7777777777778,2.125,1333.3333333333335,-1C1388.8888888888891,-4.125,1411.1111111111113,39.416666666666664,1466.6666666666667,39C1522.2222222222222,38.583333333333336,1544.4444444444443,-6.958333333333333,1600,-3C1655.5555555555557,0.958333333333333,1677.7777777777778,59.041666666666664,1733.3333333333335,58C1788.8888888888891,56.958333333333336,1811.111111111111,-7.791666666666667,1866.6666666666667,-8C1922.2222222222224,-8.208333333333334,1944.4444444444446,53.875,2000.0000000000002,57C2055.5555555555557,60.125,2077.777777777778,7.416666666666667,2133.3333333333335,7C2188.888888888889,6.583333333333333,2211.1111111111113,54.166666666666664,2266.666666666667,55C2322.2222222222226,55.833333333333336,2320.138888888889,-60.875,2400,11C2479.861111111111,82.875,3254.1666666666665,214.79166666666669,2650,400C2045.8333333333335,585.2083333333333,156.25,795.8333333333334,-500,900" transform="matrix(1,0,0,1,0,590)" opacity="0.58"></path><path d="M-10,10C19.86111111111111,11.041666666666666,75.69444444444446,20.416666666666664,133.33333333333334,15C190.97222222222223,9.583333333333334,211.11111111111114,-22.666666666666664,266.6666666666667,-16C322.22222222222223,-9.333333333333334,344.44444444444446,49.083333333333336,400,47C455.55555555555554,44.916666666666664,477.7777777777778,-23.916666666666668,533.3333333333334,-26C588.8888888888889,-28.083333333333332,611.1111111111112,36.791666666666664,666.6666666666667,37C722.2222222222223,37.208333333333336,744.4444444444445,-25,800,-25C855.5555555555555,-25,877.7777777777778,34.083333333333336,933.3333333333334,37C988.8888888888889,39.916666666666664,1011.1111111111112,-14.541666666666668,1066.6666666666667,-11C1122.2222222222222,-7.458333333333333,1144.4444444444443,51.916666666666664,1200,54C1255.5555555555557,56.083333333333336,1277.7777777777778,2.125,1333.3333333333335,-1C1388.8888888888891,-4.125,1411.1111111111113,39.416666666666664,1466.6666666666667,39C1522.2222222222222,38.583333333333336,1544.4444444444443,-6.958333333333333,1600,-3C1655.5555555555557,0.958333333333333,1677.7777777777778,59.041666666666664,1733.3333333333335,58C1788.8888888888891,56.958333333333336,1811.111111111111,-7.791666666666667,1866.6666666666667,-8C1922.2222222222224,-8.208333333333334,1944.4444444444446,53.875,2000.0000000000002,57C2055.5555555555557,60.125,2077.777777777778,7.416666666666667,2133.3333333333335,7C2188.888888888889,6.583333333333333,2211.1111111111113,54.166666666666664,2266.666666666667,55C2322.2222222222226,55.833333333333336,2320.138888888889,-60.875,2400,11C2479.861111111111,82.875,3254.1666666666665,214.79166666666669,2650,400C2045.8333333333335,585.2083333333333,156.25,795.8333333333334,-500,900" transform="matrix(1,0,0,1,0,649)" opacity="0.64"></path><path d="M-10,10C19.86111111111111,11.041666666666666,75.69444444444446,20.416666666666664,133.33333333333334,15C190.97222222222223,9.583333333333334,211.11111111111114,-22.666666666666664,266.6666666666667,-16C322.22222222222223,-9.333333333333334,344.44444444444446,49.083333333333336,400,47C455.55555555555554,44.916666666666664,477.7777777777778,-23.916666666666668,533.3333333333334,-26C588.8888888888889,-28.083333333333332,611.1111111111112,36.791666666666664,666.6666666666667,37C722.2222222222223,37.208333333333336,744.4444444444445,-25,800,-25C855.5555555555555,-25,877.7777777777778,34.083333333333336,933.3333333333334,37C988.8888888888889,39.916666666666664,1011.1111111111112,-14.541666666666668,1066.6666666666667,-11C1122.2222222222222,-7.458333333333333,1144.4444444444443,51.916666666666664,1200,54C1255.5555555555557,56.083333333333336,1277.7777777777778,2.125,1333.3333333333335,-1C1388.8888888888891,-4.125,1411.1111111111113,39.416666666666664,1466.6666666666667,39C1522.2222222222222,38.583333333333336,1544.4444444444443,-6.958333333333333,1600,-3C1655.5555555555557,0.958333333333333,1677.7777777777778,59.041666666666664,1733.3333333333335,58C1788.8888888888891,56.958333333333336,1811.111111111111,-7.791666666666667,1866.6666666666667,-8C1922.2222222222224,-8.208333333333334,1944.4444444444446,53.875,2000.0000000000002,57C2055.5555555555557,60.125,2077.777777777778,7.416666666666667,2133.3333333333335,7C2188.888888888889,6.583333333333333,2211.1111111111113,54.166666666666664,2266.666666666667,55C2322.2222222222226,55.833333333333336,2320.138888888889,-60.875,2400,11C2479.861111111111,82.875,3254.1666666666665,214.79166666666669,2650,400C2045.8333333333335,585.2083333333333,156.25,795.8333333333334,-500,900" transform="matrix(1,0,0,1,0,708)" opacity="0.70"></path><path d="M-10,10C19.86111111111111,11.041666666666666,75.69444444444446,20.416666666666664,133.33333333333334,15C190.97222222222223,9.583333333333334,211.11111111111114,-22.666666666666664,266.6666666666667,-16C322.22222222222223,-9.333333333333334,344.44444444444446,49.083333333333336,400,47C455.55555555555554,44.916666666666664,477.7777777777778,-23.916666666666668,533.3333333333334,-26C588.8888888888889,-28.083333333333332,611.1111111111112,36.791666666666664,666.6666666666667,37C722.2222222222223,37.208333333333336,744.4444444444445,-25,800,-25C855.5555555555555,-25,877.7777777777778,34.083333333333336,933.3333333333334,37C988.8888888888889,39.916666666666664,1011.1111111111112,-14.541666666666668,1066.6666666666667,-11C1122.2222222222222,-7.458333333333333,1144.4444444444443,51.916666666666664,1200,54C1255.5555555555557,56.083333333333336,1277.7777777777778,2.125,1333.3333333333335,-1C1388.8888888888891,-4.125,1411.1111111111113,39.416666666666664,1466.6666666666667,39C1522.2222222222222,38.583333333333336,1544.4444444444443,-6.958333333333333,1600,-3C1655.5555555555557,0.958333333333333,1677.7777777777778,59.041666666666664,1733.3333333333335,58C1788.8888888888891,56.958333333333336,1811.111111111111,-7.791666666666667,1866.6666666666667,-8C1922.2222222222224,-8.208333333333334,1944.4444444444446,53.875,2000.0000000000002,57C2055.5555555555557,60.125,2077.777777777778,7.416666666666667,2133.3333333333335,7C2188.888888888889,6.583333333333333,2211.1111111111113,54.166666666666664,2266.666666666667,55C2322.2222222222226,55.833333333333336,2320.138888888889,-60.875,2400,11C2479.861111111111,82.875,3254.1666666666665,214.79166666666669,2650,400C2045.8333333333335,585.2083333333333,156.25,795.8333333333334,-500,900" transform="matrix(1,0,0,1,0,767)" opacity="0.76"></path><path d="M-10,10C19.86111111111111,11.041666666666666,75.69444444444446,20.416666666666664,133.33333333333334,15C190.97222222222223,9.583333333333334,211.11111111111114,-22.666666666666664,266.6666666666667,-16C322.22222222222223,-9.333333333333334,344.44444444444446,49.083333333333336,400,47C455.55555555555554,44.916666666666664,477.7777777777778,-23.916666666666668,533.3333333333334,-26C588.8888888888889,-28.083333333333332,611.1111111111112,36.791666666666664,666.6666666666667,37C722.2222222222223,37.208333333333336,744.4444444444445,-25,800,-25C855.5555555555555,-25,877.7777777777778,34.083333333333336,933.3333333333334,37C988.8888888888889,39.916666666666664,1011.1111111111112,-14.541666666666668,1066.6666666666667,-11C1122.2222222222222,-7.458333333333333,1144.4444444444443,51.916666666666664,1200,54C1255.5555555555557,56.083333333333336,1277.7777777777778,2.125,1333.3333333333335,-1C1388.8888888888891,-4.125,1411.1111111111113,39.416666666666664,1466.6666666666667,39C1522.2222222222222,38.583333333333336,1544.4444444444443,-6.958333333333333,1600,-3C1655.5555555555557,0.958333333333333,1677.7777777777778,59.041666666666664,1733.3333333333335,58C1788.8888888888891,56.958333333333336,1811.111111111111,-7.791666666666667,1866.6666666666667,-8C1922.2222222222224,-8.208333333333334,1944.4444444444446,53.875,2000.0000000000002,57C2055.5555555555557,60.125,2077.777777777778,7.416666666666667,2133.3333333333335,7C2188.888888888889,6.583333333333333,2211.1111111111113,54.166666666666664,2266.666666666667,55C2322.2222222222226,55.833333333333336,2320.138888888889,-60.875,2400,11C2479.861111111111,82.875,3254.1666666666665,214.79166666666669,2650,400C2045.8333333333335,585.2083333333333,156.25,795.8333333333334,-500,900" transform="matrix(1,0,0,1,0,826)" opacity="0.82"></path><path d="M-10,10C19.86111111111111,11.041666666666666,75.69444444444446,20.416666666666664,133.33333333333334,15C190.97222222222223,9.583333333333334,211.11111111111114,-22.666666666666664,266.6666666666667,-16C322.22222222222223,-9.333333333333334,344.44444444444446,49.083333333333336,400,47C455.55555555555554,44.916666666666664,477.7777777777778,-23.916666666666668,533.3333333333334,-26C588.8888888888889,-28.083333333333332,611.1111111111112,36.791666666666664,666.6666666666667,37C722.2222222222223,37.208333333333336,744.4444444444445,-25,800,-25C855.5555555555555,-25,877.7777777777778,34.083333333333336,933.3333333333334,37C988.8888888888889,39.916666666666664,1011.1111111111112,-14.541666666666668,1066.6666666666667,-11C1122.2222222222222,-7.458333333333333,1144.4444444444443,51.916666666666664,1200,54C1255.5555555555557,56.083333333333336,1277.7777777777778,2.125,1333.3333333333335,-1C1388.8888888888891,-4.125,1411.1111111111113,39.416666666666664,1466.6666666666667,39C1522.2222222222222,38.583333333333336,1544.4444444444443,-6.958333333333333,1600,-3C1655.5555555555557,0.958333333333333,1677.7777777777778,59.041666666666664,1733.3333333333335,58C1788.8888888888891,56.958333333333336,1811.111111111111,-7.791666666666667,1866.6666666666667,-8C1922.2222222222224,-8.208333333333334,1944.4444444444446,53.875,2000.0000000000002,57C2055.5555555555557,60.125,2077.777777777778,7.416666666666667,2133.3333333333335,7C2188.888888888889,6.583333333333333,2211.1111111111113,54.166666666666664,2266.666666666667,55C2322.2222222222226,55.833333333333336,2320.138888888889,-60.875,2400,11C2479.861111111111,82.875,3254.1666666666665,214.79166666666669,2650,400C2045.8333333333335,585.2083333333333,156.25,795.8333333333334,-500,900" transform="matrix(1,0,0,1,0,885)" opacity="0.88"></path><path d="M-10,10C19.86111111111111,11.041666666666666,75.69444444444446,20.416666666666664,133.33333333333334,15C190.97222222222223,9.583333333333334,211.11111111111114,-22.666666666666664,266.6666666666667,-16C322.22222222222223,-9.333333333333334,344.44444444444446,49.083333333333336,400,47C455.55555555555554,44.916666666666664,477.7777777777778,-23.916666666666668,533.3333333333334,-26C588.8888888888889,-28.083333333333332,611.1111111111112,36.791666666666664,666.6666666666667,37C722.2222222222223,37.208333333333336,744.4444444444445,-25,800,-25C855.5555555555555,-25,877.7777777777778,34.083333333333336,933.3333333333334,37C988.8888888888889,39.916666666666664,1011.1111111111112,-14.541666666666668,1066.6666666666667,-11C1122.2222222222222,-7.458333333333333,1144.4444444444443,51.916666666666664,1200,54C1255.5555555555557,56.083333333333336,1277.7777777777778,2.125,1333.3333333333335,-1C1388.8888888888891,-4.125,1411.1111111111113,39.416666666666664,1466.6666666666667,39C1522.2222222222222,38.583333333333336,1544.4444444444443,-6.958333333333333,1600,-3C1655.5555555555557,0.958333333333333,1677.7777777777778,59.041666666666664,1733.3333333333335,58C1788.8888888888891,56.958333333333336,1811.111111111111,-7.791666666666667,1866.6666666666667,-8C1922.2222222222224,-8.208333333333334,1944.4444444444446,53.875,2000.0000000000002,57C2055.5555555555557,60.125,2077.777777777778,7.416666666666667,2133.3333333333335,7C2188.888888888889,6.583333333333333,2211.1111111111113,54.166666666666664,2266.666666666667,55C2322.2222222222226,55.833333333333336,2320.138888888889,-60.875,2400,11C2479.861111111111,82.875,3254.1666666666665,214.79166666666669,2650,400C2045.8333333333335,585.2083333333333,156.25,795.8333333333334,-500,900" transform="matrix(1,0,0,1,0,944)" opacity="0.94"></path><path d="M-10,10C19.86111111111111,11.041666666666666,75.69444444444446,20.416666666666664,133.33333333333334,15C190.97222222222223,9.583333333333334,211.11111111111114,-22.666666666666664,266.6666666666667,-16C322.22222222222223,-9.333333333333334,344.44444444444446,49.083333333333336,400,47C455.55555555555554,44.916666666666664,477.7777777777778,-23.916666666666668,533.3333333333334,-26C588.8888888888889,-28.083333333333332,611.1111111111112,36.791666666666664,666.6666666666667,37C722.2222222222223,37.208333333333336,744.4444444444445,-25,800,-25C855.5555555555555,-25,877.7777777777778,34.083333333333336,933.3333333333334,37C988.8888888888889,39.916666666666664,1011.1111111111112,-14.541666666666668,1066.6666666666667,-11C1122.2222222222222,-7.458333333333333,1144.4444444444443,51.916666666666664,1200,54C1255.5555555555557,56.083333333333336,1277.7777777777778,2.125,1333.3333333333335,-1C1388.8888888888891,-4.125,1411.1111111111113,39.416666666666664,1466.6666666666667,39C1522.2222222222222,38.583333333333336,1544.4444444444443,-6.958333333333333,1600,-3C1655.5555555555557,0.958333333333333,1677.7777777777778,59.041666666666664,1733.3333333333335,58C1788.8888888888891,56.958333333333336,1811.111111111111,-7.791666666666667,1866.6666666666667,-8C1922.2222222222224,-8.208333333333334,1944.4444444444446,53.875,2000.0000000000002,57C2055.5555555555557,60.125,2077.777777777778,7.416666666666667,2133.3333333333335,7C2188.888888888889,6.583333333333333,2211.1111111111113,54.166666666666664,2266.666666666667,55C2322.2222222222226,55.833333333333336,2320.138888888889,-60.875,2400,11C2479.861111111111,82.875,3254.1666666666665,214.79166666666669,2650,400C2045.8333333333335,585.2083333333333,156.25,795.8333333333334,-500,900" transform="matrix(1,0,0,1,0,1003)" opacity="1.00"></path></g></svg>